G04 #@! TF.GenerationSoftware,KiCad,Pcbnew,8.0.3*
G04 #@! TF.CreationDate,2024-07-11T09:34:10-07:00*
G04 #@! TF.ProjectId,mozilla-star-badge,6d6f7a69-6c6c-4612-9d73-7461722d6261,rev?*
G04 #@! TF.SameCoordinates,Original*
G04 #@! TF.FileFunction,Copper,L2,Bot*
G04 #@! TF.FilePolarity,Positive*
%FSLAX46Y46*%
G04 Gerber Fmt 4.6, Leading zero omitted, Abs format (unit mm)*
G04 Created by KiCad (PCBNEW 8.0.3) date 2024-07-11 09:34:10*
%MOMM*%
%LPD*%
G01*
G04 APERTURE LIST*
G04 Aperture macros list*
%AMRoundRect*
0 Rectangle with rounded corners*
0 $1 Rounding radius*
0 $2 $3 $4 $5 $6 $7 $8 $9 X,Y pos of 4 corners*
0 Add a 4 corners polygon primitive as box body*
4,1,4,$2,$3,$4,$5,$6,$7,$8,$9,$2,$3,0*
0 Add four circle primitives for the rounded corners*
1,1,$1+$1,$2,$3*
1,1,$1+$1,$4,$5*
1,1,$1+$1,$6,$7*
1,1,$1+$1,$8,$9*
0 Add four rect primitives between the rounded corners*
20,1,$1+$1,$2,$3,$4,$5,0*
20,1,$1+$1,$4,$5,$6,$7,0*
20,1,$1+$1,$6,$7,$8,$9,0*
20,1,$1+$1,$8,$9,$2,$3,0*%
G04 Aperture macros list end*
G04 #@! TA.AperFunction,SMDPad,CuDef*
%ADD10RoundRect,0.250000X0.650000X2.650000X-0.650000X2.650000X-0.650000X-2.650000X0.650000X-2.650000X0*%
G04 #@! TD*
G04 #@! TA.AperFunction,SMDPad,CuDef*
%ADD11C,17.000000*%
G04 #@! TD*
G04 #@! TA.AperFunction,SMDPad,CuDef*
%ADD12RoundRect,0.237500X-0.237500X0.250000X-0.237500X-0.250000X0.237500X-0.250000X0.237500X0.250000X0*%
G04 #@! TD*
G04 #@! TA.AperFunction,SMDPad,CuDef*
%ADD13C,4.500000*%
G04 #@! TD*
G04 #@! TA.AperFunction,ViaPad*
%ADD14C,0.600000*%
G04 #@! TD*
G04 #@! TA.AperFunction,ViaPad*
%ADD15C,0.750000*%
G04 #@! TD*
G04 #@! TA.AperFunction,Conductor*
%ADD16C,0.250000*%
G04 #@! TD*
G04 #@! TA.AperFunction,Conductor*
%ADD17C,0.500000*%
G04 #@! TD*
G04 APERTURE END LIST*
D10*
X70800000Y-72000000D03*
X48800000Y-72000000D03*
D11*
X59800000Y-72000000D03*
D12*
X46399999Y-67987500D03*
X46400001Y-69812500D03*
D13*
X60000000Y-51900000D03*
D14*
X48800000Y-73700000D03*
X48800000Y-70300000D03*
X48800000Y-72000000D03*
X70800000Y-73700000D03*
X70800000Y-70300000D03*
X70800000Y-72000000D03*
D15*
X50200000Y-66300000D03*
X64850000Y-63500000D03*
D14*
X60000000Y-51900000D03*
X58900000Y-51900000D03*
X60000000Y-53300000D03*
X60000000Y-50500000D03*
X61100000Y-51900000D03*
D16*
X46950000Y-72000000D02*
X46400001Y-71450001D01*
X46400001Y-71450001D02*
X46400001Y-69812500D01*
X46950000Y-72000000D02*
X48800000Y-72000000D01*
X46399999Y-67987500D02*
X46399999Y-66900001D01*
X47000000Y-66300000D02*
X50200000Y-66300000D01*
X46399999Y-66900001D02*
X47000000Y-66300000D01*
D17*
X64850000Y-63500000D02*
X59800000Y-72000000D01*
G04 #@! TA.AperFunction,Conductor*
G36*
X59916941Y-39643772D02*
G01*
X59923553Y-39644203D01*
X59938552Y-39646106D01*
X59941334Y-39646632D01*
X59946846Y-39647677D01*
X59961011Y-39651235D01*
X59972341Y-39654805D01*
X59985251Y-39659678D01*
X60000337Y-39666356D01*
X60011796Y-39672156D01*
X60030932Y-39683126D01*
X60040900Y-39689491D01*
X60063911Y-39705782D01*
X60072445Y-39712400D01*
X60098922Y-39734845D01*
X60106142Y-39741474D01*
X60135489Y-39770642D01*
X60141573Y-39777140D01*
X60173199Y-39813444D01*
X60178297Y-39819696D01*
X60211574Y-39863335D01*
X60215841Y-39869289D01*
X60250228Y-39920399D01*
X60253814Y-39926053D01*
X60288789Y-39984634D01*
X60291799Y-39989970D01*
X60326910Y-40055984D01*
X60326925Y-40056011D01*
X60329455Y-40061040D01*
X60364361Y-40134532D01*
X60366489Y-40139267D01*
X60400847Y-40220181D01*
X60402641Y-40224644D01*
X60436100Y-40312798D01*
X60437612Y-40317007D01*
X60469109Y-40409966D01*
X60470947Y-40415389D01*
X60471610Y-40417402D01*
X67682883Y-62960664D01*
X67701911Y-63020146D01*
X67704576Y-63037351D01*
X67705469Y-63037176D01*
X67707825Y-63049160D01*
X67721023Y-63081226D01*
X67724460Y-63090638D01*
X67735027Y-63123671D01*
X67740040Y-63132719D01*
X67745755Y-63141312D01*
X67745757Y-63141314D01*
X67756283Y-63151887D01*
X67770223Y-63165888D01*
X67777001Y-63173270D01*
X67799402Y-63199742D01*
X67799403Y-63199743D01*
X67807494Y-63206181D01*
X67816063Y-63211934D01*
X67816066Y-63211935D01*
X67816068Y-63211937D01*
X67848079Y-63225279D01*
X67857160Y-63229503D01*
X67887988Y-63245389D01*
X67887995Y-63245389D01*
X67897932Y-63248241D01*
X67908048Y-63250277D01*
X67908049Y-63250277D01*
X67908052Y-63250278D01*
X67942746Y-63250354D01*
X67952722Y-63250780D01*
X67987299Y-63253661D01*
X67987302Y-63253660D01*
X67999433Y-63252281D01*
X67999535Y-63253185D01*
X68016743Y-63250519D01*
X88444977Y-63295888D01*
X88447548Y-63295920D01*
X88546148Y-63298203D01*
X88551603Y-63298450D01*
X88639010Y-63304363D01*
X88644891Y-63304903D01*
X88724737Y-63314178D01*
X88731134Y-63315092D01*
X88803224Y-63327317D01*
X88810133Y-63328693D01*
X88874246Y-63343377D01*
X88881726Y-63345339D01*
X88937736Y-63361926D01*
X88945828Y-63364629D01*
X88993659Y-63382464D01*
X89002342Y-63386084D01*
X89041945Y-63404393D01*
X89051184Y-63409144D01*
X89082819Y-63427134D01*
X89092508Y-63433254D01*
X89116508Y-63450014D01*
X89126445Y-63457732D01*
X89143599Y-63472510D01*
X89153452Y-63481993D01*
X89164847Y-63494241D01*
X89174193Y-63505563D01*
X89181198Y-63515153D01*
X89189537Y-63528211D01*
X89193652Y-63535640D01*
X89200480Y-63550093D01*
X89203012Y-63556491D01*
X89207956Y-63571827D01*
X89209712Y-63578797D01*
X89212595Y-63594392D01*
X89212812Y-63596214D01*
X89213713Y-63603757D01*
X89214586Y-63618977D01*
X89214530Y-63632294D01*
X89213640Y-63646612D01*
X89211418Y-63665047D01*
X89209119Y-63678153D01*
X89203555Y-63702207D01*
X89200224Y-63713945D01*
X89190146Y-63743780D01*
X89186124Y-63754132D01*
X89170561Y-63789422D01*
X89166124Y-63798468D01*
X89144291Y-63838756D01*
X89139649Y-63846617D01*
X89110947Y-63891370D01*
X89106242Y-63898193D01*
X89070276Y-63946791D01*
X89065604Y-63952718D01*
X89022076Y-64004608D01*
X89017506Y-64009758D01*
X88966258Y-64064382D01*
X88961825Y-64068872D01*
X88926790Y-64102595D01*
X88902672Y-64125809D01*
X88898388Y-64129743D01*
X88831262Y-64188545D01*
X88827134Y-64192005D01*
X88749097Y-64254589D01*
X88747100Y-64256157D01*
X72387841Y-76834364D01*
X72371163Y-76845178D01*
X72371005Y-76845262D01*
X72337774Y-76872759D01*
X72334311Y-76875522D01*
X72300115Y-76901815D01*
X72299989Y-76901960D01*
X72299013Y-76902909D01*
X72298502Y-76903538D01*
X72295657Y-76906908D01*
X72295119Y-76907522D01*
X72294343Y-76908650D01*
X72294226Y-76908793D01*
X72274052Y-76946903D01*
X72271910Y-76950781D01*
X72250374Y-76988168D01*
X72250314Y-76988346D01*
X72249779Y-76989589D01*
X72249544Y-76990376D01*
X72248202Y-76994587D01*
X72247941Y-76995357D01*
X72247658Y-76996685D01*
X72247603Y-76996868D01*
X72243547Y-77039809D01*
X72243052Y-77044210D01*
X72237464Y-77086983D01*
X72237476Y-77087159D01*
X72237457Y-77088503D01*
X72237541Y-77089316D01*
X72237913Y-77093725D01*
X72237969Y-77094572D01*
X72238217Y-77095916D01*
X72238233Y-77096077D01*
X72250915Y-77137286D01*
X72252143Y-77141546D01*
X72263353Y-77183217D01*
X72263426Y-77183365D01*
X72270781Y-77201842D01*
X79193235Y-99696327D01*
X79193853Y-99698398D01*
X79223317Y-99800435D01*
X79224501Y-99804839D01*
X79237864Y-99858438D01*
X79247715Y-99897951D01*
X79247838Y-99898442D01*
X79248929Y-99903218D01*
X79267206Y-99991200D01*
X79268170Y-99996393D01*
X79281617Y-100078556D01*
X79282411Y-100084226D01*
X79291282Y-100160321D01*
X79291847Y-100166520D01*
X79296442Y-100236205D01*
X79296704Y-100243002D01*
X79297397Y-100306111D01*
X79297254Y-100313568D01*
X79294489Y-100369757D01*
X79293815Y-100377929D01*
X79288134Y-100426976D01*
X79286768Y-100435913D01*
X79278815Y-100477663D01*
X79276559Y-100487364D01*
X79267089Y-100521771D01*
X79263712Y-100532214D01*
X79253552Y-100559444D01*
X79248810Y-100570485D01*
X79238819Y-100590955D01*
X79232475Y-100602383D01*
X79223372Y-100616918D01*
X79215262Y-100628372D01*
X79207484Y-100638134D01*
X79197561Y-100649163D01*
X79191089Y-100655544D01*
X79179505Y-100665629D01*
X79173695Y-100670086D01*
X79160797Y-100678754D01*
X79154462Y-100682457D01*
X79140730Y-100689379D01*
X79132311Y-100692987D01*
X79118358Y-100698002D01*
X79106289Y-100701541D01*
X79092598Y-100704725D01*
X79075499Y-100707692D01*
X79062516Y-100709245D01*
X79039522Y-100710772D01*
X79027490Y-100710986D01*
X78998085Y-100710081D01*
X78987140Y-100709258D01*
X78951206Y-100704950D01*
X78941372Y-100703369D01*
X78922683Y-100699587D01*
X78899084Y-100694811D01*
X78890312Y-100692700D01*
X78841996Y-100679196D01*
X78834184Y-100676732D01*
X78780217Y-100657726D01*
X78773277Y-100655045D01*
X78714060Y-100630105D01*
X78707889Y-100627305D01*
X78643871Y-100596122D01*
X78638378Y-100593274D01*
X78569893Y-100555570D01*
X78564982Y-100552717D01*
X78492439Y-100508324D01*
X78488023Y-100505492D01*
X78411704Y-100454229D01*
X78407729Y-100451444D01*
X78378435Y-100430057D01*
X78325199Y-100391190D01*
X78323448Y-100389887D01*
X60095941Y-86558822D01*
X60075229Y-86538131D01*
X60073001Y-86536160D01*
X60049587Y-86522507D01*
X60037092Y-86514168D01*
X60015498Y-86497782D01*
X60012845Y-86496491D01*
X59989721Y-86486927D01*
X59986912Y-86485959D01*
X59960043Y-86482303D01*
X59945323Y-86479383D01*
X59919104Y-86472510D01*
X59916161Y-86472333D01*
X59891114Y-86472345D01*
X59888172Y-86472525D01*
X59868559Y-86477689D01*
X59861953Y-86479428D01*
X59847236Y-86482364D01*
X59820370Y-86486048D01*
X59817588Y-86487010D01*
X59794455Y-86496606D01*
X59791799Y-86497902D01*
X59770221Y-86514310D01*
X59757751Y-86522652D01*
X59734338Y-86536339D01*
X59732124Y-86538302D01*
X59711421Y-86559026D01*
X41666752Y-100281551D01*
X41664930Y-100282910D01*
X41583349Y-100342622D01*
X41579411Y-100345389D01*
X41503885Y-100396289D01*
X41499510Y-100399106D01*
X41427785Y-100443185D01*
X41422906Y-100446032D01*
X41355232Y-100483487D01*
X41349776Y-100486332D01*
X41286528Y-100517343D01*
X41280406Y-100520141D01*
X41221965Y-100544958D01*
X41215072Y-100547646D01*
X41161858Y-100566584D01*
X41154095Y-100569062D01*
X41106539Y-100582540D01*
X41097800Y-100584678D01*
X41056288Y-100593249D01*
X41046494Y-100594864D01*
X41020831Y-100598049D01*
X41011368Y-100599223D01*
X41000444Y-100600090D01*
X40971874Y-100601091D01*
X40959833Y-100600928D01*
X40937713Y-100599552D01*
X40924699Y-100598049D01*
X40920498Y-100597337D01*
X40908612Y-100595323D01*
X40894864Y-100592180D01*
X40883825Y-100588986D01*
X40869760Y-100583981D01*
X40862466Y-100580879D01*
X40848620Y-100573940D01*
X40843388Y-100570895D01*
X40830386Y-100562183D01*
X40825658Y-100558563D01*
X40813956Y-100548382D01*
X40808462Y-100542962D01*
X40798465Y-100531831D01*
X40791563Y-100523145D01*
X40783413Y-100511593D01*
X40775031Y-100498142D01*
X40768677Y-100486625D01*
X40767878Y-100484976D01*
X40763249Y-100475417D01*
X40759304Y-100467272D01*
X40754570Y-100456144D01*
X40744945Y-100430057D01*
X40741591Y-100419551D01*
X40737639Y-100404961D01*
X40732569Y-100386238D01*
X40730348Y-100376495D01*
X40729841Y-100373769D01*
X40722792Y-100335851D01*
X40721463Y-100326891D01*
X40716497Y-100282229D01*
X40716129Y-100278922D01*
X40715495Y-100270767D01*
X40713040Y-100215652D01*
X40712933Y-100208205D01*
X40713905Y-100146172D01*
X40714195Y-100139456D01*
X40719036Y-100070853D01*
X40719629Y-100064676D01*
X40725049Y-100019950D01*
X40728708Y-99989753D01*
X40729516Y-99984162D01*
X40743150Y-99903098D01*
X40744122Y-99897987D01*
X40762545Y-99811166D01*
X40763647Y-99806434D01*
X40774650Y-99763059D01*
X40787077Y-99714071D01*
X40788261Y-99709737D01*
X40817806Y-99608913D01*
X40818411Y-99606916D01*
X44888831Y-86559026D01*
X47750962Y-77384350D01*
X47758242Y-77366198D01*
X47758780Y-77365109D01*
X47758785Y-77365104D01*
X47769895Y-77323972D01*
X47771223Y-77319404D01*
X47783919Y-77278711D01*
X47783919Y-77278709D01*
X47784049Y-77277493D01*
X47784270Y-77276311D01*
X47784276Y-77276227D01*
X47784690Y-77271468D01*
X47784704Y-77271335D01*
X47784690Y-77270106D01*
X47784770Y-77268903D01*
X47784772Y-77268898D01*
X47779295Y-77226640D01*
X47778777Y-77221933D01*
X47774932Y-77179462D01*
X47774927Y-77179453D01*
X47774587Y-77178296D01*
X47774336Y-77177103D01*
X47774299Y-77176994D01*
X47772866Y-77172456D01*
X47772832Y-77172341D01*
X47772354Y-77171223D01*
X47771965Y-77170072D01*
X47771965Y-77170069D01*
X47755574Y-77141546D01*
X47750735Y-77133125D01*
X47748449Y-77128965D01*
X47728648Y-77091207D01*
X47728647Y-77091205D01*
X47727871Y-77090245D01*
X47727194Y-77089257D01*
X47727142Y-77089197D01*
X47724073Y-77085543D01*
X47723986Y-77085435D01*
X47723112Y-77084581D01*
X47722312Y-77083665D01*
X47688559Y-77057656D01*
X47684831Y-77054667D01*
X47672291Y-77044210D01*
X47652113Y-77027383D01*
X47652112Y-77027382D01*
X47652110Y-77027381D01*
X47651025Y-77026790D01*
X47634654Y-77016120D01*
X44628841Y-74699986D01*
X47400001Y-74699986D01*
X47410494Y-74802697D01*
X47465641Y-74969119D01*
X47465643Y-74969124D01*
X47557684Y-75118345D01*
X47681654Y-75242315D01*
X47830875Y-75334356D01*
X47830880Y-75334358D01*
X47997302Y-75389505D01*
X47997309Y-75389506D01*
X48100019Y-75399999D01*
X48549999Y-75399999D01*
X49050000Y-75399999D01*
X49499972Y-75399999D01*
X49499986Y-75399998D01*
X49602697Y-75389505D01*
X49769119Y-75334358D01*
X49769124Y-75334356D01*
X49918345Y-75242315D01*
X50042315Y-75118345D01*
X50134356Y-74969124D01*
X50134358Y-74969119D01*
X50189505Y-74802697D01*
X50189506Y-74802690D01*
X50199999Y-74699986D01*
X50200000Y-74699973D01*
X50200000Y-72250000D01*
X49050000Y-72250000D01*
X49050000Y-75399999D01*
X48549999Y-75399999D01*
X48550000Y-75399998D01*
X48550000Y-72250000D01*
X47400001Y-72250000D01*
X47400001Y-74699986D01*
X44628841Y-74699986D01*
X41124875Y-72000000D01*
X50794471Y-72000000D01*
X50814580Y-72601498D01*
X50814581Y-72601515D01*
X50874820Y-73200302D01*
X50974926Y-73793774D01*
X51114443Y-74379214D01*
X51292755Y-74954037D01*
X51292757Y-74954042D01*
X51509058Y-75515656D01*
X51509064Y-75515669D01*
X51762388Y-76061569D01*
X51762401Y-76061596D01*
X52051629Y-76589367D01*
X52375462Y-77096644D01*
X52375470Y-77096656D01*
X52587447Y-77384355D01*
X52732466Y-77581176D01*
X53121030Y-78040771D01*
X53121035Y-78040776D01*
X53539422Y-78473386D01*
X53539426Y-78473390D01*
X53985765Y-78877079D01*
X53985797Y-78877106D01*
X54386323Y-79193398D01*
X54458103Y-79250082D01*
X54748581Y-79449484D01*
X54954279Y-79590688D01*
X55472117Y-79897404D01*
X56009252Y-80168830D01*
X56009260Y-80168834D01*
X56563343Y-80403785D01*
X57131882Y-80601203D01*
X57292202Y-80645119D01*
X57712316Y-80760201D01*
X57712335Y-80760205D01*
X57712337Y-80760206D01*
X58302116Y-80880084D01*
X58898585Y-80960302D01*
X58898590Y-80960302D01*
X58898595Y-80960303D01*
X59499071Y-81000500D01*
X59499080Y-81000500D01*
X60100929Y-81000500D01*
X60701404Y-80960303D01*
X60701407Y-80960302D01*
X60701415Y-80960302D01*
X61297884Y-80880084D01*
X61887663Y-80760206D01*
X61887670Y-80760203D01*
X61887683Y-80760201D01*
X62154863Y-80687012D01*
X62468118Y-80601203D01*
X63036657Y-80403785D01*
X63590740Y-80168834D01*
X63865639Y-80029920D01*
X64127882Y-79897404D01*
X64127887Y-79897400D01*
X64127893Y-79897398D01*
X64645716Y-79590691D01*
X65141897Y-79250082D01*
X65614220Y-78877092D01*
X66060576Y-78473388D01*
X66478970Y-78040771D01*
X66867534Y-77581176D01*
X67224532Y-77096653D01*
X67548371Y-76589367D01*
X67837604Y-76061585D01*
X68090939Y-75515662D01*
X68307245Y-74954037D01*
X68386052Y-74699986D01*
X69400001Y-74699986D01*
X69410494Y-74802697D01*
X69465641Y-74969119D01*
X69465643Y-74969124D01*
X69557684Y-75118345D01*
X69681654Y-75242315D01*
X69830875Y-75334356D01*
X69830880Y-75334358D01*
X69997302Y-75389505D01*
X69997309Y-75389506D01*
X70100019Y-75399999D01*
X70549999Y-75399999D01*
X71050000Y-75399999D01*
X71499972Y-75399999D01*
X71499986Y-75399998D01*
X71602697Y-75389505D01*
X71769119Y-75334358D01*
X71769124Y-75334356D01*
X71918345Y-75242315D01*
X72042315Y-75118345D01*
X72134356Y-74969124D01*
X72134358Y-74969119D01*
X72189505Y-74802697D01*
X72189506Y-74802690D01*
X72199999Y-74699986D01*
X72200000Y-74699973D01*
X72200000Y-72250000D01*
X71050000Y-72250000D01*
X71050000Y-75399999D01*
X70549999Y-75399999D01*
X70550000Y-75399998D01*
X70550000Y-72250000D01*
X69400001Y-72250000D01*
X69400001Y-74699986D01*
X68386052Y-74699986D01*
X68485555Y-74379219D01*
X68625074Y-73793775D01*
X68725177Y-73200320D01*
X68785419Y-72601503D01*
X68805529Y-72000000D01*
X68785419Y-71398497D01*
X68725177Y-70799680D01*
X68625074Y-70206225D01*
X68485555Y-69620781D01*
X68386052Y-69300013D01*
X69400000Y-69300013D01*
X69400000Y-71750000D01*
X70550000Y-71750000D01*
X71050000Y-71750000D01*
X72199999Y-71750000D01*
X72199999Y-69300028D01*
X72199998Y-69300013D01*
X72189505Y-69197302D01*
X72134358Y-69030880D01*
X72134356Y-69030875D01*
X72042315Y-68881654D01*
X71918345Y-68757684D01*
X71769124Y-68665643D01*
X71769119Y-68665641D01*
X71602697Y-68610494D01*
X71602690Y-68610493D01*
X71499986Y-68600000D01*
X71050000Y-68600000D01*
X71050000Y-71750000D01*
X70550000Y-71750000D01*
X70550000Y-68600000D01*
X70100028Y-68600000D01*
X70100012Y-68600001D01*
X69997302Y-68610494D01*
X69830880Y-68665641D01*
X69830875Y-68665643D01*
X69681654Y-68757684D01*
X69557684Y-68881654D01*
X69465643Y-69030875D01*
X69465641Y-69030880D01*
X69410494Y-69197302D01*
X69410493Y-69197309D01*
X69400000Y-69300013D01*
X68386052Y-69300013D01*
X68307245Y-69045963D01*
X68090939Y-68484338D01*
X67837604Y-67938415D01*
X67837602Y-67938411D01*
X67837598Y-67938403D01*
X67645158Y-67587247D01*
X67548371Y-67410633D01*
X67224532Y-66903347D01*
X67087639Y-66717554D01*
X66867543Y-66418836D01*
X66867539Y-66418831D01*
X66867534Y-66418824D01*
X66478970Y-65959229D01*
X66060576Y-65526612D01*
X66060573Y-65526609D01*
X65614234Y-65122920D01*
X65614202Y-65122893D01*
X65141906Y-64749925D01*
X65141882Y-64749907D01*
X65122901Y-64736877D01*
X65078772Y-64682706D01*
X65070936Y-64613277D01*
X65086474Y-64571315D01*
X65242954Y-64307933D01*
X65285032Y-64266378D01*
X65284903Y-64266201D01*
X65286071Y-64265352D01*
X65287559Y-64263883D01*
X65290153Y-64262384D01*
X65290161Y-64262381D01*
X65439050Y-64154207D01*
X65562195Y-64017440D01*
X65654214Y-63858059D01*
X65711085Y-63683029D01*
X65730322Y-63500000D01*
X65711085Y-63316971D01*
X65665182Y-63175696D01*
X65654216Y-63141946D01*
X65654213Y-63141940D01*
X65653852Y-63141314D01*
X65562195Y-62982560D01*
X65439050Y-62845793D01*
X65439048Y-62845791D01*
X65290165Y-62737621D01*
X65290162Y-62737619D01*
X65290161Y-62737619D01*
X65229112Y-62710438D01*
X65122038Y-62662765D01*
X65122033Y-62662763D01*
X64942019Y-62624500D01*
X64757981Y-62624500D01*
X64577966Y-62662763D01*
X64577961Y-62662765D01*
X64409839Y-62737619D01*
X64409834Y-62737621D01*
X64260951Y-62845791D01*
X64260949Y-62845793D01*
X64137804Y-62982561D01*
X64045786Y-63141940D01*
X64045783Y-63141946D01*
X63993012Y-63304361D01*
X63988915Y-63316971D01*
X63979140Y-63409976D01*
X63970936Y-63488029D01*
X63954220Y-63538403D01*
X63795676Y-63805258D01*
X63744511Y-63852838D01*
X63675744Y-63865204D01*
X63633147Y-63852595D01*
X63590736Y-63831164D01*
X63590734Y-63831163D01*
X63036661Y-63596216D01*
X63036657Y-63596215D01*
X62759570Y-63500000D01*
X62468117Y-63398796D01*
X62468105Y-63398793D01*
X61887683Y-63239798D01*
X61887666Y-63239794D01*
X61297897Y-63119918D01*
X61297887Y-63119916D01*
X61297884Y-63119916D01*
X61082958Y-63091011D01*
X60701404Y-63039696D01*
X60100929Y-62999500D01*
X60100920Y-62999500D01*
X59499080Y-62999500D01*
X59499071Y-62999500D01*
X58898595Y-63039696D01*
X58467645Y-63097654D01*
X58302116Y-63119916D01*
X58302112Y-63119916D01*
X58302103Y-63119918D01*
X58302101Y-63119918D01*
X57712333Y-63239794D01*
X57712316Y-63239798D01*
X57131894Y-63398793D01*
X57131882Y-63398796D01*
X56563346Y-63596214D01*
X56563338Y-63596216D01*
X56009252Y-63831169D01*
X55472117Y-64102595D01*
X54954279Y-64409311D01*
X54458117Y-64749908D01*
X54458093Y-64749925D01*
X53985797Y-65122893D01*
X53985765Y-65122920D01*
X53539426Y-65526609D01*
X53539422Y-65526613D01*
X53121035Y-65959223D01*
X53121032Y-65959227D01*
X52732460Y-66418831D01*
X52732456Y-66418836D01*
X52375470Y-66903343D01*
X52375462Y-66903355D01*
X52051629Y-67410632D01*
X51762401Y-67938403D01*
X51762388Y-67938430D01*
X51509064Y-68484330D01*
X51509058Y-68484343D01*
X51292757Y-69045957D01*
X51292755Y-69045962D01*
X51114443Y-69620785D01*
X51033689Y-69959645D01*
X50974926Y-70206225D01*
X50902854Y-70633500D01*
X50874820Y-70799697D01*
X50814581Y-71398484D01*
X50814580Y-71398501D01*
X50794471Y-72000000D01*
X41124875Y-72000000D01*
X39483775Y-70735448D01*
X38674233Y-70111654D01*
X45425002Y-70111654D01*
X45435320Y-70212652D01*
X45489547Y-70376300D01*
X45489552Y-70376311D01*
X45580053Y-70523034D01*
X45580056Y-70523038D01*
X45701962Y-70644944D01*
X45701966Y-70644947D01*
X45848689Y-70735448D01*
X45848700Y-70735453D01*
X46012348Y-70789680D01*
X46113353Y-70799999D01*
X46150001Y-70799999D01*
X46150001Y-70062500D01*
X45425002Y-70062500D01*
X45425002Y-70111654D01*
X38674233Y-70111654D01*
X35529292Y-67688315D01*
X45424499Y-67688315D01*
X45424499Y-68286669D01*
X45424500Y-68286687D01*
X45434824Y-68387752D01*
X45489091Y-68551515D01*
X45489092Y-68551518D01*
X45579660Y-68698351D01*
X45693982Y-68812673D01*
X45727467Y-68873996D01*
X45722483Y-68943688D01*
X45693983Y-68988035D01*
X45580053Y-69101965D01*
X45489552Y-69248688D01*
X45489547Y-69248699D01*
X45435320Y-69412347D01*
X45425001Y-69513345D01*
X45425001Y-69562500D01*
X46526001Y-69562500D01*
X46593040Y-69582185D01*
X46638795Y-69634989D01*
X46650001Y-69686500D01*
X46650001Y-70799999D01*
X46686641Y-70799999D01*
X46686655Y-70799998D01*
X46787653Y-70789680D01*
X46951301Y-70735453D01*
X46951312Y-70735448D01*
X47098035Y-70644947D01*
X47098039Y-70644944D01*
X47188319Y-70554665D01*
X47249642Y-70521180D01*
X47319334Y-70526164D01*
X47375267Y-70568036D01*
X47399684Y-70633500D01*
X47400000Y-70642346D01*
X47400000Y-71750000D01*
X48550000Y-71750000D01*
X49050000Y-71750000D01*
X50199999Y-71750000D01*
X50199999Y-69300028D01*
X50199998Y-69300013D01*
X50189505Y-69197302D01*
X50134358Y-69030880D01*
X50134356Y-69030875D01*
X50042315Y-68881654D01*
X49918345Y-68757684D01*
X49769124Y-68665643D01*
X49769119Y-68665641D01*
X49602697Y-68610494D01*
X49602690Y-68610493D01*
X49499986Y-68600000D01*
X49050000Y-68600000D01*
X49050000Y-71750000D01*
X48550000Y-71750000D01*
X48550000Y-68600000D01*
X48100028Y-68600000D01*
X48100012Y-68600001D01*
X47997302Y-68610494D01*
X47830880Y-68665641D01*
X47830875Y-68665643D01*
X47681654Y-68757684D01*
X47557684Y-68881654D01*
X47465643Y-69030875D01*
X47465640Y-69030883D01*
X47448096Y-69083826D01*
X47408323Y-69141270D01*
X47343807Y-69168092D01*
X47275031Y-69155776D01*
X47224852Y-69109916D01*
X47219946Y-69101962D01*
X47106017Y-68988033D01*
X47072532Y-68926710D01*
X47077516Y-68857018D01*
X47106013Y-68812675D01*
X47220339Y-68698350D01*
X47310907Y-68551516D01*
X47365173Y-68387753D01*
X47375499Y-68286677D01*
X47375498Y-67688324D01*
X47365173Y-67587247D01*
X47310907Y-67423484D01*
X47220339Y-67276650D01*
X47151820Y-67208131D01*
X47118335Y-67146808D01*
X47123319Y-67077116D01*
X47151820Y-67032769D01*
X47180912Y-67003677D01*
X47222775Y-66961817D01*
X47284098Y-66928333D01*
X47310454Y-66925500D01*
X49531469Y-66925500D01*
X49598508Y-66945185D01*
X49605559Y-66950569D01*
X49605692Y-66950387D01*
X49759834Y-67062378D01*
X49759835Y-67062378D01*
X49759839Y-67062381D01*
X49896953Y-67123428D01*
X49927961Y-67137234D01*
X49927966Y-67137236D01*
X50107981Y-67175500D01*
X50292019Y-67175500D01*
X50472034Y-67137236D01*
X50640161Y-67062381D01*
X50789050Y-66954207D01*
X50912195Y-66817440D01*
X51004214Y-66658059D01*
X51061085Y-66483029D01*
X51080322Y-66300000D01*
X51061085Y-66116971D01*
X51024061Y-66003023D01*
X51004216Y-65941946D01*
X51004213Y-65941940D01*
X50930430Y-65814144D01*
X50912195Y-65782560D01*
X50789050Y-65645793D01*
X50789048Y-65645791D01*
X50640165Y-65537621D01*
X50640162Y-65537619D01*
X50640161Y-65537619D01*
X50579112Y-65510438D01*
X50472038Y-65462765D01*
X50472033Y-65462763D01*
X50292019Y-65424500D01*
X50107981Y-65424500D01*
X49927966Y-65462763D01*
X49927961Y-65462765D01*
X49759839Y-65537619D01*
X49759834Y-65537621D01*
X49605692Y-65649613D01*
X49604201Y-65647561D01*
X49551463Y-65672877D01*
X49531469Y-65674500D01*
X47067741Y-65674500D01*
X47067721Y-65674499D01*
X47061607Y-65674499D01*
X46938394Y-65674499D01*
X46837597Y-65694548D01*
X46837592Y-65694548D01*
X46817549Y-65698536D01*
X46817547Y-65698536D01*
X46770397Y-65718067D01*
X46703719Y-65745685D01*
X46703717Y-65745686D01*
X46601266Y-65814141D01*
X46601263Y-65814144D01*
X46001268Y-66414141D01*
X45914143Y-66501265D01*
X45914137Y-66501273D01*
X45845691Y-66603706D01*
X45845683Y-66603720D01*
X45823177Y-66658059D01*
X45812346Y-66684208D01*
X45806822Y-66697544D01*
X45798536Y-66717546D01*
X45798534Y-66717554D01*
X45774499Y-66838390D01*
X45774499Y-67040518D01*
X45754814Y-67107557D01*
X45715599Y-67146055D01*
X45701649Y-67154660D01*
X45701648Y-67154660D01*
X45579660Y-67276648D01*
X45489092Y-67423481D01*
X45489091Y-67423484D01*
X45434825Y-67587247D01*
X45434825Y-67587248D01*
X45434824Y-67587248D01*
X45424499Y-67688315D01*
X35529292Y-67688315D01*
X31098910Y-64274478D01*
X31096926Y-64272915D01*
X31088793Y-64266378D01*
X31017918Y-64209415D01*
X31013804Y-64205959D01*
X30993967Y-64188545D01*
X30959729Y-64158488D01*
X30945791Y-64146252D01*
X30941516Y-64142318D01*
X30881502Y-64084437D01*
X30877072Y-64079941D01*
X30825002Y-64024336D01*
X30820446Y-64019192D01*
X30776175Y-63966327D01*
X30771525Y-63960420D01*
X30734848Y-63910800D01*
X30730165Y-63904002D01*
X30721676Y-63890756D01*
X30700808Y-63858196D01*
X30696204Y-63850397D01*
X30673741Y-63808947D01*
X30669355Y-63800008D01*
X30653253Y-63763543D01*
X30649253Y-63753269D01*
X30647820Y-63749041D01*
X30638737Y-63722247D01*
X30635421Y-63710626D01*
X30629516Y-63685307D01*
X30627208Y-63672318D01*
X30624782Y-63652620D01*
X30623857Y-63638423D01*
X30623745Y-63623829D01*
X30624552Y-63608740D01*
X30625767Y-63598169D01*
X30628552Y-63582684D01*
X30630545Y-63574594D01*
X30635372Y-63559326D01*
X30638240Y-63551952D01*
X30644936Y-63537548D01*
X30649447Y-63529280D01*
X30657667Y-63516224D01*
X30665064Y-63505953D01*
X30674316Y-63494592D01*
X30686093Y-63481763D01*
X30695878Y-63472220D01*
X30713376Y-63456946D01*
X30723269Y-63449162D01*
X30747626Y-63431928D01*
X30757296Y-63425741D01*
X30789232Y-63407337D01*
X30798487Y-63402512D01*
X30838452Y-63383779D01*
X30847195Y-63380084D01*
X30895341Y-63361870D01*
X30903486Y-63359107D01*
X30959904Y-63342136D01*
X30967430Y-63340129D01*
X31032048Y-63325067D01*
X31039019Y-63323653D01*
X31111612Y-63311089D01*
X31118032Y-63310151D01*
X31198498Y-63300558D01*
X31204425Y-63299997D01*
X31292538Y-63293805D01*
X31298039Y-63293541D01*
X31397427Y-63291015D01*
X31399971Y-63290977D01*
X51992914Y-63201626D01*
X52010433Y-63204261D01*
X52010511Y-63203538D01*
X52022652Y-63204837D01*
X52056336Y-63201803D01*
X52066914Y-63201305D01*
X52100729Y-63201159D01*
X52100734Y-63201156D01*
X52111447Y-63198978D01*
X52121902Y-63195901D01*
X52121905Y-63195901D01*
X52151862Y-63180209D01*
X52161445Y-63175699D01*
X52192632Y-63162624D01*
X52192634Y-63162620D01*
X52201693Y-63156512D01*
X52210185Y-63149661D01*
X52231857Y-63123699D01*
X52238984Y-63115865D01*
X52262792Y-63091852D01*
X52262794Y-63091845D01*
X52268816Y-63082749D01*
X52274043Y-63073164D01*
X52274047Y-63073160D01*
X52284136Y-63040877D01*
X52287718Y-63030925D01*
X52300528Y-62999619D01*
X52300527Y-62999613D01*
X52302859Y-62987627D01*
X52303573Y-62987766D01*
X52306206Y-62970256D01*
X55105201Y-54014136D01*
X58239415Y-54014136D01*
X58239415Y-54014137D01*
X58434960Y-54167337D01*
X58434968Y-54167342D01*
X58719678Y-54339454D01*
X58719680Y-54339456D01*
X59023056Y-54475994D01*
X59023071Y-54476000D01*
X59340670Y-54574967D01*
X59667923Y-54634939D01*
X60000000Y-54655025D01*
X60332076Y-54634939D01*
X60659329Y-54574967D01*
X60976928Y-54476000D01*
X60976943Y-54475994D01*
X61280319Y-54339456D01*
X61280321Y-54339454D01*
X61565030Y-54167343D01*
X61760583Y-54014137D01*
X61760583Y-54014136D01*
X60000000Y-52253553D01*
X58239415Y-54014136D01*
X55105201Y-54014136D01*
X55765918Y-51900000D01*
X57244974Y-51900000D01*
X57265060Y-52232076D01*
X57325032Y-52559329D01*
X57423999Y-52876928D01*
X57424005Y-52876943D01*
X57560543Y-53180319D01*
X57560545Y-53180321D01*
X57732657Y-53465031D01*
X57732662Y-53465039D01*
X57885862Y-53660583D01*
X59646447Y-51900000D01*
X59646447Y-51899999D01*
X60353553Y-51899999D01*
X60353553Y-51900000D01*
X62114136Y-53660583D01*
X62114137Y-53660583D01*
X62267343Y-53465030D01*
X62439454Y-53180321D01*
X62439456Y-53180319D01*
X62575994Y-52876943D01*
X62576000Y-52876928D01*
X62674967Y-52559329D01*
X62734939Y-52232076D01*
X62755025Y-51900000D01*
X62734939Y-51567923D01*
X62674967Y-51240670D01*
X62576000Y-50923071D01*
X62575994Y-50923056D01*
X62439456Y-50619680D01*
X62439454Y-50619678D01*
X62267342Y-50334968D01*
X62267337Y-50334960D01*
X62114136Y-50139415D01*
X60353553Y-51899999D01*
X59646447Y-51899999D01*
X57885862Y-50139415D01*
X57732657Y-50334968D01*
X57560545Y-50619678D01*
X57560543Y-50619680D01*
X57424005Y-50923056D01*
X57423999Y-50923071D01*
X57325032Y-51240670D01*
X57265060Y-51567923D01*
X57244974Y-51900000D01*
X55765918Y-51900000D01*
X56426635Y-49785862D01*
X58239415Y-49785862D01*
X60000000Y-51546447D01*
X60000001Y-51546447D01*
X61760583Y-49785862D01*
X61760583Y-49785861D01*
X61565039Y-49632662D01*
X61565031Y-49632657D01*
X61280321Y-49460545D01*
X61280319Y-49460543D01*
X60976943Y-49324005D01*
X60976928Y-49323999D01*
X60659329Y-49225032D01*
X60332076Y-49165060D01*
X60000000Y-49144974D01*
X59667923Y-49165060D01*
X59340670Y-49225032D01*
X59023071Y-49323999D01*
X59023056Y-49324005D01*
X58719680Y-49460543D01*
X58719678Y-49460545D01*
X58434968Y-49632657D01*
X58239415Y-49785862D01*
X56426635Y-49785862D01*
X59356523Y-40410916D01*
X59357163Y-40408933D01*
X59389688Y-40310828D01*
X59391156Y-40306656D01*
X59423901Y-40218741D01*
X59425638Y-40214342D01*
X59459289Y-40133786D01*
X59461396Y-40129031D01*
X59495609Y-40055984D01*
X59498126Y-40050914D01*
X59532625Y-39985277D01*
X59535605Y-39979936D01*
X59569962Y-39921825D01*
X59573531Y-39916149D01*
X59607309Y-39865551D01*
X59611590Y-39859538D01*
X59644259Y-39816448D01*
X59649378Y-39810140D01*
X59680405Y-39774388D01*
X59686517Y-39767841D01*
X59715253Y-39739230D01*
X59722539Y-39732536D01*
X59748373Y-39710647D01*
X59756993Y-39703974D01*
X59779356Y-39688192D01*
X59789443Y-39681781D01*
X59807898Y-39671267D01*
X59819511Y-39665436D01*
X59833970Y-39659104D01*
X59847030Y-39654239D01*
X59857821Y-39650897D01*
X59872082Y-39647393D01*
X59880054Y-39645930D01*
X59895130Y-39644107D01*
X59901623Y-39643725D01*
X59916941Y-39643772D01*
G37*
G04 #@! TD.AperFunction*
M02*
