G04 #@! TF.GenerationSoftware,KiCad,Pcbnew,8.0.3*
G04 #@! TF.CreationDate,2024-07-11T09:34:10-07:00*
G04 #@! TF.ProjectId,mozilla-star-badge,6d6f7a69-6c6c-4612-9d73-7461722d6261,rev?*
G04 #@! TF.SameCoordinates,Original*
G04 #@! TF.FileFunction,Legend,Top*
G04 #@! TF.FilePolarity,Positive*
%FSLAX46Y46*%
G04 Gerber Fmt 4.6, Leading zero omitted, Abs format (unit mm)*
G04 Created by KiCad (PCBNEW 8.0.3) date 2024-07-11 09:34:10*
%MOMM*%
%LPD*%
G01*
G04 APERTURE LIST*
%ADD10C,0.000000*%
%ADD11C,0.100000*%
G04 APERTURE END LIST*
D10*
G36*
X61230195Y-66152273D02*
G01*
X61199042Y-66229516D01*
X61145030Y-66335907D01*
X61073412Y-66460127D01*
X61026033Y-66535492D01*
X60978711Y-66605209D01*
X60930879Y-66669503D01*
X60881975Y-66728605D01*
X60831431Y-66782740D01*
X60778682Y-66832136D01*
X60723165Y-66877022D01*
X60664312Y-66917624D01*
X60601559Y-66954171D01*
X60534341Y-66986890D01*
X60462093Y-67016008D01*
X60384249Y-67041755D01*
X60300243Y-67064356D01*
X60209512Y-67084039D01*
X60111489Y-67101033D01*
X60005609Y-67115565D01*
X59891307Y-67127863D01*
X59768017Y-67138154D01*
X59635175Y-67146665D01*
X59492216Y-67153626D01*
X59338573Y-67159262D01*
X59165631Y-67163999D01*
X59011746Y-67166632D01*
X58876923Y-67167159D01*
X58761169Y-67165581D01*
X58664488Y-67161897D01*
X58586886Y-67156108D01*
X58528370Y-67148214D01*
X58488943Y-67138213D01*
X58468612Y-67126107D01*
X58467383Y-67111895D01*
X58485260Y-67095577D01*
X58516700Y-67079158D01*
X58564662Y-67058920D01*
X58627578Y-67035351D01*
X58703877Y-67008941D01*
X58791990Y-66980179D01*
X58890348Y-66949554D01*
X58997379Y-66917555D01*
X59111516Y-66884672D01*
X59231188Y-66851394D01*
X59354825Y-66818211D01*
X59480859Y-66785611D01*
X59581981Y-66759063D01*
X59685577Y-66730167D01*
X59790664Y-66699275D01*
X59896260Y-66666735D01*
X60001381Y-66632900D01*
X60105047Y-66598119D01*
X60206274Y-66562744D01*
X60304080Y-66527125D01*
X60397482Y-66491612D01*
X60485498Y-66456556D01*
X60567145Y-66422308D01*
X60641442Y-66389219D01*
X60707405Y-66357638D01*
X60764052Y-66327917D01*
X60881336Y-66264540D01*
X60989059Y-66209593D01*
X61082666Y-66165145D01*
X61157601Y-66133266D01*
X61209309Y-66116027D01*
X61233233Y-66115496D01*
X61230195Y-66152273D01*
G37*
G36*
X68716915Y-67944439D02*
G01*
X68766435Y-67976558D01*
X68831159Y-68030325D01*
X68910587Y-68105741D01*
X69004222Y-68202806D01*
X69111566Y-68321522D01*
X69171317Y-68391446D01*
X69228275Y-68462321D01*
X69282467Y-68534237D01*
X69333922Y-68607285D01*
X69382665Y-68681556D01*
X69428725Y-68757140D01*
X69472129Y-68834129D01*
X69512906Y-68912612D01*
X69551082Y-68992681D01*
X69586684Y-69074426D01*
X69619741Y-69157938D01*
X69650280Y-69243308D01*
X69678328Y-69330626D01*
X69703914Y-69419984D01*
X69727064Y-69511471D01*
X69747806Y-69605180D01*
X69766167Y-69701199D01*
X69782176Y-69799621D01*
X69795859Y-69900535D01*
X69807244Y-70004033D01*
X69816359Y-70110205D01*
X69823231Y-70219142D01*
X69827887Y-70330935D01*
X69830356Y-70445674D01*
X69830664Y-70563451D01*
X69828840Y-70684355D01*
X69827165Y-70778652D01*
X69826413Y-70878305D01*
X69826548Y-70982354D01*
X69827535Y-71089840D01*
X69829340Y-71199806D01*
X69831928Y-71311292D01*
X69835263Y-71423340D01*
X69839311Y-71534991D01*
X69844037Y-71645287D01*
X69849405Y-71753269D01*
X69855381Y-71857978D01*
X69861930Y-71958455D01*
X69869018Y-72053742D01*
X69876608Y-72142881D01*
X69884666Y-72224912D01*
X69952181Y-72862982D01*
X69927510Y-72933741D01*
X69897564Y-73003252D01*
X69524315Y-73408343D01*
X69460368Y-73475856D01*
X69388453Y-73548453D01*
X69309614Y-73625275D01*
X69224892Y-73705463D01*
X69135332Y-73788156D01*
X69041976Y-73872497D01*
X68945866Y-73957624D01*
X68848047Y-74042679D01*
X68749560Y-74126803D01*
X68651449Y-74209136D01*
X68554756Y-74288818D01*
X68460525Y-74364990D01*
X68369798Y-74436793D01*
X68283618Y-74503367D01*
X68203028Y-74563853D01*
X68129071Y-74617392D01*
X68062791Y-74663123D01*
X68005228Y-74700188D01*
X67957428Y-74727727D01*
X67920432Y-74744880D01*
X67895283Y-74750789D01*
X67872691Y-74714186D01*
X67907174Y-74626238D01*
X67930161Y-74591190D01*
X67966867Y-74539079D01*
X68015398Y-74472433D01*
X68073858Y-74393783D01*
X68140352Y-74305659D01*
X68212987Y-74210589D01*
X68289868Y-74111104D01*
X68369099Y-74009734D01*
X68432583Y-73926776D01*
X68497636Y-73837614D01*
X68563628Y-73743361D01*
X68629929Y-73645131D01*
X68695909Y-73544037D01*
X68760937Y-73441192D01*
X68824384Y-73337708D01*
X68885620Y-73234699D01*
X68944014Y-73133279D01*
X68998937Y-73034559D01*
X69049758Y-72939655D01*
X69095847Y-72849677D01*
X69136574Y-72765740D01*
X69171309Y-72688958D01*
X69199422Y-72620441D01*
X69220283Y-72561305D01*
X69233262Y-72512662D01*
X69237728Y-72475626D01*
X69224432Y-72463796D01*
X69186121Y-72461323D01*
X69125162Y-72467673D01*
X69043919Y-72482310D01*
X68944759Y-72504697D01*
X68830047Y-72534299D01*
X68702149Y-72570581D01*
X68563431Y-72613007D01*
X68416259Y-72661041D01*
X68224745Y-72725070D01*
X68050080Y-72782615D01*
X67891770Y-72833781D01*
X67749322Y-72878674D01*
X67622241Y-72917401D01*
X67510032Y-72950067D01*
X67412201Y-72976778D01*
X67328254Y-72997642D01*
X67257696Y-73012764D01*
X67200034Y-73022250D01*
X67154772Y-73026206D01*
X67121417Y-73024739D01*
X67099474Y-73017955D01*
X67088449Y-73005959D01*
X67087847Y-72988859D01*
X67097174Y-72966760D01*
X67115936Y-72939768D01*
X67134184Y-72916830D01*
X67162118Y-72881820D01*
X67198993Y-72835671D01*
X67244063Y-72779311D01*
X67296584Y-72713672D01*
X67355808Y-72639683D01*
X67420991Y-72558276D01*
X67491388Y-72470380D01*
X67566253Y-72376926D01*
X67644841Y-72278844D01*
X67726405Y-72177065D01*
X67810202Y-72072520D01*
X67895485Y-71966137D01*
X67957988Y-71887091D01*
X68021361Y-71804855D01*
X68085255Y-71719959D01*
X68149317Y-71632936D01*
X68213200Y-71544319D01*
X68276551Y-71454638D01*
X68339022Y-71364428D01*
X68400262Y-71274218D01*
X68459920Y-71184543D01*
X68517647Y-71095932D01*
X68573092Y-71008920D01*
X68625906Y-70924038D01*
X68675737Y-70841817D01*
X68722236Y-70762790D01*
X68765053Y-70687490D01*
X68803837Y-70616448D01*
X68838238Y-70550196D01*
X68867906Y-70489266D01*
X68923235Y-70369163D01*
X68971005Y-70260724D01*
X69011614Y-70161959D01*
X69045458Y-70070879D01*
X69072934Y-69985493D01*
X69094440Y-69903810D01*
X69110373Y-69823841D01*
X69121130Y-69743594D01*
X69127107Y-69661081D01*
X69128701Y-69574310D01*
X69126311Y-69481291D01*
X69120332Y-69380035D01*
X69111163Y-69268550D01*
X69099305Y-69162199D01*
X69083139Y-69055548D01*
X69062990Y-68949714D01*
X69039183Y-68845810D01*
X69012042Y-68744951D01*
X68981891Y-68648252D01*
X68949054Y-68556828D01*
X68913856Y-68471793D01*
X68876622Y-68394263D01*
X68837676Y-68325352D01*
X68776502Y-68221781D01*
X68731810Y-68137217D01*
X68699420Y-68067181D01*
X68681590Y-67985243D01*
X68682491Y-67934771D01*
X68683088Y-67933975D01*
X68683096Y-67933965D01*
X68716915Y-67944439D01*
G37*
G36*
X59966142Y-42721249D02*
G01*
X59968095Y-42724013D01*
X59970545Y-42728374D01*
X59973490Y-42734323D01*
X59976927Y-42741850D01*
X59980852Y-42750944D01*
X59985262Y-42761596D01*
X59990155Y-42773796D01*
X59995527Y-42787534D01*
X60001374Y-42802801D01*
X60007695Y-42819585D01*
X60014485Y-42837879D01*
X60021741Y-42857670D01*
X60029461Y-42878951D01*
X60037641Y-42901710D01*
X60046279Y-42925938D01*
X60055370Y-42951626D01*
X60064912Y-42978762D01*
X60074901Y-43007338D01*
X60085335Y-43037343D01*
X60096211Y-43068768D01*
X60107524Y-43101602D01*
X60119273Y-43135836D01*
X60131453Y-43171461D01*
X60144063Y-43208465D01*
X60157098Y-43246839D01*
X60170555Y-43286573D01*
X60184432Y-43327658D01*
X60198725Y-43370084D01*
X60213431Y-43413840D01*
X60228547Y-43458917D01*
X60244069Y-43505304D01*
X60259995Y-43552993D01*
X60276322Y-43601973D01*
X60293046Y-43652234D01*
X60310165Y-43703766D01*
X60327674Y-43756560D01*
X60345571Y-43810605D01*
X60363853Y-43865892D01*
X60382517Y-43922411D01*
X60401559Y-43980152D01*
X60420976Y-44039105D01*
X60440766Y-44099260D01*
X60460924Y-44160608D01*
X60481449Y-44223137D01*
X60502336Y-44286840D01*
X60523583Y-44351705D01*
X60545186Y-44417723D01*
X60567143Y-44484884D01*
X60589450Y-44553178D01*
X60612103Y-44622595D01*
X60635101Y-44693125D01*
X60658440Y-44764759D01*
X60682116Y-44837486D01*
X60706126Y-44911297D01*
X60730468Y-44986181D01*
X60755138Y-45062130D01*
X60780133Y-45139132D01*
X60805450Y-45217179D01*
X60831086Y-45296260D01*
X60857037Y-45376365D01*
X60883301Y-45457485D01*
X60909874Y-45539609D01*
X60936753Y-45622728D01*
X60963935Y-45706832D01*
X60991417Y-45791911D01*
X61019196Y-45877955D01*
X61047268Y-45964954D01*
X61075631Y-46052898D01*
X61104281Y-46141778D01*
X61133216Y-46231584D01*
X61162431Y-46322305D01*
X61191924Y-46413932D01*
X61221692Y-46506455D01*
X61251731Y-46599864D01*
X61282039Y-46694149D01*
X61312613Y-46789300D01*
X61343448Y-46885308D01*
X61374542Y-46982162D01*
X61405893Y-47079853D01*
X61437496Y-47178371D01*
X61469348Y-47277706D01*
X61501447Y-47377848D01*
X61533789Y-47478786D01*
X61566372Y-47580512D01*
X61599191Y-47683016D01*
X61632245Y-47786287D01*
X61665529Y-47890315D01*
X61699040Y-47995092D01*
X61732776Y-48100606D01*
X61766733Y-48206848D01*
X61800909Y-48313808D01*
X61835299Y-48421477D01*
X61869902Y-48529843D01*
X61904713Y-48638899D01*
X61939729Y-48748632D01*
X61974948Y-48859035D01*
X62010366Y-48970096D01*
X62045981Y-49081806D01*
X62081788Y-49194156D01*
X62117785Y-49307134D01*
X62153969Y-49420732D01*
X62190337Y-49534939D01*
X62226885Y-49649746D01*
X62263610Y-49765143D01*
X62300509Y-49881119D01*
X62337579Y-49997665D01*
X62374817Y-50114771D01*
X62412220Y-50232428D01*
X62449785Y-50350624D01*
X62487507Y-50469351D01*
X62525385Y-50588599D01*
X62563416Y-50708357D01*
X62601595Y-50828616D01*
X62639920Y-50949365D01*
X62678387Y-51070596D01*
X62716995Y-51192298D01*
X62755738Y-51314461D01*
X62794615Y-51437075D01*
X62833622Y-51560131D01*
X62872756Y-51683619D01*
X62912014Y-51807528D01*
X62951392Y-51931849D01*
X62990888Y-52056572D01*
X63030499Y-52181687D01*
X63070220Y-52307184D01*
X63110050Y-52433054D01*
X63149985Y-52559286D01*
X63190022Y-52685870D01*
X63230157Y-52812797D01*
X63270388Y-52940057D01*
X63310711Y-53067640D01*
X63351123Y-53195536D01*
X63391622Y-53323735D01*
X63432203Y-53452228D01*
X63472865Y-53581004D01*
X63513603Y-53710053D01*
X63554414Y-53839366D01*
X63595296Y-53968933D01*
X63636245Y-54098743D01*
X63677258Y-54228788D01*
X63718333Y-54359057D01*
X63759465Y-54489540D01*
X63800651Y-54620227D01*
X63841889Y-54751109D01*
X63883176Y-54882175D01*
X63924508Y-55013416D01*
X63965882Y-55144822D01*
X64007295Y-55276383D01*
X64048743Y-55408089D01*
X64090225Y-55539931D01*
X64131735Y-55671897D01*
X64173273Y-55803979D01*
X64214833Y-55936167D01*
X64256414Y-56068450D01*
X64298011Y-56200819D01*
X64339622Y-56333264D01*
X64381244Y-56465776D01*
X64422874Y-56598343D01*
X64464508Y-56730956D01*
X64506143Y-56863606D01*
X64547776Y-56996283D01*
X64589404Y-57128976D01*
X64631024Y-57261676D01*
X64672632Y-57394373D01*
X64714226Y-57527057D01*
X64755802Y-57659718D01*
X64797358Y-57792346D01*
X64838890Y-57924931D01*
X64880394Y-58057464D01*
X64921869Y-58189935D01*
X64963310Y-58322334D01*
X65004714Y-58454650D01*
X65046079Y-58586874D01*
X65087401Y-58718997D01*
X65128677Y-58851007D01*
X65169904Y-58982896D01*
X65211079Y-59114654D01*
X65252199Y-59246270D01*
X65293260Y-59377734D01*
X65334259Y-59509038D01*
X65375194Y-59640170D01*
X65416060Y-59771122D01*
X65456856Y-59901883D01*
X65497577Y-60032443D01*
X65538221Y-60162792D01*
X65578784Y-60292921D01*
X65619264Y-60422820D01*
X65659657Y-60552478D01*
X65699960Y-60681886D01*
X65740170Y-60811035D01*
X65780284Y-60939913D01*
X65820298Y-61068512D01*
X65860210Y-61196821D01*
X65900016Y-61324831D01*
X65939713Y-61452531D01*
X65979299Y-61579912D01*
X66018769Y-61706964D01*
X66058121Y-61833677D01*
X66097352Y-61960041D01*
X66136458Y-62086047D01*
X66175437Y-62211683D01*
X66214284Y-62336941D01*
X66252998Y-62461811D01*
X66291575Y-62586282D01*
X66330011Y-62710346D01*
X66368304Y-62833991D01*
X66406450Y-62957208D01*
X66444447Y-63079988D01*
X66482291Y-63202319D01*
X66519979Y-63324194D01*
X66881740Y-64494324D01*
X76640819Y-64494324D01*
X86399898Y-64494324D01*
X85854939Y-64917554D01*
X85844637Y-64925542D01*
X85832284Y-64935098D01*
X85817897Y-64946209D01*
X85801496Y-64958862D01*
X85783098Y-64973041D01*
X85762722Y-64988733D01*
X85740385Y-65005925D01*
X85716105Y-65024602D01*
X85689902Y-65044751D01*
X85661792Y-65066357D01*
X85631794Y-65089408D01*
X85599927Y-65113887D01*
X85566208Y-65139783D01*
X85530655Y-65167082D01*
X85493287Y-65195768D01*
X85454121Y-65225829D01*
X85413176Y-65257250D01*
X85370470Y-65290018D01*
X85326021Y-65324118D01*
X85279847Y-65359538D01*
X85231967Y-65396262D01*
X85182397Y-65434277D01*
X85131158Y-65473570D01*
X85078266Y-65514126D01*
X85023739Y-65555931D01*
X84967597Y-65598972D01*
X84909857Y-65643234D01*
X84850537Y-65688705D01*
X84789655Y-65735369D01*
X84727229Y-65783213D01*
X84663278Y-65832224D01*
X84597820Y-65882386D01*
X84530872Y-65933687D01*
X84462454Y-65986113D01*
X84392582Y-66039649D01*
X84321275Y-66094282D01*
X84248552Y-66149998D01*
X84174430Y-66206782D01*
X84098928Y-66264622D01*
X84022063Y-66323503D01*
X83943854Y-66383412D01*
X83864319Y-66444333D01*
X83783476Y-66506255D01*
X83701344Y-66569162D01*
X83617939Y-66633041D01*
X83533281Y-66697878D01*
X83447387Y-66763658D01*
X83360276Y-66830370D01*
X83271966Y-66897997D01*
X83182474Y-66966527D01*
X83091820Y-67035945D01*
X83000021Y-67106238D01*
X82907095Y-67177391D01*
X82813060Y-67249392D01*
X82717935Y-67322225D01*
X82621738Y-67395878D01*
X82524486Y-67470336D01*
X82426198Y-67545585D01*
X82326893Y-67621612D01*
X82226587Y-67698402D01*
X82125300Y-67775942D01*
X82023049Y-67854218D01*
X81919852Y-67933216D01*
X81815729Y-68012922D01*
X81710696Y-68093322D01*
X81604772Y-68174402D01*
X81497975Y-68256149D01*
X81390323Y-68338548D01*
X81281834Y-68421586D01*
X81172527Y-68505249D01*
X81062419Y-68589522D01*
X80951529Y-68674393D01*
X80839874Y-68759847D01*
X80727474Y-68845870D01*
X80614345Y-68932448D01*
X80500507Y-69019568D01*
X80385977Y-69107216D01*
X80270773Y-69195377D01*
X80154914Y-69284038D01*
X80038418Y-69373185D01*
X79921302Y-69462805D01*
X79807184Y-69550128D01*
X79803585Y-69552882D01*
X79685285Y-69643404D01*
X79566421Y-69734356D01*
X79447009Y-69825725D01*
X79327069Y-69917496D01*
X79206619Y-70009656D01*
X79085676Y-70102191D01*
X78964259Y-70195088D01*
X78842385Y-70288331D01*
X78720074Y-70381908D01*
X78597343Y-70475804D01*
X78474210Y-70570005D01*
X78350694Y-70664498D01*
X78226812Y-70759269D01*
X78214832Y-70768434D01*
X78102583Y-70854304D01*
X77978024Y-70949589D01*
X76670350Y-71949898D01*
X70646069Y-76558192D01*
X70793796Y-76973965D01*
X70796418Y-76981474D01*
X70799764Y-76991288D01*
X70803828Y-77003389D01*
X70808603Y-77017760D01*
X70814085Y-77034384D01*
X70820268Y-77053241D01*
X70827146Y-77074316D01*
X70834714Y-77097590D01*
X70842967Y-77123046D01*
X70851898Y-77150666D01*
X70861502Y-77180433D01*
X70871774Y-77212329D01*
X70882708Y-77246337D01*
X70894298Y-77282438D01*
X70906540Y-77320616D01*
X70919427Y-77360853D01*
X70932953Y-77403131D01*
X70947114Y-77447433D01*
X70961904Y-77493741D01*
X70977318Y-77542037D01*
X70993348Y-77592304D01*
X71009991Y-77644525D01*
X71027241Y-77698682D01*
X71045092Y-77754757D01*
X71063538Y-77812732D01*
X71082574Y-77872591D01*
X71102194Y-77934315D01*
X71122394Y-77997887D01*
X71143166Y-78063289D01*
X71164507Y-78130505D01*
X71186409Y-78199515D01*
X71208868Y-78270304D01*
X71231879Y-78342852D01*
X71255435Y-78417143D01*
X71279530Y-78493159D01*
X71304161Y-78570882D01*
X71329320Y-78650295D01*
X71355003Y-78731380D01*
X71381203Y-78814120D01*
X71407916Y-78898497D01*
X71435135Y-78984493D01*
X71462856Y-79072092D01*
X71491072Y-79161275D01*
X71519778Y-79252024D01*
X71548969Y-79344323D01*
X71578639Y-79438154D01*
X71608782Y-79533498D01*
X71639393Y-79630339D01*
X71670466Y-79728659D01*
X71701996Y-79828441D01*
X71733978Y-79929666D01*
X71766405Y-80032317D01*
X71799272Y-80136377D01*
X71832574Y-80241828D01*
X71866304Y-80348653D01*
X71900459Y-80456833D01*
X71935031Y-80566352D01*
X71970015Y-80677192D01*
X72005407Y-80789335D01*
X72041199Y-80902763D01*
X72077388Y-81017460D01*
X72113966Y-81133407D01*
X72150930Y-81250587D01*
X72188272Y-81368982D01*
X72225988Y-81488575D01*
X72264072Y-81609348D01*
X72302518Y-81731284D01*
X72341321Y-81854365D01*
X72380476Y-81978574D01*
X72419976Y-82103892D01*
X72459816Y-82230303D01*
X72499992Y-82357788D01*
X72540496Y-82486331D01*
X72581324Y-82615913D01*
X72622470Y-82746517D01*
X72663929Y-82878126D01*
X72705694Y-83010721D01*
X72747761Y-83144286D01*
X72790124Y-83278803D01*
X72832777Y-83414254D01*
X72875715Y-83550621D01*
X72918932Y-83687888D01*
X72962423Y-83826036D01*
X73006181Y-83965048D01*
X73050203Y-84104906D01*
X73094481Y-84245593D01*
X73139011Y-84387091D01*
X73183787Y-84529383D01*
X73228803Y-84672451D01*
X73274054Y-84816277D01*
X73319534Y-84960844D01*
X73365238Y-85106134D01*
X73411160Y-85252130D01*
X73457295Y-85398815D01*
X73503637Y-85546169D01*
X73550180Y-85694177D01*
X73596919Y-85842821D01*
X73643849Y-85992082D01*
X73690964Y-86141943D01*
X73738257Y-86292387D01*
X73785725Y-86443397D01*
X73833361Y-86594954D01*
X73881160Y-86747041D01*
X73929116Y-86899640D01*
X73977223Y-87052734D01*
X74025476Y-87206306D01*
X74073870Y-87360337D01*
X74122399Y-87514811D01*
X74171836Y-87672175D01*
X74221121Y-87829042D01*
X74270249Y-87985393D01*
X74319212Y-88141210D01*
X74368007Y-88296474D01*
X74416625Y-88451168D01*
X74465063Y-88605272D01*
X74513314Y-88758770D01*
X74561373Y-88911642D01*
X74609233Y-89063869D01*
X74656888Y-89215435D01*
X74704334Y-89366320D01*
X74751564Y-89516506D01*
X74798573Y-89665975D01*
X74845354Y-89814708D01*
X74891902Y-89962688D01*
X74938212Y-90109896D01*
X74984276Y-90256313D01*
X75030091Y-90401922D01*
X75075649Y-90546704D01*
X75120945Y-90690640D01*
X75165973Y-90833713D01*
X75210727Y-90975904D01*
X75255203Y-91117194D01*
X75299393Y-91257567D01*
X75343292Y-91397002D01*
X75386895Y-91535482D01*
X75430195Y-91672989D01*
X75473187Y-91809505D01*
X75515865Y-91945010D01*
X75558223Y-92079487D01*
X75600255Y-92212917D01*
X75641956Y-92345282D01*
X75683320Y-92476564D01*
X75724341Y-92606745D01*
X75765013Y-92735806D01*
X75805331Y-92863728D01*
X75845288Y-92990495D01*
X75884879Y-93116086D01*
X75924099Y-93240484D01*
X75962941Y-93363671D01*
X76001399Y-93485629D01*
X76039468Y-93606338D01*
X76077142Y-93725781D01*
X76114416Y-93843940D01*
X76151283Y-93960795D01*
X76187737Y-94076330D01*
X76223773Y-94190525D01*
X76259386Y-94303362D01*
X76294569Y-94414823D01*
X76329316Y-94524890D01*
X76363622Y-94633544D01*
X76397481Y-94740767D01*
X76430888Y-94846541D01*
X76463835Y-94950847D01*
X76496318Y-95053667D01*
X76528332Y-95154983D01*
X76559869Y-95254777D01*
X76590924Y-95353030D01*
X76621492Y-95449723D01*
X76651567Y-95544839D01*
X76681143Y-95638360D01*
X76710213Y-95730266D01*
X76738773Y-95820540D01*
X76766817Y-95909164D01*
X76794339Y-95996118D01*
X76821332Y-96081385D01*
X76847792Y-96164947D01*
X76873712Y-96246785D01*
X76899087Y-96326880D01*
X76923911Y-96405216D01*
X76948178Y-96481772D01*
X76971882Y-96556531D01*
X76995018Y-96629475D01*
X77017579Y-96700585D01*
X77039561Y-96769844D01*
X77060957Y-96837232D01*
X77081761Y-96902731D01*
X77101967Y-96966324D01*
X77121571Y-97027991D01*
X77140566Y-97087715D01*
X77158946Y-97145477D01*
X77176705Y-97201259D01*
X77193838Y-97255042D01*
X77210340Y-97306809D01*
X77226203Y-97356541D01*
X77241423Y-97404219D01*
X77255993Y-97449826D01*
X77269908Y-97493343D01*
X77283162Y-97534752D01*
X77295749Y-97574034D01*
X77307664Y-97611171D01*
X77318901Y-97646145D01*
X77329453Y-97678938D01*
X77339316Y-97709531D01*
X77348483Y-97737906D01*
X77356948Y-97764044D01*
X77364706Y-97787928D01*
X77371752Y-97809539D01*
X77378078Y-97828859D01*
X77383680Y-97845869D01*
X77388551Y-97860551D01*
X77392687Y-97872887D01*
X77396080Y-97882858D01*
X77398726Y-97890447D01*
X77400618Y-97895635D01*
X77439640Y-98023507D01*
X77448518Y-98112917D01*
X77425407Y-98144534D01*
X77422451Y-98143305D01*
X77416697Y-98139926D01*
X77408174Y-98134416D01*
X77396912Y-98126799D01*
X77382938Y-98117097D01*
X77366283Y-98105331D01*
X77346974Y-98091523D01*
X77325042Y-98075696D01*
X77300515Y-98057870D01*
X77273421Y-98038070D01*
X77243791Y-98016315D01*
X77211652Y-97992630D01*
X77177034Y-97967034D01*
X77139965Y-97939550D01*
X77100476Y-97910201D01*
X77058594Y-97879009D01*
X77014348Y-97845994D01*
X76967768Y-97811180D01*
X76918883Y-97774588D01*
X76867721Y-97736240D01*
X76814312Y-97696159D01*
X76758683Y-97654366D01*
X76700866Y-97610883D01*
X76640887Y-97565732D01*
X76578777Y-97518935D01*
X76514564Y-97470515D01*
X76448277Y-97420493D01*
X76379945Y-97368891D01*
X76309598Y-97315731D01*
X76237263Y-97261035D01*
X76162971Y-97204826D01*
X76086749Y-97147124D01*
X76008627Y-97087953D01*
X75928635Y-97027334D01*
X75846800Y-96965288D01*
X75763151Y-96901839D01*
X75677719Y-96837009D01*
X75590531Y-96770818D01*
X75501617Y-96703289D01*
X75411005Y-96634444D01*
X75318726Y-96564305D01*
X75224806Y-96492895D01*
X75129276Y-96420234D01*
X75032165Y-96346345D01*
X74933501Y-96271251D01*
X74898926Y-96244927D01*
X74833313Y-96194972D01*
X74731631Y-96117531D01*
X74628482Y-96038951D01*
X74523898Y-95959252D01*
X74417905Y-95878457D01*
X74310533Y-95796588D01*
X74201812Y-95713667D01*
X74091770Y-95629716D01*
X73980435Y-95544757D01*
X73867838Y-95458812D01*
X73754006Y-95371903D01*
X73638970Y-95284052D01*
X73522757Y-95195280D01*
X73405397Y-95105610D01*
X73286919Y-95015064D01*
X73167352Y-94923664D01*
X73046724Y-94831432D01*
X72925065Y-94738390D01*
X72802403Y-94644559D01*
X72678768Y-94549963D01*
X72554189Y-94454622D01*
X72428694Y-94358559D01*
X72302312Y-94261795D01*
X72249904Y-94221660D01*
X72175073Y-94164354D01*
X72047005Y-94066256D01*
X71918138Y-93967524D01*
X71788499Y-93868179D01*
X71658119Y-93768245D01*
X71527026Y-93667742D01*
X71395250Y-93566692D01*
X71262818Y-93465119D01*
X71129760Y-93363043D01*
X71033665Y-93289315D01*
X70937331Y-93215402D01*
X70840772Y-93141317D01*
X70744004Y-93067071D01*
X70647040Y-92992675D01*
X70549897Y-92918141D01*
X70452588Y-92843479D01*
X70355130Y-92768702D01*
X70257536Y-92693820D01*
X70237199Y-92678216D01*
X72641094Y-92678216D01*
X72651275Y-92694317D01*
X72673795Y-92719567D01*
X72707951Y-92753381D01*
X72753040Y-92795177D01*
X72808360Y-92844373D01*
X72873208Y-92900387D01*
X72946882Y-92962635D01*
X73028680Y-93030535D01*
X73117899Y-93103505D01*
X73213836Y-93180963D01*
X73315788Y-93262324D01*
X73423054Y-93347008D01*
X73534931Y-93434432D01*
X73650716Y-93524012D01*
X73769707Y-93615167D01*
X73897087Y-93711852D01*
X74020735Y-93804900D01*
X74139788Y-93893699D01*
X74253382Y-93977636D01*
X74360652Y-94056098D01*
X74460734Y-94128474D01*
X74552764Y-94194151D01*
X74635878Y-94252516D01*
X74709211Y-94302957D01*
X74771900Y-94344862D01*
X74823080Y-94377618D01*
X74861887Y-94400613D01*
X74887457Y-94413234D01*
X74898926Y-94414870D01*
X74902483Y-94388531D01*
X74894695Y-94331804D01*
X74876774Y-94249685D01*
X74849938Y-94147171D01*
X74815399Y-94029260D01*
X74774374Y-93900948D01*
X74748064Y-93826438D01*
X74719791Y-93755908D01*
X74689052Y-93688914D01*
X74655342Y-93625011D01*
X74618156Y-93563756D01*
X74576989Y-93504704D01*
X74531336Y-93447413D01*
X74480693Y-93391438D01*
X74424554Y-93336336D01*
X74362416Y-93281662D01*
X74293772Y-93226973D01*
X74218118Y-93171825D01*
X74134950Y-93115775D01*
X74043763Y-93058377D01*
X73944051Y-92999189D01*
X73835311Y-92937767D01*
X73717036Y-92873666D01*
X73588723Y-92806443D01*
X73449867Y-92735655D01*
X73357987Y-92693717D01*
X73262413Y-92657947D01*
X73165585Y-92628521D01*
X73069946Y-92605615D01*
X72977940Y-92589405D01*
X72892009Y-92580067D01*
X72779842Y-92579351D01*
X72695108Y-92595101D01*
X72646095Y-92627871D01*
X72641094Y-92678216D01*
X70237199Y-92678216D01*
X70159821Y-92618846D01*
X70062001Y-92543791D01*
X69964091Y-92468666D01*
X69866105Y-92393482D01*
X69768058Y-92318252D01*
X69669965Y-92242985D01*
X69571841Y-92167695D01*
X69473700Y-92092392D01*
X69375559Y-92017087D01*
X69277431Y-91941793D01*
X69179332Y-91866520D01*
X69081276Y-91791280D01*
X68983278Y-91716084D01*
X68885353Y-91640945D01*
X68787517Y-91565872D01*
X68689783Y-91490879D01*
X68592167Y-91415975D01*
X68494684Y-91341173D01*
X68397349Y-91266484D01*
X68300176Y-91191919D01*
X68203181Y-91117490D01*
X68106377Y-91043209D01*
X68009781Y-90969086D01*
X67913407Y-90895133D01*
X67817270Y-90821361D01*
X67721385Y-90747783D01*
X67625767Y-90674409D01*
X67530430Y-90601251D01*
X67435389Y-90528320D01*
X67340660Y-90455627D01*
X67246258Y-90383185D01*
X67152196Y-90311004D01*
X67058491Y-90239096D01*
X66965156Y-90167473D01*
X66872208Y-90096145D01*
X66779660Y-90025125D01*
X66687528Y-89954423D01*
X66595826Y-89884052D01*
X66504570Y-89814021D01*
X66413774Y-89744344D01*
X66323453Y-89675031D01*
X66233622Y-89606094D01*
X66144296Y-89537544D01*
X66055490Y-89469393D01*
X65967219Y-89401652D01*
X65879497Y-89334332D01*
X65792340Y-89267446D01*
X65705762Y-89201003D01*
X65619779Y-89135017D01*
X65534405Y-89069497D01*
X65449655Y-89004457D01*
X65406275Y-88971165D01*
X65365543Y-88939906D01*
X65282086Y-88875857D01*
X65199297Y-88812320D01*
X65117192Y-88749308D01*
X65035786Y-88686832D01*
X64955093Y-88624903D01*
X64875128Y-88563533D01*
X64795907Y-88502733D01*
X64717443Y-88442514D01*
X64639753Y-88382888D01*
X64562850Y-88323866D01*
X64486750Y-88265461D01*
X64411468Y-88207682D01*
X64337018Y-88150542D01*
X64263416Y-88094052D01*
X64190676Y-88038223D01*
X64118813Y-87983068D01*
X64047843Y-87928597D01*
X63977779Y-87874821D01*
X63908637Y-87821753D01*
X63840432Y-87769403D01*
X63773179Y-87717783D01*
X63706892Y-87666905D01*
X63641586Y-87616780D01*
X63577277Y-87567419D01*
X63513979Y-87518833D01*
X63451707Y-87471035D01*
X63390476Y-87424036D01*
X63330301Y-87377846D01*
X63271197Y-87332478D01*
X63213178Y-87287943D01*
X63156260Y-87244252D01*
X63100457Y-87201417D01*
X63045785Y-87159449D01*
X62992258Y-87118360D01*
X62939891Y-87078160D01*
X62888699Y-87038863D01*
X62838696Y-87000478D01*
X62789899Y-86963017D01*
X62742321Y-86926492D01*
X62695978Y-86890914D01*
X62650884Y-86856295D01*
X62636658Y-86845373D01*
X64996346Y-86845373D01*
X65045389Y-86904434D01*
X65153551Y-86994036D01*
X65252830Y-87064656D01*
X65340220Y-87116389D01*
X65406275Y-87144331D01*
X65441549Y-87143577D01*
X65453840Y-87099983D01*
X65429711Y-87041339D01*
X65377886Y-86975627D01*
X65307089Y-86910831D01*
X65226043Y-86854934D01*
X65143472Y-86815919D01*
X65068099Y-86801768D01*
X65004543Y-86812577D01*
X64996346Y-86845373D01*
X62636658Y-86845373D01*
X62607055Y-86822645D01*
X62564504Y-86789978D01*
X62523248Y-86758303D01*
X62483301Y-86727632D01*
X62444678Y-86697977D01*
X62314388Y-86597998D01*
X62185660Y-86499332D01*
X62058670Y-86402114D01*
X61933596Y-86306475D01*
X61810615Y-86212550D01*
X61689905Y-86120471D01*
X61571642Y-86030371D01*
X61456004Y-85942385D01*
X61343168Y-85856644D01*
X61233312Y-85773283D01*
X61126614Y-85692433D01*
X61023249Y-85614230D01*
X60923396Y-85538805D01*
X60827232Y-85466292D01*
X60734934Y-85396824D01*
X60646680Y-85330534D01*
X60562647Y-85267556D01*
X60483012Y-85208022D01*
X60407952Y-85152067D01*
X60337645Y-85099822D01*
X60272269Y-85051422D01*
X60212000Y-85006999D01*
X60157016Y-84966687D01*
X60107494Y-84930618D01*
X60063612Y-84898927D01*
X60025546Y-84871745D01*
X59993475Y-84849207D01*
X59967575Y-84831446D01*
X59948023Y-84818595D01*
X59934998Y-84810786D01*
X59928676Y-84808154D01*
X59927018Y-84808991D01*
X59923184Y-84811492D01*
X59917195Y-84815643D01*
X59909072Y-84821426D01*
X59898835Y-84828827D01*
X59886504Y-84837831D01*
X59872099Y-84848422D01*
X59855640Y-84860584D01*
X59837148Y-84874302D01*
X59816644Y-84889560D01*
X59794147Y-84906343D01*
X59769677Y-84924636D01*
X59743255Y-84944423D01*
X59714902Y-84965688D01*
X59684637Y-84988417D01*
X59652480Y-85012593D01*
X59618453Y-85038201D01*
X59582575Y-85065226D01*
X59544866Y-85093652D01*
X59505347Y-85123464D01*
X59464038Y-85154646D01*
X59420960Y-85187183D01*
X59376132Y-85221059D01*
X59329575Y-85256259D01*
X59281309Y-85292767D01*
X59231355Y-85330569D01*
X59179732Y-85369647D01*
X59126462Y-85409988D01*
X59071563Y-85451575D01*
X59015058Y-85494393D01*
X58956964Y-85538427D01*
X58897304Y-85583661D01*
X58836098Y-85630079D01*
X58773365Y-85677666D01*
X58709125Y-85726407D01*
X58643400Y-85776286D01*
X58576210Y-85827288D01*
X58507574Y-85879397D01*
X58437513Y-85932598D01*
X58366047Y-85986875D01*
X58293197Y-86042213D01*
X58218982Y-86098597D01*
X58143424Y-86156010D01*
X58066542Y-86214437D01*
X57988356Y-86273864D01*
X57908888Y-86334274D01*
X57828156Y-86395651D01*
X57746182Y-86457982D01*
X57662985Y-86521249D01*
X57578587Y-86585438D01*
X57493007Y-86650533D01*
X57406265Y-86716519D01*
X57318382Y-86783379D01*
X57229378Y-86851100D01*
X57139273Y-86919664D01*
X57048088Y-86989058D01*
X56955843Y-87059264D01*
X56862558Y-87130268D01*
X56768253Y-87202055D01*
X56672949Y-87274609D01*
X56576666Y-87347913D01*
X56479424Y-87421954D01*
X56381244Y-87496715D01*
X56282145Y-87572181D01*
X56182149Y-87648337D01*
X56081274Y-87725166D01*
X55979543Y-87802654D01*
X55876974Y-87880785D01*
X55773588Y-87959544D01*
X55669405Y-88038915D01*
X55564447Y-88118882D01*
X55458732Y-88199430D01*
X55352281Y-88280545D01*
X55245115Y-88362209D01*
X55137254Y-88444408D01*
X55028717Y-88527127D01*
X54919526Y-88610349D01*
X54809701Y-88694059D01*
X54699261Y-88778243D01*
X54588227Y-88862884D01*
X54476620Y-88947966D01*
X54364459Y-89033475D01*
X54251766Y-89119395D01*
X54138559Y-89205711D01*
X54024860Y-89292407D01*
X53910689Y-89379467D01*
X53796066Y-89466876D01*
X53681010Y-89554619D01*
X53565544Y-89642680D01*
X53449686Y-89731043D01*
X53333458Y-89819694D01*
X53216879Y-89908616D01*
X53099969Y-89997795D01*
X52982749Y-90087215D01*
X52865240Y-90176859D01*
X52747461Y-90266714D01*
X52629432Y-90356763D01*
X52511175Y-90446991D01*
X52392709Y-90537382D01*
X52274054Y-90627921D01*
X52155232Y-90718593D01*
X52036261Y-90809381D01*
X51917163Y-90900271D01*
X51797957Y-90991247D01*
X51678664Y-91082294D01*
X51559304Y-91173396D01*
X51439898Y-91264537D01*
X51320466Y-91355703D01*
X51201027Y-91446877D01*
X51081603Y-91538044D01*
X50962213Y-91629190D01*
X50842878Y-91720297D01*
X50723618Y-91811351D01*
X50604454Y-91902337D01*
X50485405Y-91993238D01*
X50366492Y-92084040D01*
X50247735Y-92174727D01*
X50129154Y-92265283D01*
X50010771Y-92355693D01*
X49892604Y-92445941D01*
X49774674Y-92536013D01*
X49657002Y-92625892D01*
X49539608Y-92715563D01*
X49422512Y-92805011D01*
X49305734Y-92894219D01*
X49189295Y-92983174D01*
X49073214Y-93071859D01*
X48957513Y-93160258D01*
X48842211Y-93248356D01*
X48727329Y-93336139D01*
X48612887Y-93423589D01*
X48498905Y-93510693D01*
X48385403Y-93597434D01*
X48272402Y-93683796D01*
X48159923Y-93769765D01*
X48047984Y-93855325D01*
X47936607Y-93940461D01*
X47825812Y-94025156D01*
X47715620Y-94109396D01*
X47606049Y-94193165D01*
X47497122Y-94276447D01*
X47388857Y-94359228D01*
X47281275Y-94441491D01*
X47174397Y-94523221D01*
X47068243Y-94604403D01*
X46962832Y-94685021D01*
X46858186Y-94765060D01*
X46754325Y-94844504D01*
X46651268Y-94923338D01*
X46549037Y-95001546D01*
X46447651Y-95079114D01*
X46347131Y-95156024D01*
X46247496Y-95232262D01*
X46148768Y-95307813D01*
X46050966Y-95382661D01*
X45954111Y-95456790D01*
X45858223Y-95530185D01*
X45763322Y-95602831D01*
X45669429Y-95674711D01*
X45576564Y-95745812D01*
X45484747Y-95816116D01*
X45393998Y-95885609D01*
X45304338Y-95954275D01*
X45215786Y-96022099D01*
X45128364Y-96089066D01*
X45092836Y-96116283D01*
X45042092Y-96155158D01*
X44956989Y-96220363D01*
X44873076Y-96284663D01*
X44790373Y-96348043D01*
X44708901Y-96410488D01*
X44628680Y-96471983D01*
X44549730Y-96532511D01*
X44472071Y-96592058D01*
X44395724Y-96650608D01*
X44320709Y-96708145D01*
X44247046Y-96764655D01*
X44174755Y-96820121D01*
X44103857Y-96874528D01*
X44034372Y-96927860D01*
X43966321Y-96980103D01*
X43899723Y-97031240D01*
X43834599Y-97081257D01*
X43770968Y-97130137D01*
X43708853Y-97177866D01*
X43648271Y-97224427D01*
X43589245Y-97269806D01*
X43531794Y-97313986D01*
X43475938Y-97356953D01*
X43421699Y-97398691D01*
X43369095Y-97439184D01*
X43318147Y-97478417D01*
X43268876Y-97516374D01*
X43221301Y-97553041D01*
X43175444Y-97588401D01*
X43131324Y-97622439D01*
X43088962Y-97655140D01*
X43048377Y-97686487D01*
X43009591Y-97716467D01*
X42972623Y-97745062D01*
X42937494Y-97772259D01*
X42904224Y-97798040D01*
X42872833Y-97822391D01*
X42843341Y-97845297D01*
X42815770Y-97866741D01*
X42790138Y-97886708D01*
X42766467Y-97905184D01*
X42744776Y-97922152D01*
X42725086Y-97937596D01*
X42707418Y-97951502D01*
X42691791Y-97963854D01*
X42678225Y-97974637D01*
X42641974Y-97995941D01*
X42621481Y-97988440D01*
X42616851Y-97950537D01*
X42628188Y-97880638D01*
X42655598Y-97777148D01*
X42699185Y-97638471D01*
X42701707Y-97630768D01*
X42704944Y-97620784D01*
X42708890Y-97608537D01*
X42713540Y-97594044D01*
X42718888Y-97577322D01*
X42724929Y-97558389D01*
X42731658Y-97537262D01*
X42739069Y-97513958D01*
X42747157Y-97488495D01*
X42755916Y-97460889D01*
X42765341Y-97431158D01*
X42775427Y-97399319D01*
X42786167Y-97365390D01*
X42797558Y-97329387D01*
X42809592Y-97291328D01*
X42822265Y-97251231D01*
X42835572Y-97209112D01*
X42849506Y-97164989D01*
X42864063Y-97118878D01*
X42879238Y-97070798D01*
X42895024Y-97020765D01*
X42911416Y-96968797D01*
X42928409Y-96914911D01*
X42945997Y-96859124D01*
X42964175Y-96801454D01*
X42982938Y-96741917D01*
X43002280Y-96680531D01*
X43022196Y-96617314D01*
X43042680Y-96552282D01*
X43063727Y-96485453D01*
X43085332Y-96416843D01*
X43107488Y-96346471D01*
X43130191Y-96274354D01*
X43153436Y-96200508D01*
X43177216Y-96124951D01*
X43201526Y-96047701D01*
X43226361Y-95968774D01*
X43251716Y-95888188D01*
X43277585Y-95805960D01*
X43303963Y-95722107D01*
X43330843Y-95636646D01*
X43358222Y-95549596D01*
X43386093Y-95460972D01*
X43414451Y-95370793D01*
X43443290Y-95279075D01*
X43472606Y-95185836D01*
X43502392Y-95091093D01*
X43532644Y-94994864D01*
X43563355Y-94897165D01*
X43594521Y-94798013D01*
X43626136Y-94697427D01*
X43658195Y-94595423D01*
X43690691Y-94492019D01*
X43723621Y-94387232D01*
X43756977Y-94281078D01*
X43790756Y-94173576D01*
X43824951Y-94064743D01*
X43859557Y-93954595D01*
X43894569Y-93843151D01*
X43929981Y-93730426D01*
X43965788Y-93616440D01*
X44001984Y-93501208D01*
X44038564Y-93384749D01*
X44075522Y-93267078D01*
X44112854Y-93148215D01*
X44150553Y-93028175D01*
X44188615Y-92906976D01*
X44227033Y-92784636D01*
X44265803Y-92661171D01*
X44304919Y-92536600D01*
X44344375Y-92410938D01*
X44384167Y-92284204D01*
X44424288Y-92156414D01*
X44464734Y-92027586D01*
X44505498Y-91897738D01*
X44546576Y-91766886D01*
X44587962Y-91635047D01*
X44629650Y-91502239D01*
X44671636Y-91368480D01*
X44713913Y-91233786D01*
X44756477Y-91098175D01*
X44799322Y-90961663D01*
X44842442Y-90824269D01*
X44885832Y-90686009D01*
X44929487Y-90546901D01*
X44973401Y-90406962D01*
X45017569Y-90266209D01*
X45061985Y-90124659D01*
X45106645Y-89982331D01*
X45151541Y-89839240D01*
X45196670Y-89695404D01*
X45242026Y-89550841D01*
X45287603Y-89405567D01*
X45333395Y-89259601D01*
X45379399Y-89112958D01*
X45425607Y-88965658D01*
X45472014Y-88817715D01*
X45518616Y-88669149D01*
X45565407Y-88519976D01*
X45612381Y-88370214D01*
X45659533Y-88219879D01*
X45706857Y-88068990D01*
X45754348Y-87917562D01*
X45802001Y-87765614D01*
X45849810Y-87613163D01*
X45897770Y-87460226D01*
X45945876Y-87306820D01*
X45994121Y-87152963D01*
X46042501Y-86998671D01*
X46092708Y-86838555D01*
X46142747Y-86678996D01*
X46192609Y-86520013D01*
X46242291Y-86361624D01*
X46291784Y-86203848D01*
X46341085Y-86046703D01*
X46390187Y-85890209D01*
X46439084Y-85734384D01*
X46487770Y-85579246D01*
X46536239Y-85424815D01*
X46584485Y-85271109D01*
X46632503Y-85118146D01*
X46680287Y-84965945D01*
X46727831Y-84814525D01*
X46775128Y-84663904D01*
X46822173Y-84514101D01*
X46868961Y-84365136D01*
X46915484Y-84217025D01*
X46961738Y-84069788D01*
X47007717Y-83923445D01*
X47053414Y-83778012D01*
X47098824Y-83633509D01*
X47143940Y-83489955D01*
X47188758Y-83347368D01*
X47233270Y-83205767D01*
X47277472Y-83065170D01*
X47321357Y-82925596D01*
X47364919Y-82787065D01*
X47408153Y-82649593D01*
X47451053Y-82513201D01*
X47493612Y-82377906D01*
X47535825Y-82243728D01*
X47577686Y-82110684D01*
X47619189Y-81978794D01*
X47660329Y-81848077D01*
X47701098Y-81718550D01*
X47741493Y-81590233D01*
X47781505Y-81463144D01*
X47821131Y-81337302D01*
X47860363Y-81212725D01*
X47899196Y-81089433D01*
X47937625Y-80967443D01*
X47975642Y-80846774D01*
X48013243Y-80727446D01*
X48050421Y-80609476D01*
X48087170Y-80492883D01*
X48123485Y-80377687D01*
X48159360Y-80263905D01*
X48194789Y-80151556D01*
X48229766Y-80040659D01*
X48264285Y-79931233D01*
X48298340Y-79823295D01*
X48331925Y-79716866D01*
X48365035Y-79611963D01*
X48397664Y-79508605D01*
X48429805Y-79406811D01*
X48461453Y-79306599D01*
X48492601Y-79207988D01*
X48523245Y-79110997D01*
X48553378Y-79015644D01*
X48582995Y-78921948D01*
X48612088Y-78829927D01*
X48640653Y-78739601D01*
X48668684Y-78650987D01*
X48696175Y-78564105D01*
X48723119Y-78478973D01*
X48749511Y-78395610D01*
X48775346Y-78314035D01*
X48800617Y-78234265D01*
X48825317Y-78156320D01*
X48849443Y-78080219D01*
X48872987Y-78005979D01*
X48895944Y-77933620D01*
X48918307Y-77863160D01*
X48940071Y-77794618D01*
X48961231Y-77728013D01*
X48981779Y-77663363D01*
X49001711Y-77600687D01*
X49021020Y-77540003D01*
X49039701Y-77481330D01*
X49057747Y-77424687D01*
X49075153Y-77370093D01*
X49091913Y-77317565D01*
X49108021Y-77267123D01*
X49123471Y-77218786D01*
X49138257Y-77172571D01*
X49152374Y-77128498D01*
X49165814Y-77086585D01*
X49178574Y-77046851D01*
X49190646Y-77009315D01*
X49202025Y-76973995D01*
X49212705Y-76940909D01*
X49222680Y-76910077D01*
X49231944Y-76881517D01*
X49240491Y-76855248D01*
X49248315Y-76831288D01*
X49255412Y-76809656D01*
X49261773Y-76790371D01*
X49267395Y-76773451D01*
X49272270Y-76758915D01*
X49276393Y-76746782D01*
X49279759Y-76737070D01*
X49282360Y-76729798D01*
X49284192Y-76724984D01*
X49285248Y-76722647D01*
X49282898Y-76707038D01*
X49264864Y-76679922D01*
X49232164Y-76642209D01*
X49185817Y-76594806D01*
X49126843Y-76538622D01*
X49056259Y-76474565D01*
X48975087Y-76403543D01*
X48884343Y-76326465D01*
X48785048Y-76244238D01*
X48678221Y-76157770D01*
X48564879Y-76067971D01*
X48446044Y-75975748D01*
X48430067Y-75963478D01*
X48412146Y-75949723D01*
X48392300Y-75934496D01*
X48370546Y-75917811D01*
X48346904Y-75899681D01*
X48321390Y-75880122D01*
X48294024Y-75859146D01*
X48264824Y-75836769D01*
X48233807Y-75813002D01*
X48200992Y-75787862D01*
X48166397Y-75761361D01*
X48130041Y-75733513D01*
X48091941Y-75704333D01*
X48052116Y-75673834D01*
X48010584Y-75642030D01*
X47967363Y-75608935D01*
X47922472Y-75574564D01*
X47875928Y-75538929D01*
X47827751Y-75502046D01*
X47777957Y-75463927D01*
X47726565Y-75424587D01*
X47673595Y-75384040D01*
X47619062Y-75342300D01*
X47562987Y-75299380D01*
X47505387Y-75255295D01*
X47446280Y-75210058D01*
X47385685Y-75163684D01*
X47323620Y-75116186D01*
X47260102Y-75067578D01*
X47195151Y-75017874D01*
X47128784Y-74967089D01*
X47061020Y-74915235D01*
X46991877Y-74862328D01*
X46921373Y-74808380D01*
X46849526Y-74753407D01*
X46776354Y-74697421D01*
X46701876Y-74640437D01*
X46626110Y-74582468D01*
X46549074Y-74523529D01*
X46470787Y-74463633D01*
X46391266Y-74402795D01*
X46310530Y-74341029D01*
X46228597Y-74278347D01*
X46145484Y-74214765D01*
X46061212Y-74150296D01*
X45975797Y-74084954D01*
X45889257Y-74018753D01*
X45801612Y-73951707D01*
X45712879Y-73883829D01*
X45623076Y-73815135D01*
X45532223Y-73745637D01*
X45440336Y-73675350D01*
X45347434Y-73604288D01*
X45253535Y-73532464D01*
X45158658Y-73459892D01*
X45062820Y-73386587D01*
X44966041Y-73312562D01*
X44868337Y-73237832D01*
X44769728Y-73162409D01*
X44670232Y-73086309D01*
X44569866Y-73009545D01*
X44468650Y-72932130D01*
X44366600Y-72854080D01*
X44263736Y-72775407D01*
X44160076Y-72696127D01*
X44055637Y-72616251D01*
X43950439Y-72535796D01*
X43844498Y-72454774D01*
X43737835Y-72373199D01*
X43630466Y-72291086D01*
X43522409Y-72208448D01*
X43413684Y-72125300D01*
X43304309Y-72041654D01*
X43194300Y-71957526D01*
X43083678Y-71872929D01*
X42972460Y-71787877D01*
X42860663Y-71702383D01*
X42748307Y-71616463D01*
X42635410Y-71530129D01*
X42521990Y-71443396D01*
X42408064Y-71356278D01*
X42293652Y-71268788D01*
X42178771Y-71180941D01*
X42063440Y-71092750D01*
X41947677Y-71004229D01*
X41831500Y-70915393D01*
X41714927Y-70826255D01*
X41597977Y-70736829D01*
X41480667Y-70647130D01*
X41363016Y-70557170D01*
X41245043Y-70466964D01*
X41126765Y-70376526D01*
X41008200Y-70285870D01*
X40889367Y-70195009D01*
X40770284Y-70103959D01*
X40650970Y-70012732D01*
X40531442Y-69921342D01*
X35226947Y-65865598D01*
X37388383Y-65865598D01*
X37467236Y-65904886D01*
X37473525Y-65907708D01*
X37482614Y-65912717D01*
X37494469Y-65919886D01*
X37509054Y-65929187D01*
X37526335Y-65940594D01*
X37546276Y-65954080D01*
X37568844Y-65969618D01*
X37594002Y-65987180D01*
X37621715Y-66006740D01*
X37651950Y-66028271D01*
X37684671Y-66051745D01*
X37719843Y-66077137D01*
X37757431Y-66104418D01*
X37797400Y-66133563D01*
X37839715Y-66164543D01*
X37884342Y-66197332D01*
X37931245Y-66231904D01*
X37980389Y-66268230D01*
X38031740Y-66306285D01*
X38085262Y-66346041D01*
X38140921Y-66387471D01*
X38198682Y-66430548D01*
X38258510Y-66475245D01*
X38320369Y-66521536D01*
X38384225Y-66569393D01*
X38450043Y-66618789D01*
X38517788Y-66669698D01*
X38587426Y-66722092D01*
X38658920Y-66775944D01*
X38732237Y-66831228D01*
X38807340Y-66887917D01*
X38884196Y-66945983D01*
X38962770Y-67005399D01*
X39043026Y-67066140D01*
X39124929Y-67128176D01*
X39208446Y-67191483D01*
X39293539Y-67256032D01*
X39380176Y-67321797D01*
X39468320Y-67388750D01*
X39557937Y-67456866D01*
X39648992Y-67526116D01*
X39741450Y-67596474D01*
X39835276Y-67667913D01*
X39930435Y-67740406D01*
X40026892Y-67813925D01*
X40124612Y-67888445D01*
X40223561Y-67963938D01*
X40323703Y-68040377D01*
X40425004Y-68117735D01*
X40527428Y-68195985D01*
X40630940Y-68275100D01*
X40735506Y-68355053D01*
X40841091Y-68435818D01*
X40947659Y-68517367D01*
X41055177Y-68599673D01*
X41163608Y-68682709D01*
X41272918Y-68766449D01*
X41383072Y-68850865D01*
X41494035Y-68935930D01*
X41605773Y-69021618D01*
X41718249Y-69107901D01*
X41831430Y-69194753D01*
X41945280Y-69282146D01*
X42059764Y-69370054D01*
X42174848Y-69458450D01*
X42290496Y-69547306D01*
X42406674Y-69636596D01*
X42523347Y-69726292D01*
X42640479Y-69816369D01*
X42758036Y-69906798D01*
X42875983Y-69997552D01*
X42994285Y-70088606D01*
X43112906Y-70179931D01*
X43231813Y-70271502D01*
X43350970Y-70363290D01*
X43470342Y-70455269D01*
X43589894Y-70547412D01*
X43709592Y-70639692D01*
X43829399Y-70732083D01*
X43949283Y-70824556D01*
X44069206Y-70917085D01*
X44189135Y-71009644D01*
X44310515Y-71103347D01*
X44431829Y-71197024D01*
X44553040Y-71290648D01*
X44674113Y-71384190D01*
X44795010Y-71477623D01*
X44915697Y-71570918D01*
X45036135Y-71664048D01*
X45156290Y-71756984D01*
X45276125Y-71849699D01*
X45395604Y-71942165D01*
X45514690Y-72034352D01*
X45633347Y-72126235D01*
X45751540Y-72217784D01*
X45869231Y-72308972D01*
X45986384Y-72399770D01*
X46102964Y-72490151D01*
X46218934Y-72580087D01*
X46334257Y-72669550D01*
X46448898Y-72758511D01*
X46562820Y-72846943D01*
X46675987Y-72934818D01*
X46788363Y-73022107D01*
X46899912Y-73108783D01*
X47010596Y-73194819D01*
X47120381Y-73280184D01*
X47229229Y-73364853D01*
X47337105Y-73448797D01*
X47443971Y-73531988D01*
X47549793Y-73614397D01*
X47654534Y-73695998D01*
X47758157Y-73776761D01*
X47860626Y-73856659D01*
X47961906Y-73935665D01*
X48061959Y-74013749D01*
X48160749Y-74090884D01*
X48258241Y-74167043D01*
X48354398Y-74242196D01*
X48449183Y-74316317D01*
X48542561Y-74389377D01*
X48634495Y-74461348D01*
X48724949Y-74532202D01*
X48813887Y-74601911D01*
X48901272Y-74670447D01*
X48987068Y-74737783D01*
X49071240Y-74803889D01*
X49153750Y-74868739D01*
X49234562Y-74932305D01*
X49313641Y-74994557D01*
X49390950Y-75055469D01*
X49466452Y-75115012D01*
X49540112Y-75173158D01*
X49611893Y-75229880D01*
X49681759Y-75285149D01*
X49749674Y-75338938D01*
X49815601Y-75391218D01*
X49879505Y-75441961D01*
X49941348Y-75491140D01*
X50001095Y-75538726D01*
X50058710Y-75584692D01*
X50114156Y-75629010D01*
X50167396Y-75671650D01*
X50218396Y-75712587D01*
X50267118Y-75751791D01*
X50313526Y-75789234D01*
X50357584Y-75824889D01*
X50399256Y-75858728D01*
X50438505Y-75890722D01*
X50475295Y-75920844D01*
X50509591Y-75949066D01*
X50541355Y-75975359D01*
X50570551Y-75999696D01*
X50597144Y-76022049D01*
X50621097Y-76042390D01*
X50642373Y-76060690D01*
X50660937Y-76076922D01*
X50676752Y-76091058D01*
X50689782Y-76103070D01*
X50699991Y-76112930D01*
X50707342Y-76120609D01*
X50711799Y-76126080D01*
X50713326Y-76129316D01*
X50711594Y-76147111D01*
X50705957Y-76176897D01*
X50696581Y-76218109D01*
X50683631Y-76270183D01*
X50667274Y-76332556D01*
X50647675Y-76404664D01*
X50624999Y-76485942D01*
X50599412Y-76575828D01*
X50571080Y-76673756D01*
X50540168Y-76779164D01*
X50506842Y-76891488D01*
X50471268Y-77010163D01*
X50433611Y-77134626D01*
X50394037Y-77264313D01*
X50352711Y-77398660D01*
X50309799Y-77537103D01*
X50265467Y-77679079D01*
X50219881Y-77824024D01*
X50173205Y-77971374D01*
X50165197Y-77996581D01*
X50156322Y-78024558D01*
X50146588Y-78055270D01*
X50136008Y-78088683D01*
X50124592Y-78124762D01*
X50112352Y-78163473D01*
X50099297Y-78204781D01*
X50085438Y-78248651D01*
X50070788Y-78295049D01*
X50055355Y-78343941D01*
X50039152Y-78395291D01*
X50022189Y-78449066D01*
X50004477Y-78505230D01*
X49986027Y-78563750D01*
X49966850Y-78624589D01*
X49946956Y-78687715D01*
X49926357Y-78753092D01*
X49905062Y-78820686D01*
X49883084Y-78890462D01*
X49860433Y-78962385D01*
X49837120Y-79036422D01*
X49813155Y-79112537D01*
X49788550Y-79190696D01*
X49763315Y-79270865D01*
X49737461Y-79353008D01*
X49711000Y-79437091D01*
X49683941Y-79523081D01*
X49656296Y-79610941D01*
X49628076Y-79700637D01*
X49599291Y-79792136D01*
X49569953Y-79885402D01*
X49540072Y-79980400D01*
X49509658Y-80077097D01*
X49478724Y-80175458D01*
X49447280Y-80275447D01*
X49415336Y-80377031D01*
X49382903Y-80480175D01*
X49349993Y-80584845D01*
X49316616Y-80691005D01*
X49282783Y-80798621D01*
X49248504Y-80907659D01*
X49213792Y-81018084D01*
X49178656Y-81129862D01*
X49143107Y-81242957D01*
X49107157Y-81357336D01*
X49070816Y-81472964D01*
X49034095Y-81589805D01*
X48997004Y-81707827D01*
X48959556Y-81826993D01*
X48921760Y-81947270D01*
X48883627Y-82068623D01*
X48845168Y-82191018D01*
X48806395Y-82314419D01*
X48767317Y-82438792D01*
X48727947Y-82564103D01*
X48688294Y-82690317D01*
X48648369Y-82817400D01*
X48608184Y-82945316D01*
X48567749Y-83074032D01*
X48527075Y-83203512D01*
X48486173Y-83333723D01*
X48445054Y-83464630D01*
X48403728Y-83596197D01*
X48362207Y-83728391D01*
X48320502Y-83861177D01*
X48278622Y-83994520D01*
X48236579Y-84128387D01*
X48194385Y-84262741D01*
X48152049Y-84397549D01*
X48109582Y-84532776D01*
X48066996Y-84668388D01*
X48024302Y-84804349D01*
X47981509Y-84940626D01*
X47938630Y-85077184D01*
X47895674Y-85213987D01*
X47852653Y-85351003D01*
X47809578Y-85488196D01*
X47766459Y-85625531D01*
X47723307Y-85762974D01*
X47680134Y-85900490D01*
X47636949Y-86038045D01*
X47593764Y-86175605D01*
X47550590Y-86313134D01*
X47507438Y-86450598D01*
X47464317Y-86587963D01*
X47421240Y-86725193D01*
X47378218Y-86862255D01*
X47335260Y-86999114D01*
X47292377Y-87135735D01*
X47249582Y-87272084D01*
X47206884Y-87408126D01*
X47164294Y-87543826D01*
X47121824Y-87679150D01*
X47079483Y-87814064D01*
X47037284Y-87948532D01*
X46995236Y-88082521D01*
X46953351Y-88215995D01*
X46911640Y-88348920D01*
X46870112Y-88481262D01*
X46828780Y-88612986D01*
X46787654Y-88744057D01*
X46746745Y-88874441D01*
X46706063Y-89004103D01*
X46665620Y-89133009D01*
X46625427Y-89261124D01*
X46585494Y-89388413D01*
X46545832Y-89514843D01*
X46506452Y-89640378D01*
X46467364Y-89764983D01*
X46428581Y-89888625D01*
X46390112Y-90011269D01*
X46351968Y-90132879D01*
X46314161Y-90253422D01*
X46276701Y-90372863D01*
X46239599Y-90491168D01*
X46202865Y-90608301D01*
X46166512Y-90724228D01*
X46130548Y-90838916D01*
X46094987Y-90952328D01*
X46059837Y-91064431D01*
X46025110Y-91175189D01*
X45990818Y-91284569D01*
X45956970Y-91392536D01*
X45923578Y-91499055D01*
X45890652Y-91604092D01*
X45858204Y-91707612D01*
X45826244Y-91809580D01*
X45794783Y-91909963D01*
X45763832Y-92008724D01*
X45733401Y-92105831D01*
X45703502Y-92201248D01*
X45674146Y-92294940D01*
X45645343Y-92386874D01*
X45617104Y-92477014D01*
X45589440Y-92565326D01*
X45562362Y-92651775D01*
X45535881Y-92736328D01*
X45510008Y-92818948D01*
X45484752Y-92899602D01*
X45460126Y-92978256D01*
X45436141Y-93054873D01*
X45412806Y-93129421D01*
X45390133Y-93201864D01*
X45368133Y-93272168D01*
X45346816Y-93340298D01*
X45326194Y-93406220D01*
X45306277Y-93469899D01*
X45287076Y-93531301D01*
X45268602Y-93590390D01*
X45250866Y-93647133D01*
X45233878Y-93701495D01*
X45217650Y-93753440D01*
X45202192Y-93802936D01*
X45187516Y-93849947D01*
X45173632Y-93894438D01*
X45160550Y-93936375D01*
X45148283Y-93975724D01*
X45136840Y-94012449D01*
X45126232Y-94046517D01*
X45116471Y-94077892D01*
X45107567Y-94106541D01*
X45099531Y-94132427D01*
X45092374Y-94155518D01*
X45086107Y-94175779D01*
X45080740Y-94193174D01*
X45065976Y-94257382D01*
X45062804Y-94310671D01*
X45060792Y-94317721D01*
X45079938Y-94346137D01*
X45092836Y-94367501D01*
X45098594Y-94365325D01*
X45109927Y-94358860D01*
X45126711Y-94348197D01*
X45148822Y-94333429D01*
X45176138Y-94314648D01*
X45208536Y-94291945D01*
X45245893Y-94265414D01*
X45288086Y-94235145D01*
X45334991Y-94201232D01*
X45386485Y-94163767D01*
X45442446Y-94122840D01*
X45502750Y-94078546D01*
X45567274Y-94030975D01*
X45635895Y-93980220D01*
X45708491Y-93926373D01*
X45784937Y-93869527D01*
X45865111Y-93809772D01*
X45948890Y-93747202D01*
X46036150Y-93681909D01*
X46126770Y-93613984D01*
X46220624Y-93543520D01*
X46317592Y-93470609D01*
X46417548Y-93395344D01*
X46520371Y-93317815D01*
X46625937Y-93238115D01*
X46734123Y-93156338D01*
X46844806Y-93072573D01*
X46957863Y-92986915D01*
X47073171Y-92899454D01*
X47190607Y-92810283D01*
X47310047Y-92719494D01*
X47431369Y-92627180D01*
X47554450Y-92533432D01*
X47679166Y-92438342D01*
X47805394Y-92342003D01*
X47933012Y-92244507D01*
X48061896Y-92145946D01*
X48115755Y-92104738D01*
X48170860Y-92062575D01*
X48227190Y-92019475D01*
X48284725Y-91975454D01*
X48343442Y-91930527D01*
X48403321Y-91884710D01*
X48464341Y-91838021D01*
X48526480Y-91790475D01*
X48589717Y-91742088D01*
X48654031Y-91692877D01*
X48719401Y-91642857D01*
X48785805Y-91592046D01*
X48853223Y-91540459D01*
X48921633Y-91488112D01*
X48991014Y-91435022D01*
X49061346Y-91381204D01*
X49132606Y-91326676D01*
X49204773Y-91271453D01*
X49277827Y-91215551D01*
X49351746Y-91158987D01*
X49426509Y-91101777D01*
X49502095Y-91043936D01*
X49578483Y-90985483D01*
X49655651Y-90926431D01*
X49733579Y-90866798D01*
X49812244Y-90806600D01*
X49891627Y-90745854D01*
X49971706Y-90684574D01*
X50052459Y-90622778D01*
X50133865Y-90560481D01*
X50215904Y-90497701D01*
X50298554Y-90434453D01*
X50381794Y-90370753D01*
X50465603Y-90306617D01*
X50549959Y-90242062D01*
X50634842Y-90177104D01*
X50720229Y-90111759D01*
X50806101Y-90046044D01*
X50892436Y-89979974D01*
X50979212Y-89913566D01*
X51066409Y-89846835D01*
X51154006Y-89779799D01*
X51241980Y-89712474D01*
X51330312Y-89644874D01*
X51418979Y-89577018D01*
X51507961Y-89508921D01*
X51597236Y-89440598D01*
X51686784Y-89372067D01*
X51776583Y-89303344D01*
X51866611Y-89234445D01*
X51956849Y-89165385D01*
X52047274Y-89096182D01*
X52137865Y-89026851D01*
X52228602Y-88957409D01*
X52319462Y-88887871D01*
X52410426Y-88818255D01*
X52501471Y-88748576D01*
X52592577Y-88678850D01*
X52683722Y-88609094D01*
X52774885Y-88539323D01*
X52866046Y-88469555D01*
X52957182Y-88399805D01*
X53048273Y-88330090D01*
X53139297Y-88260425D01*
X53230233Y-88190827D01*
X53321061Y-88121312D01*
X53411758Y-88051896D01*
X53502305Y-87982596D01*
X53592679Y-87913428D01*
X53682859Y-87844407D01*
X53772824Y-87775551D01*
X53862554Y-87706875D01*
X53952026Y-87638395D01*
X54041221Y-87570128D01*
X54130115Y-87502090D01*
X54218689Y-87434297D01*
X54306922Y-87366766D01*
X54394791Y-87299512D01*
X54482276Y-87232552D01*
X54569355Y-87165901D01*
X54656009Y-87099577D01*
X54742214Y-87033595D01*
X54827951Y-86967972D01*
X54913197Y-86902724D01*
X54997932Y-86837866D01*
X55082135Y-86773416D01*
X55165784Y-86709389D01*
X55248859Y-86645802D01*
X55331337Y-86582670D01*
X55413199Y-86520011D01*
X55546213Y-86418216D01*
X55678341Y-86317140D01*
X55809525Y-86216825D01*
X55939710Y-86117314D01*
X56068838Y-86018649D01*
X56196852Y-85920875D01*
X56323696Y-85824033D01*
X56449311Y-85728167D01*
X56573643Y-85633321D01*
X56696633Y-85539536D01*
X56818225Y-85446855D01*
X56938362Y-85355323D01*
X57056987Y-85264982D01*
X57174043Y-85175874D01*
X57289473Y-85088043D01*
X57403220Y-85001532D01*
X57515228Y-84916383D01*
X57625440Y-84832641D01*
X57733798Y-84750347D01*
X57840245Y-84669544D01*
X57944726Y-84590277D01*
X58047183Y-84512587D01*
X58147558Y-84436517D01*
X58245796Y-84362112D01*
X58341839Y-84289413D01*
X58435631Y-84218463D01*
X58527114Y-84149306D01*
X58616231Y-84081985D01*
X58702926Y-84016542D01*
X58787143Y-83953021D01*
X58868823Y-83891465D01*
X58947910Y-83831916D01*
X59024347Y-83774417D01*
X59098077Y-83719012D01*
X59169044Y-83665743D01*
X59237190Y-83614654D01*
X59302459Y-83565787D01*
X59364793Y-83519186D01*
X59424136Y-83474893D01*
X59480432Y-83432952D01*
X59533622Y-83393404D01*
X59583650Y-83356295D01*
X59630459Y-83321665D01*
X59673993Y-83289559D01*
X59714194Y-83260019D01*
X59751006Y-83233089D01*
X59784371Y-83208811D01*
X59814233Y-83187228D01*
X59840535Y-83168383D01*
X59863219Y-83152320D01*
X59882230Y-83139081D01*
X59897510Y-83128709D01*
X59909003Y-83121247D01*
X59916650Y-83116738D01*
X59920396Y-83115226D01*
X59930538Y-83119262D01*
X59950903Y-83131157D01*
X59981058Y-83150594D01*
X60020571Y-83177255D01*
X60069006Y-83210821D01*
X60125932Y-83250974D01*
X60190914Y-83297396D01*
X60263519Y-83349770D01*
X60343314Y-83407777D01*
X60429865Y-83471098D01*
X60522738Y-83539417D01*
X60621501Y-83612415D01*
X60725719Y-83689774D01*
X60834960Y-83771175D01*
X60948789Y-83856301D01*
X61066774Y-83944834D01*
X61188481Y-84036456D01*
X61313476Y-84130848D01*
X61441326Y-84227692D01*
X61571598Y-84326671D01*
X61701792Y-84425514D01*
X61829411Y-84521954D01*
X61954029Y-84615685D01*
X62075218Y-84706399D01*
X62192550Y-84793790D01*
X62305598Y-84877549D01*
X62413934Y-84957369D01*
X62517131Y-85032943D01*
X62614761Y-85103964D01*
X62706397Y-85170125D01*
X62791611Y-85231118D01*
X62869976Y-85286635D01*
X62941064Y-85336371D01*
X63004448Y-85380017D01*
X63059700Y-85417266D01*
X63106392Y-85447810D01*
X63144098Y-85471344D01*
X63172389Y-85487558D01*
X63190838Y-85496146D01*
X63199018Y-85496801D01*
X63207299Y-85476762D01*
X63218941Y-85433395D01*
X63233493Y-85369069D01*
X63250502Y-85286150D01*
X63269518Y-85187006D01*
X63290090Y-85074005D01*
X63311765Y-84949514D01*
X63334092Y-84815901D01*
X63356620Y-84675534D01*
X63372049Y-84580683D01*
X63389281Y-84480643D01*
X63408088Y-84376493D01*
X63428243Y-84269308D01*
X63449517Y-84160167D01*
X63471681Y-84050147D01*
X63494509Y-83940324D01*
X63517771Y-83831777D01*
X63541239Y-83725581D01*
X63564686Y-83622815D01*
X63587882Y-83524556D01*
X63610600Y-83431880D01*
X63632611Y-83345866D01*
X63653688Y-83267589D01*
X63696151Y-83109398D01*
X63728995Y-82974150D01*
X63752416Y-82858684D01*
X63766611Y-82759836D01*
X63771777Y-82674446D01*
X63768111Y-82599349D01*
X63755809Y-82531384D01*
X63735069Y-82467388D01*
X63706088Y-82404199D01*
X63684335Y-82357057D01*
X63659596Y-82294465D01*
X63632460Y-82218380D01*
X63603518Y-82130756D01*
X63573358Y-82033552D01*
X63542570Y-81928723D01*
X63511745Y-81818226D01*
X63481473Y-81704016D01*
X63452342Y-81588051D01*
X63424942Y-81472287D01*
X63407649Y-81396739D01*
X63388814Y-81314394D01*
X63368619Y-81226059D01*
X63347250Y-81132539D01*
X63324889Y-81034641D01*
X63301720Y-80933172D01*
X63277927Y-80828938D01*
X63253693Y-80722746D01*
X63229202Y-80615402D01*
X63204638Y-80507712D01*
X63180185Y-80400484D01*
X63156025Y-80294523D01*
X63132344Y-80190636D01*
X63109324Y-80089630D01*
X63087149Y-79992311D01*
X63066002Y-79899485D01*
X63038631Y-79781668D01*
X63010928Y-79667273D01*
X62982813Y-79556198D01*
X62954204Y-79448337D01*
X62925020Y-79343587D01*
X62895181Y-79241844D01*
X62864605Y-79143004D01*
X62833211Y-79046963D01*
X62800919Y-78953618D01*
X62767647Y-78862865D01*
X62733314Y-78774599D01*
X62697840Y-78688717D01*
X62661143Y-78605115D01*
X62623142Y-78523689D01*
X62583756Y-78444335D01*
X62542905Y-78366949D01*
X62500507Y-78291428D01*
X62456481Y-78217667D01*
X62410746Y-78145563D01*
X62363221Y-78075012D01*
X62313826Y-78005909D01*
X62262478Y-77938152D01*
X62209098Y-77871636D01*
X62153603Y-77806257D01*
X62095914Y-77741911D01*
X62035949Y-77678495D01*
X61973627Y-77615905D01*
X61908867Y-77554036D01*
X61841588Y-77492785D01*
X61771708Y-77432048D01*
X61699148Y-77371722D01*
X61623826Y-77311701D01*
X61545661Y-77251883D01*
X61464571Y-77192164D01*
X61380477Y-77132439D01*
X61293296Y-77072604D01*
X61202949Y-77012557D01*
X61109353Y-76952193D01*
X61012428Y-76891408D01*
X60912092Y-76830098D01*
X60808266Y-76768159D01*
X60700867Y-76705488D01*
X60589815Y-76641980D01*
X60475029Y-76577532D01*
X59429450Y-75995490D01*
X58905853Y-76001335D01*
X58905455Y-76001335D01*
X58829939Y-75989270D01*
X58751929Y-75980478D01*
X58669265Y-75975405D01*
X58579790Y-75974500D01*
X58481344Y-75978208D01*
X58371767Y-75986978D01*
X58248902Y-76001255D01*
X58110588Y-76021488D01*
X58021874Y-76028957D01*
X57931769Y-76039827D01*
X57841540Y-76051756D01*
X57752455Y-76062401D01*
X57653422Y-76072453D01*
X57551053Y-76082730D01*
X57447255Y-76094531D01*
X57343937Y-76109157D01*
X57255539Y-76123605D01*
X57165537Y-76139073D01*
X57073687Y-76155641D01*
X56979742Y-76173388D01*
X56883459Y-76192394D01*
X56784593Y-76212738D01*
X56682898Y-76234498D01*
X56578129Y-76257756D01*
X56470043Y-76282588D01*
X56358393Y-76309076D01*
X56242935Y-76337298D01*
X56132149Y-76364264D01*
X56019831Y-76390632D01*
X55906434Y-76416326D01*
X55792407Y-76441269D01*
X55678205Y-76465384D01*
X55564278Y-76488594D01*
X55451078Y-76510822D01*
X55339059Y-76531992D01*
X55228670Y-76552026D01*
X55120365Y-76570848D01*
X55014596Y-76588381D01*
X54911813Y-76604548D01*
X54812471Y-76619272D01*
X54717019Y-76632476D01*
X54625911Y-76644083D01*
X54539597Y-76654017D01*
X54458531Y-76662200D01*
X54383164Y-76668557D01*
X54313948Y-76673008D01*
X54251335Y-76675479D01*
X53723508Y-76688378D01*
X53634541Y-76664348D01*
X53545390Y-76633745D01*
X53456183Y-76598067D01*
X53367047Y-76558811D01*
X53278108Y-76517473D01*
X53277909Y-76517473D01*
X53059049Y-76378818D01*
X52493119Y-76020280D01*
X52334320Y-75919962D01*
X52190949Y-75830122D01*
X52061592Y-75750184D01*
X52061006Y-75749830D01*
X51944839Y-75679573D01*
X51839275Y-75617713D01*
X51743489Y-75564029D01*
X51656067Y-75517947D01*
X51575598Y-75478889D01*
X51500669Y-75446282D01*
X51429866Y-75419550D01*
X51361779Y-75398117D01*
X51294994Y-75381408D01*
X51228098Y-75368849D01*
X51159679Y-75359863D01*
X51088325Y-75353875D01*
X51012622Y-75350311D01*
X50931159Y-75348594D01*
X50922509Y-75348551D01*
X50842523Y-75348150D01*
X50716629Y-75346036D01*
X50601364Y-75339272D01*
X50495944Y-75327225D01*
X50399589Y-75309260D01*
X50311516Y-75284745D01*
X50230944Y-75253045D01*
X50157090Y-75213526D01*
X50089173Y-75165556D01*
X50026416Y-75108492D01*
X49968038Y-75041708D01*
X49913242Y-74964597D01*
X49861234Y-74876551D01*
X49821093Y-74797820D01*
X49781819Y-74711364D01*
X49743027Y-74616852D01*
X49704328Y-74513952D01*
X49665338Y-74402332D01*
X49644701Y-74342786D01*
X49620071Y-74274275D01*
X49591803Y-74197690D01*
X49560249Y-74113919D01*
X49525763Y-74023853D01*
X49488698Y-73928380D01*
X49449409Y-73828391D01*
X49408248Y-73724775D01*
X49403635Y-73713281D01*
X50532192Y-73713281D01*
X50536668Y-73757567D01*
X50565127Y-73819422D01*
X50616965Y-73901668D01*
X50691582Y-74007123D01*
X50764139Y-74101656D01*
X50826521Y-74171243D01*
X50879165Y-74215815D01*
X50922509Y-74235303D01*
X50956991Y-74229641D01*
X50983048Y-74198759D01*
X51001119Y-74142590D01*
X51011640Y-74061066D01*
X51015050Y-73954119D01*
X51011212Y-73844404D01*
X50997236Y-73764567D01*
X50969432Y-73710181D01*
X50924110Y-73676816D01*
X50857580Y-73660045D01*
X50766150Y-73655439D01*
X50668676Y-73657644D01*
X50597593Y-73666140D01*
X50552299Y-73683745D01*
X50532192Y-73713281D01*
X49403635Y-73713281D01*
X49365568Y-73618421D01*
X49342521Y-73561542D01*
X51671045Y-73561542D01*
X51671976Y-73612987D01*
X51698816Y-73670772D01*
X51752031Y-73733038D01*
X51832085Y-73797927D01*
X51937035Y-73870927D01*
X52011614Y-73918065D01*
X52061006Y-73937610D01*
X52090397Y-73927830D01*
X52104971Y-73886992D01*
X52109914Y-73813366D01*
X52110409Y-73705219D01*
X52099865Y-73590379D01*
X52066186Y-73513258D01*
X52006300Y-73469894D01*
X51917135Y-73456320D01*
X51819070Y-73463825D01*
X51745057Y-73485103D01*
X51695560Y-73518294D01*
X51671045Y-73561542D01*
X49342521Y-73561542D01*
X49321724Y-73510218D01*
X49299022Y-73454723D01*
X52754762Y-73454723D01*
X52769452Y-73539630D01*
X52803073Y-73638893D01*
X52855697Y-73752177D01*
X52920013Y-73869280D01*
X52979805Y-73965144D01*
X53028381Y-74029900D01*
X53059049Y-74053678D01*
X53073929Y-74033292D01*
X53086872Y-73976590D01*
X53097090Y-73890257D01*
X53103798Y-73780979D01*
X53106209Y-73655439D01*
X53100983Y-73506342D01*
X53084792Y-73394119D01*
X53056864Y-73316620D01*
X53016429Y-73271697D01*
X52962714Y-73257200D01*
X52883847Y-73265324D01*
X52823545Y-73289471D01*
X52781882Y-73329310D01*
X52758930Y-73384505D01*
X52754762Y-73454723D01*
X49299022Y-73454723D01*
X49277069Y-73401058D01*
X49231956Y-73291828D01*
X49212137Y-73244313D01*
X53833178Y-73244313D01*
X53842922Y-73313475D01*
X53878369Y-73397538D01*
X53940174Y-73501062D01*
X54011339Y-73600570D01*
X54076564Y-73674409D01*
X54134344Y-73722681D01*
X54183177Y-73745488D01*
X54221556Y-73742932D01*
X54247979Y-73715114D01*
X54260941Y-73662136D01*
X54258938Y-73584101D01*
X54240465Y-73481109D01*
X54207290Y-73357846D01*
X54171138Y-73256565D01*
X54132183Y-73177433D01*
X54090599Y-73120618D01*
X54046557Y-73086287D01*
X54000233Y-73074606D01*
X54000232Y-73074608D01*
X53990961Y-73074808D01*
X53940577Y-73091348D01*
X53888177Y-73132448D01*
X53848482Y-73185490D01*
X53833178Y-73244313D01*
X49212137Y-73244313D01*
X49186738Y-73183419D01*
X49141770Y-73076720D01*
X49097404Y-72972621D01*
X49056048Y-72875883D01*
X54680827Y-72875883D01*
X54914208Y-73125387D01*
X55012111Y-73228849D01*
X55078934Y-73291965D01*
X55121917Y-73315660D01*
X55148301Y-73300857D01*
X55165328Y-73248478D01*
X55180238Y-73159447D01*
X55188535Y-73064175D01*
X55186897Y-72964183D01*
X55176085Y-72871333D01*
X55156859Y-72797485D01*
X55119974Y-72730403D01*
X55069795Y-72703165D01*
X55054075Y-72702567D01*
X55054075Y-72702560D01*
X54985280Y-72718753D01*
X54890628Y-72763425D01*
X54680827Y-72875883D01*
X49056048Y-72875883D01*
X49038010Y-72833689D01*
X48985223Y-72708942D01*
X48938738Y-72597029D01*
X48898252Y-72496597D01*
X48863459Y-72406293D01*
X48834057Y-72324764D01*
X48809740Y-72250659D01*
X48790203Y-72182624D01*
X48775144Y-72119308D01*
X48770504Y-72104394D01*
X48770504Y-72104195D01*
X48764960Y-72035034D01*
X48762448Y-71967753D01*
X48761856Y-71886020D01*
X48767140Y-71801198D01*
X48778584Y-71709479D01*
X48793212Y-71625731D01*
X49940495Y-71625731D01*
X49940704Y-71737649D01*
X49944285Y-71848157D01*
X49951313Y-71956361D01*
X49961865Y-72061367D01*
X49976018Y-72162282D01*
X49993847Y-72258213D01*
X50015428Y-72348265D01*
X50133126Y-72783586D01*
X50549303Y-72722722D01*
X50600930Y-72715237D01*
X50663650Y-72706257D01*
X50736523Y-72695911D01*
X50818607Y-72684330D01*
X50908963Y-72671645D01*
X51006651Y-72657985D01*
X51110730Y-72643481D01*
X51220261Y-72628264D01*
X51334303Y-72612463D01*
X51451916Y-72596210D01*
X51572159Y-72579635D01*
X51694093Y-72562868D01*
X51816778Y-72546039D01*
X51939272Y-72529280D01*
X52060636Y-72512719D01*
X52178837Y-72496269D01*
X52295126Y-72479382D01*
X52386211Y-72465582D01*
X55724745Y-72465582D01*
X55726600Y-72508118D01*
X55767059Y-72570295D01*
X55846523Y-72661856D01*
X55930760Y-72747446D01*
X56004252Y-72807346D01*
X56065538Y-72841690D01*
X56113158Y-72850615D01*
X56145649Y-72834257D01*
X56161551Y-72792753D01*
X56159404Y-72726239D01*
X56137745Y-72634851D01*
X56097209Y-72509231D01*
X56062137Y-72425531D01*
X56025488Y-72378292D01*
X55973492Y-72361766D01*
X55914568Y-72372459D01*
X55835237Y-72400462D01*
X55761091Y-72432945D01*
X55724745Y-72465582D01*
X52386211Y-72465582D01*
X52409563Y-72462044D01*
X52522206Y-72444238D01*
X52633116Y-72425947D01*
X52742349Y-72407155D01*
X52849967Y-72387846D01*
X52956026Y-72368003D01*
X53060587Y-72347610D01*
X53163709Y-72326651D01*
X53265450Y-72305109D01*
X53365869Y-72282968D01*
X53465025Y-72260211D01*
X53562977Y-72236823D01*
X53659784Y-72212786D01*
X53755506Y-72188085D01*
X53850200Y-72162703D01*
X53943927Y-72136623D01*
X54036744Y-72109830D01*
X54128711Y-72082307D01*
X54219886Y-72054038D01*
X54310330Y-72025005D01*
X54400100Y-71995194D01*
X54489255Y-71964587D01*
X54577856Y-71933168D01*
X54665959Y-71900921D01*
X54753625Y-71867830D01*
X54840913Y-71833877D01*
X54852711Y-71829152D01*
X56817009Y-71829152D01*
X56820924Y-71868403D01*
X56853179Y-71918151D01*
X56913230Y-71980221D01*
X57000530Y-72056436D01*
X57099635Y-72135672D01*
X57181900Y-72193616D01*
X57248319Y-72230082D01*
X57299886Y-72244886D01*
X57337595Y-72237843D01*
X57362441Y-72208769D01*
X57375419Y-72157478D01*
X57377523Y-72083787D01*
X57369747Y-71987510D01*
X57349069Y-71868427D01*
X57314992Y-71790990D01*
X57260427Y-71748832D01*
X57178286Y-71735587D01*
X57095656Y-71740626D01*
X56980757Y-71756134D01*
X56896380Y-71774842D01*
X56841979Y-71798573D01*
X56817009Y-71829152D01*
X54852711Y-71829152D01*
X54927880Y-71799048D01*
X55014587Y-71763324D01*
X55101093Y-71726691D01*
X55187455Y-71689131D01*
X55273733Y-71650629D01*
X55359987Y-71611167D01*
X55446274Y-71570730D01*
X55501470Y-71544203D01*
X55559224Y-71515759D01*
X55619458Y-71485446D01*
X55682097Y-71453313D01*
X55747064Y-71419409D01*
X55814282Y-71383783D01*
X55883674Y-71346484D01*
X55955164Y-71307562D01*
X56028676Y-71267064D01*
X56104131Y-71225039D01*
X56181455Y-71181538D01*
X56260569Y-71136608D01*
X56341398Y-71090298D01*
X56423865Y-71042658D01*
X56507893Y-70993737D01*
X56593406Y-70943583D01*
X56680326Y-70892245D01*
X56768578Y-70839772D01*
X56858084Y-70786213D01*
X56948768Y-70731618D01*
X57040553Y-70676034D01*
X57133363Y-70619512D01*
X57227120Y-70562099D01*
X57321749Y-70503845D01*
X57417172Y-70444798D01*
X57513313Y-70385008D01*
X57610095Y-70324524D01*
X57707442Y-70263394D01*
X57805277Y-70201668D01*
X57903523Y-70139394D01*
X58002103Y-70076621D01*
X58100942Y-70013398D01*
X58199961Y-69949774D01*
X58299085Y-69885799D01*
X58398238Y-69821520D01*
X58497341Y-69756987D01*
X58596319Y-69692249D01*
X58695095Y-69627355D01*
X58793592Y-69562354D01*
X58891734Y-69497294D01*
X58989444Y-69432224D01*
X59086645Y-69367194D01*
X59183260Y-69302253D01*
X59279214Y-69237448D01*
X59374429Y-69172830D01*
X59468829Y-69108447D01*
X59562336Y-69044348D01*
X59654875Y-68980583D01*
X59746368Y-68917199D01*
X59836740Y-68854246D01*
X59925913Y-68791772D01*
X60013810Y-68729828D01*
X60100356Y-68668461D01*
X60185473Y-68607721D01*
X60269084Y-68547656D01*
X60351114Y-68488316D01*
X60431485Y-68429749D01*
X60510120Y-68372004D01*
X60586944Y-68315130D01*
X60661879Y-68259177D01*
X60734849Y-68204193D01*
X60805777Y-68150226D01*
X60914673Y-68067458D01*
X61021173Y-67987541D01*
X61125276Y-67910475D01*
X61226978Y-67836263D01*
X61326277Y-67764907D01*
X61423170Y-67696408D01*
X61517653Y-67630768D01*
X61609726Y-67567988D01*
X61699384Y-67508071D01*
X61786625Y-67451017D01*
X61871446Y-67396829D01*
X61953845Y-67345509D01*
X62033819Y-67297057D01*
X62111365Y-67251476D01*
X62186481Y-67208767D01*
X62259163Y-67168933D01*
X62329410Y-67131974D01*
X62397217Y-67097892D01*
X62462583Y-67066690D01*
X62525505Y-67038368D01*
X62585981Y-67012929D01*
X62644006Y-66990374D01*
X62787940Y-66938238D01*
X62922126Y-66892247D01*
X63042519Y-66853590D01*
X63145074Y-66823457D01*
X63225744Y-66803036D01*
X63280486Y-66793518D01*
X63305253Y-66796091D01*
X63303180Y-66807886D01*
X63288391Y-66832966D01*
X63261651Y-66870439D01*
X63223724Y-66919410D01*
X63175376Y-66978987D01*
X63117369Y-67048276D01*
X63050470Y-67126385D01*
X62975443Y-67212419D01*
X62893052Y-67305487D01*
X62804063Y-67404694D01*
X62709239Y-67509148D01*
X62609345Y-67617954D01*
X62505146Y-67730221D01*
X62379139Y-67865983D01*
X62262130Y-67993691D01*
X62153877Y-68113812D01*
X62054134Y-68226812D01*
X61962657Y-68333160D01*
X61879202Y-68433324D01*
X61803524Y-68527769D01*
X61735380Y-68616965D01*
X61674524Y-68701378D01*
X61620713Y-68781476D01*
X61573703Y-68857727D01*
X61533249Y-68930597D01*
X61499106Y-69000555D01*
X61471031Y-69068067D01*
X61448780Y-69133601D01*
X61432107Y-69197626D01*
X61420768Y-69260607D01*
X61414520Y-69323013D01*
X61413118Y-69385311D01*
X61416318Y-69447968D01*
X61423875Y-69511452D01*
X61435546Y-69576231D01*
X61451085Y-69642772D01*
X61470248Y-69711542D01*
X61513473Y-69849584D01*
X61558307Y-69979925D01*
X61604161Y-70101478D01*
X61650441Y-70213156D01*
X61696555Y-70313873D01*
X61741913Y-70402541D01*
X61785922Y-70478075D01*
X61827991Y-70539386D01*
X61867527Y-70585389D01*
X61903940Y-70614997D01*
X61936636Y-70627123D01*
X61965024Y-70620680D01*
X62006188Y-70590105D01*
X62048241Y-70549078D01*
X62090896Y-70498327D01*
X62133867Y-70438579D01*
X62176868Y-70370561D01*
X62219611Y-70295001D01*
X62261810Y-70212625D01*
X62303179Y-70124161D01*
X62343430Y-70030335D01*
X62382277Y-69931876D01*
X62419434Y-69829509D01*
X62454614Y-69723963D01*
X62487530Y-69615964D01*
X62517895Y-69506240D01*
X62545424Y-69395517D01*
X62569829Y-69284523D01*
X62590823Y-69173985D01*
X62608120Y-69064630D01*
X62621434Y-68957185D01*
X62689352Y-68315488D01*
X62702855Y-68241724D01*
X62843931Y-68676643D01*
X62860690Y-68733757D01*
X62876853Y-68799741D01*
X62892353Y-68873949D01*
X62907121Y-68955732D01*
X62921089Y-69044445D01*
X62934188Y-69139438D01*
X62946351Y-69240066D01*
X62957509Y-69345681D01*
X62967594Y-69455635D01*
X62976537Y-69569282D01*
X62984270Y-69685973D01*
X62990724Y-69805062D01*
X62995833Y-69925901D01*
X62999526Y-70047844D01*
X63001736Y-70170242D01*
X63003152Y-70327482D01*
X63003410Y-70470997D01*
X63002358Y-70601930D01*
X62999843Y-70721425D01*
X62995711Y-70830624D01*
X62989809Y-70930672D01*
X62981985Y-71022711D01*
X62972086Y-71107886D01*
X62959957Y-71187339D01*
X62945447Y-71262214D01*
X62928402Y-71333655D01*
X62908669Y-71402805D01*
X62886094Y-71470806D01*
X62860526Y-71538804D01*
X62831811Y-71607940D01*
X62799795Y-71679359D01*
X62758761Y-71763996D01*
X62714481Y-71847477D01*
X62667049Y-71929738D01*
X62616561Y-72010711D01*
X62563112Y-72090332D01*
X62506796Y-72168534D01*
X62447709Y-72245251D01*
X62385946Y-72320417D01*
X62321602Y-72393967D01*
X62254773Y-72465833D01*
X62185553Y-72535952D01*
X62114037Y-72604255D01*
X62040320Y-72670679D01*
X61964499Y-72735155D01*
X61886667Y-72797620D01*
X61806920Y-72858006D01*
X61725352Y-72916247D01*
X61642060Y-72972279D01*
X61557138Y-73026034D01*
X61470681Y-73077447D01*
X61382784Y-73126451D01*
X61293543Y-73172982D01*
X61203053Y-73216973D01*
X61111408Y-73258357D01*
X61018703Y-73297070D01*
X60925035Y-73333044D01*
X60830497Y-73366215D01*
X60735186Y-73396516D01*
X60639196Y-73423882D01*
X60542622Y-73448245D01*
X60445559Y-73469541D01*
X60348103Y-73487703D01*
X60250348Y-73502666D01*
X60152390Y-73514363D01*
X59490540Y-73582282D01*
X59972417Y-73082266D01*
X60054234Y-72993523D01*
X60132311Y-72901312D01*
X60206087Y-72806773D01*
X60275001Y-72711049D01*
X60338490Y-72615281D01*
X60395992Y-72520610D01*
X60446947Y-72428177D01*
X60490791Y-72339126D01*
X60526964Y-72254595D01*
X60554904Y-72175728D01*
X60574048Y-72103666D01*
X60583835Y-72039549D01*
X60583703Y-71984521D01*
X60573091Y-71939721D01*
X60551436Y-71906291D01*
X60530086Y-71907885D01*
X60487846Y-71930948D01*
X60427684Y-71973152D01*
X60352567Y-72032167D01*
X60265459Y-72105665D01*
X60169328Y-72191318D01*
X60067140Y-72286796D01*
X60019886Y-72331175D01*
X59971488Y-72375069D01*
X59921909Y-72418492D01*
X59871109Y-72461461D01*
X59819051Y-72503992D01*
X59765697Y-72546100D01*
X59711007Y-72587803D01*
X59654944Y-72629116D01*
X59597469Y-72670055D01*
X59538544Y-72710636D01*
X59478131Y-72750875D01*
X59416192Y-72790788D01*
X59352687Y-72830391D01*
X59287580Y-72869700D01*
X59220831Y-72908732D01*
X59152402Y-72947502D01*
X59082256Y-72986026D01*
X59010353Y-73024321D01*
X58936655Y-73062402D01*
X58861124Y-73100285D01*
X58783722Y-73137987D01*
X58704411Y-73175524D01*
X58623152Y-73212911D01*
X58539906Y-73250164D01*
X58454636Y-73287300D01*
X58367304Y-73324335D01*
X58277870Y-73361284D01*
X58186297Y-73398164D01*
X58092546Y-73434991D01*
X57996580Y-73471781D01*
X57898359Y-73508549D01*
X57797845Y-73545313D01*
X57695001Y-73582087D01*
X57589787Y-73618888D01*
X57482166Y-73655732D01*
X57372100Y-73692635D01*
X57299886Y-73716361D01*
X57259549Y-73729613D01*
X57144476Y-73766682D01*
X57026842Y-73803858D01*
X56906609Y-73841158D01*
X56783739Y-73878596D01*
X56658194Y-73916190D01*
X56529934Y-73953955D01*
X56398922Y-73991907D01*
X56265120Y-74030063D01*
X56128489Y-74068438D01*
X56113158Y-74072681D01*
X55988991Y-74107048D01*
X55846588Y-74145910D01*
X55701241Y-74185039D01*
X55552912Y-74224451D01*
X55401563Y-74264164D01*
X55247155Y-74304191D01*
X55121917Y-74336830D01*
X55066833Y-74351185D01*
X54895999Y-74396789D01*
X54734498Y-74441066D01*
X54582177Y-74484077D01*
X54438881Y-74525884D01*
X54304457Y-74566547D01*
X54183177Y-74604736D01*
X54178752Y-74606129D01*
X54061611Y-74644692D01*
X53952881Y-74682296D01*
X53852408Y-74719004D01*
X53760038Y-74754876D01*
X53675617Y-74789975D01*
X53598992Y-74824362D01*
X53530009Y-74858098D01*
X53468514Y-74891246D01*
X53414353Y-74923865D01*
X53367373Y-74956020D01*
X53327420Y-74987769D01*
X53294339Y-75019176D01*
X53267978Y-75050302D01*
X53248182Y-75081208D01*
X53234798Y-75111956D01*
X53235531Y-75145427D01*
X53256844Y-75183609D01*
X53296635Y-75225458D01*
X53352804Y-75269931D01*
X53423251Y-75315983D01*
X53505875Y-75362571D01*
X53598575Y-75408651D01*
X53699250Y-75453178D01*
X53805800Y-75495110D01*
X53916124Y-75533403D01*
X54028122Y-75567011D01*
X54139693Y-75594893D01*
X54248735Y-75616003D01*
X54305249Y-75616725D01*
X54368248Y-75614191D01*
X54509526Y-75655103D01*
X54778176Y-75571263D01*
X54867102Y-75554500D01*
X54959874Y-75535382D01*
X55056152Y-75514022D01*
X55155600Y-75490534D01*
X55257877Y-75465029D01*
X55362645Y-75437620D01*
X55469565Y-75408420D01*
X55578299Y-75377543D01*
X55688507Y-75345099D01*
X55799852Y-75311203D01*
X55911993Y-75275967D01*
X56024593Y-75239503D01*
X56137313Y-75201925D01*
X56249814Y-75163345D01*
X56361757Y-75123875D01*
X56472803Y-75083629D01*
X56582614Y-75042719D01*
X56690851Y-75001258D01*
X56797175Y-74959358D01*
X56901247Y-74917133D01*
X57002730Y-74874695D01*
X57101283Y-74832156D01*
X57196568Y-74789630D01*
X57288247Y-74747229D01*
X57375980Y-74705066D01*
X57459429Y-74663253D01*
X57538256Y-74621904D01*
X57612120Y-74581130D01*
X57680685Y-74541045D01*
X57743610Y-74501762D01*
X57800558Y-74463392D01*
X57851188Y-74426050D01*
X57895164Y-74389847D01*
X57951245Y-74346128D01*
X58006928Y-74317387D01*
X58068158Y-74303773D01*
X58140883Y-74305434D01*
X58231048Y-74322518D01*
X58344599Y-74355174D01*
X58487485Y-74403552D01*
X58524388Y-74415891D01*
X58569728Y-74429878D01*
X58623088Y-74445413D01*
X58684050Y-74462398D01*
X58752196Y-74480735D01*
X58827108Y-74500325D01*
X58908371Y-74521068D01*
X58995564Y-74542866D01*
X59088272Y-74565621D01*
X59186076Y-74589234D01*
X59288559Y-74613606D01*
X59395303Y-74638638D01*
X59505891Y-74664232D01*
X59619905Y-74690289D01*
X59736928Y-74716710D01*
X59856541Y-74743397D01*
X59978328Y-74770251D01*
X60101871Y-74797172D01*
X60226751Y-74824064D01*
X60352553Y-74850826D01*
X60478857Y-74877360D01*
X60605246Y-74903567D01*
X60758239Y-74935200D01*
X60908078Y-74966418D01*
X61054131Y-74997081D01*
X61195766Y-75027047D01*
X61332351Y-75056176D01*
X61463253Y-75084327D01*
X61587840Y-75111358D01*
X61705479Y-75137130D01*
X61815538Y-75161501D01*
X61917386Y-75184330D01*
X62010389Y-75205476D01*
X62093914Y-75224799D01*
X62167331Y-75242158D01*
X62230006Y-75257411D01*
X62281307Y-75270417D01*
X62320602Y-75281037D01*
X62347258Y-75289129D01*
X62360644Y-75294551D01*
X62388309Y-75304875D01*
X62428156Y-75309740D01*
X62479267Y-75309424D01*
X62540725Y-75304204D01*
X62611614Y-75294355D01*
X62691016Y-75280157D01*
X62778016Y-75261884D01*
X62871696Y-75239815D01*
X62971138Y-75214227D01*
X63075428Y-75185396D01*
X63183646Y-75153599D01*
X63294878Y-75119113D01*
X63408205Y-75082216D01*
X63522711Y-75043184D01*
X63637480Y-75002295D01*
X63751594Y-74959824D01*
X63864136Y-74916050D01*
X63974191Y-74871249D01*
X64080840Y-74825699D01*
X64183167Y-74779675D01*
X64280255Y-74733456D01*
X64371187Y-74687318D01*
X64435999Y-74652243D01*
X64505334Y-74612817D01*
X64578675Y-74569400D01*
X64655504Y-74522353D01*
X64735304Y-74472037D01*
X64817558Y-74418814D01*
X64901749Y-74363043D01*
X64987360Y-74305086D01*
X65073873Y-74245303D01*
X65160771Y-74184056D01*
X65247537Y-74121706D01*
X65333653Y-74058613D01*
X65418603Y-73995137D01*
X65501869Y-73931641D01*
X65582934Y-73868485D01*
X65661281Y-73806030D01*
X65736392Y-73744636D01*
X65807750Y-73684665D01*
X65927195Y-73584067D01*
X66041966Y-73489951D01*
X66150560Y-73403392D01*
X66251478Y-73325467D01*
X66343216Y-73257249D01*
X66424275Y-73199813D01*
X66493153Y-73154235D01*
X66548348Y-73121590D01*
X66588360Y-73102953D01*
X66611686Y-73099399D01*
X66629624Y-73180820D01*
X66625397Y-73250923D01*
X66614105Y-73324718D01*
X66594248Y-73384417D01*
X66569584Y-73449295D01*
X66540313Y-73518971D01*
X66506636Y-73593059D01*
X66468755Y-73671177D01*
X66426870Y-73752940D01*
X66381183Y-73837965D01*
X66331895Y-73925868D01*
X66279208Y-74016265D01*
X66223321Y-74108774D01*
X66164437Y-74203009D01*
X66102757Y-74298587D01*
X66038482Y-74395125D01*
X65971812Y-74492239D01*
X65902949Y-74589545D01*
X65832095Y-74686659D01*
X65759450Y-74783198D01*
X65685216Y-74878779D01*
X65597360Y-74990485D01*
X65515358Y-75095522D01*
X65439278Y-75193727D01*
X65369187Y-75284935D01*
X65305153Y-75368981D01*
X65247242Y-75445703D01*
X65195522Y-75514936D01*
X65150061Y-75576517D01*
X65110925Y-75630280D01*
X65078183Y-75676063D01*
X65002100Y-75755455D01*
X64927634Y-75828166D01*
X64855133Y-75893903D01*
X64784946Y-75952372D01*
X64714230Y-75993616D01*
X64635895Y-76036989D01*
X64550840Y-76081873D01*
X64459968Y-76127650D01*
X64364178Y-76173702D01*
X64264372Y-76219410D01*
X63623279Y-76505594D01*
X64248047Y-76885090D01*
X64346136Y-76946689D01*
X64441434Y-77010565D01*
X64533788Y-77076542D01*
X64623047Y-77144442D01*
X64709060Y-77214090D01*
X64791674Y-77285309D01*
X64870738Y-77357922D01*
X64946100Y-77431753D01*
X65017608Y-77506625D01*
X65085110Y-77582362D01*
X65148456Y-77658787D01*
X65207492Y-77735724D01*
X65262068Y-77812997D01*
X65312031Y-77890428D01*
X65357230Y-77967840D01*
X65397514Y-78045059D01*
X65432729Y-78121907D01*
X65462725Y-78198207D01*
X65487350Y-78273783D01*
X65506452Y-78348459D01*
X65528765Y-78468249D01*
X65540798Y-78572591D01*
X65541754Y-78650268D01*
X65530837Y-78690065D01*
X65500558Y-78690438D01*
X65441335Y-78666485D01*
X65359503Y-78621689D01*
X65261399Y-78559530D01*
X65153357Y-78483488D01*
X65084093Y-78435761D01*
X65002785Y-78385463D01*
X64911417Y-78333411D01*
X64811971Y-78280425D01*
X64706433Y-78227321D01*
X64596786Y-78174918D01*
X64485013Y-78124034D01*
X64373097Y-78075487D01*
X64263023Y-78030094D01*
X64156774Y-77988673D01*
X64056335Y-77952044D01*
X63963687Y-77921023D01*
X63880816Y-77896428D01*
X63809704Y-77879077D01*
X63752336Y-77869790D01*
X63710694Y-77869382D01*
X63686764Y-77878672D01*
X63681743Y-77910652D01*
X63696720Y-77970658D01*
X63729182Y-78052362D01*
X63776615Y-78149435D01*
X63836507Y-78255549D01*
X63873012Y-78321723D01*
X63909485Y-78398170D01*
X63945164Y-78482648D01*
X63979287Y-78572917D01*
X64011093Y-78666735D01*
X64039820Y-78761861D01*
X64064708Y-78856055D01*
X64084994Y-78947075D01*
X64099917Y-79032680D01*
X64115292Y-79129655D01*
X64133968Y-79233585D01*
X64155228Y-79341234D01*
X64178357Y-79449363D01*
X64202640Y-79554733D01*
X64227361Y-79654105D01*
X64251805Y-79744241D01*
X64275256Y-79821903D01*
X64325182Y-79964970D01*
X64366727Y-80050137D01*
X64405740Y-80082273D01*
X64448071Y-80066243D01*
X64499567Y-80006916D01*
X64530407Y-79974118D01*
X64579679Y-79933757D01*
X64645203Y-79887147D01*
X64724799Y-79835601D01*
X64816287Y-79780434D01*
X64917487Y-79722959D01*
X65026218Y-79664490D01*
X65140299Y-79606341D01*
X65257552Y-79549826D01*
X65348677Y-79506582D01*
X65444005Y-79460202D01*
X65542221Y-79411385D01*
X65642008Y-79360827D01*
X65742052Y-79309223D01*
X65841035Y-79257272D01*
X65937643Y-79205669D01*
X66030560Y-79155110D01*
X66118471Y-79106293D01*
X66200059Y-79059914D01*
X66274009Y-79016670D01*
X66339006Y-78977257D01*
X66775738Y-78706189D01*
X66488345Y-79238451D01*
X66455549Y-79296305D01*
X66416802Y-79359677D01*
X66372598Y-79427933D01*
X66323431Y-79500442D01*
X66269795Y-79576571D01*
X66212182Y-79655688D01*
X66151087Y-79737160D01*
X66087004Y-79820356D01*
X66020426Y-79904642D01*
X65951847Y-79989386D01*
X65881761Y-80073957D01*
X65810661Y-80157720D01*
X65739042Y-80240046D01*
X65667396Y-80320300D01*
X65596218Y-80397851D01*
X65526001Y-80472065D01*
X64851251Y-81173417D01*
X65018327Y-81546868D01*
X65072935Y-81664572D01*
X65124245Y-81767045D01*
X65168808Y-81848012D01*
X65203174Y-81901195D01*
X65223895Y-81920318D01*
X65252100Y-81914484D01*
X65297618Y-81897741D01*
X65358381Y-81871226D01*
X65432321Y-81836077D01*
X65517372Y-81793431D01*
X65611467Y-81744425D01*
X65712539Y-81690197D01*
X65818520Y-81631884D01*
X65927343Y-81570623D01*
X66036942Y-81507553D01*
X66145249Y-81443810D01*
X66250197Y-81380531D01*
X66349720Y-81318855D01*
X66441750Y-81259918D01*
X66524219Y-81204858D01*
X66636386Y-81130554D01*
X66737391Y-81068504D01*
X66823116Y-81020846D01*
X66889446Y-80989715D01*
X66932262Y-80977249D01*
X66947449Y-80985584D01*
X66943835Y-81012947D01*
X66933228Y-81049017D01*
X66915985Y-81093271D01*
X66892459Y-81145188D01*
X66863007Y-81204246D01*
X66827982Y-81269922D01*
X66787739Y-81341695D01*
X66742635Y-81419043D01*
X66693023Y-81501443D01*
X66639259Y-81588375D01*
X66581697Y-81679315D01*
X66520693Y-81773741D01*
X66456601Y-81871133D01*
X66389777Y-81970967D01*
X66320575Y-82072722D01*
X66249351Y-82175876D01*
X66176459Y-82279907D01*
X66102254Y-82384293D01*
X66027092Y-82488511D01*
X65951327Y-82592040D01*
X65875314Y-82694358D01*
X65799408Y-82794943D01*
X65723964Y-82893273D01*
X65649337Y-82988825D01*
X65575882Y-83081079D01*
X65503955Y-83169511D01*
X65433909Y-83253600D01*
X65366100Y-83332824D01*
X65300883Y-83406662D01*
X65235644Y-83485844D01*
X65171894Y-83575504D01*
X65110818Y-83672666D01*
X65053599Y-83774354D01*
X65001422Y-83877593D01*
X64955472Y-83979409D01*
X64916932Y-84076826D01*
X64886988Y-84166868D01*
X64866822Y-84246562D01*
X64857621Y-84312931D01*
X64860567Y-84363000D01*
X64876846Y-84393795D01*
X64873620Y-84405483D01*
X64884302Y-84399638D01*
X64897200Y-84409715D01*
X64915621Y-84405753D01*
X64946654Y-84394186D01*
X64989454Y-84375491D01*
X65043179Y-84350145D01*
X65106985Y-84318627D01*
X65180029Y-84281414D01*
X65261468Y-84238983D01*
X65350459Y-84191813D01*
X65446159Y-84140380D01*
X65547724Y-84085163D01*
X65654311Y-84026639D01*
X65765078Y-83965286D01*
X65879180Y-83901581D01*
X65995775Y-83836001D01*
X66114019Y-83769025D01*
X66233069Y-83701131D01*
X66352083Y-83632795D01*
X66470216Y-83564495D01*
X66586626Y-83496709D01*
X66700469Y-83429915D01*
X66810903Y-83364590D01*
X66917084Y-83301211D01*
X67018168Y-83240257D01*
X67113314Y-83182205D01*
X67201676Y-83127533D01*
X67282413Y-83076718D01*
X67354682Y-83030237D01*
X67417638Y-82988569D01*
X67470438Y-82952191D01*
X67579771Y-82875656D01*
X67682573Y-82805281D01*
X67775679Y-82743114D01*
X67855920Y-82691199D01*
X67920130Y-82651584D01*
X67965141Y-82626315D01*
X67987787Y-82617437D01*
X67996257Y-82622664D01*
X67997632Y-82637994D01*
X67992243Y-82662897D01*
X67980421Y-82696845D01*
X67962500Y-82739309D01*
X67938810Y-82789759D01*
X67909684Y-82847668D01*
X67875453Y-82912505D01*
X67836448Y-82983742D01*
X67793003Y-83060850D01*
X67745448Y-83143301D01*
X67694116Y-83230565D01*
X67639337Y-83322113D01*
X67581445Y-83417417D01*
X67520771Y-83515948D01*
X67457646Y-83617176D01*
X67392403Y-83720573D01*
X67325373Y-83825610D01*
X67256888Y-83931758D01*
X67187280Y-84038488D01*
X67116881Y-84145272D01*
X67046022Y-84251579D01*
X66975035Y-84356882D01*
X66904252Y-84460652D01*
X66834006Y-84562359D01*
X66764627Y-84661475D01*
X66696447Y-84757471D01*
X66629799Y-84849817D01*
X66565014Y-84937986D01*
X66502424Y-85021447D01*
X66442361Y-85099673D01*
X66385156Y-85172134D01*
X66053423Y-85585891D01*
X66357545Y-85911577D01*
X66662069Y-86237262D01*
X66979088Y-86054669D01*
X67024837Y-86027664D01*
X67080904Y-85993461D01*
X67146240Y-85952746D01*
X67219794Y-85906205D01*
X67300516Y-85854522D01*
X67387355Y-85798383D01*
X67479260Y-85738473D01*
X67575182Y-85675477D01*
X67674071Y-85610081D01*
X67774875Y-85542970D01*
X67876544Y-85474830D01*
X67978028Y-85406345D01*
X68078277Y-85338201D01*
X68860446Y-84804528D01*
X68585952Y-85279352D01*
X68548136Y-85344154D01*
X68506949Y-85413649D01*
X68462646Y-85487441D01*
X68415484Y-85565133D01*
X68365718Y-85646331D01*
X68313603Y-85730639D01*
X68259395Y-85817660D01*
X68203351Y-85907000D01*
X68145725Y-85998263D01*
X68086774Y-86091053D01*
X68026753Y-86184975D01*
X67965917Y-86279632D01*
X67904524Y-86374629D01*
X67842827Y-86469571D01*
X67781083Y-86564062D01*
X67719548Y-86657706D01*
X67658477Y-86750107D01*
X67598126Y-86840871D01*
X67538750Y-86929601D01*
X67480606Y-87015901D01*
X67423949Y-87099376D01*
X67369035Y-87179631D01*
X67316120Y-87256269D01*
X67265458Y-87328896D01*
X67217306Y-87397114D01*
X67162074Y-87481416D01*
X67109511Y-87574059D01*
X67060383Y-87672420D01*
X67015459Y-87773873D01*
X66975503Y-87875792D01*
X66941282Y-87975553D01*
X66913562Y-88070530D01*
X66893110Y-88158098D01*
X66880692Y-88235631D01*
X66877075Y-88300504D01*
X66883024Y-88350093D01*
X66899306Y-88381771D01*
X66926688Y-88392914D01*
X66996420Y-88360467D01*
X66997217Y-88367517D01*
X67047400Y-88337085D01*
X67107612Y-88308423D01*
X67178474Y-88272985D01*
X67259502Y-88230890D01*
X67350213Y-88182255D01*
X67450121Y-88127200D01*
X67558743Y-88065842D01*
X67675594Y-87998300D01*
X68254411Y-87660119D01*
X68315880Y-87637143D01*
X68292502Y-87713526D01*
X67998256Y-88267755D01*
X67941726Y-88376334D01*
X67892490Y-88475362D01*
X67850263Y-88565300D01*
X67814759Y-88646607D01*
X67785692Y-88719744D01*
X67762778Y-88785171D01*
X67745729Y-88843348D01*
X67686276Y-88955202D01*
X67736660Y-88994099D01*
X67749357Y-89035616D01*
X67764333Y-89049677D01*
X67786704Y-89069286D01*
X67816191Y-89094230D01*
X67852515Y-89124296D01*
X67895397Y-89159271D01*
X67944559Y-89198943D01*
X67999723Y-89243099D01*
X68060608Y-89291527D01*
X68126937Y-89344013D01*
X68198432Y-89400345D01*
X68274812Y-89460310D01*
X68355800Y-89523696D01*
X68441116Y-89590289D01*
X68530483Y-89659878D01*
X68623621Y-89732249D01*
X68720252Y-89807190D01*
X68820097Y-89884488D01*
X68922877Y-89963930D01*
X69028314Y-90045304D01*
X69136128Y-90128397D01*
X69246042Y-90212996D01*
X69357776Y-90298889D01*
X69471051Y-90385862D01*
X69585590Y-90473704D01*
X69701113Y-90562201D01*
X69817342Y-90651141D01*
X69933997Y-90740310D01*
X70050801Y-90829498D01*
X70167474Y-90918489D01*
X70283738Y-91007073D01*
X70399314Y-91095036D01*
X70513923Y-91182166D01*
X70627287Y-91268249D01*
X70739127Y-91353074D01*
X70849164Y-91436427D01*
X70957119Y-91518096D01*
X71062715Y-91597868D01*
X71165671Y-91675530D01*
X71265710Y-91750870D01*
X71362552Y-91823675D01*
X71455920Y-91893733D01*
X71545533Y-91960829D01*
X71631115Y-92024753D01*
X71712385Y-92085291D01*
X71789065Y-92142230D01*
X71860876Y-92195358D01*
X71927541Y-92244462D01*
X71988779Y-92289330D01*
X72044312Y-92329748D01*
X72093863Y-92365504D01*
X72137151Y-92396386D01*
X72173898Y-92422180D01*
X72203825Y-92442674D01*
X72226655Y-92457655D01*
X72242107Y-92466910D01*
X72249904Y-92470228D01*
X72271193Y-92426146D01*
X72290010Y-92311818D01*
X72302054Y-92247060D01*
X72309230Y-92157685D01*
X72312439Y-92047832D01*
X72312582Y-91921641D01*
X72316363Y-91837938D01*
X72320310Y-91755875D01*
X72323416Y-91670034D01*
X72324674Y-91574996D01*
X72324070Y-91475224D01*
X72322258Y-91375313D01*
X72319242Y-91275281D01*
X72315026Y-91175147D01*
X72309614Y-91074929D01*
X72303008Y-90974643D01*
X72295211Y-90874309D01*
X72286228Y-90773944D01*
X72276062Y-90673566D01*
X72264716Y-90573193D01*
X72252193Y-90472844D01*
X72238498Y-90372535D01*
X72223632Y-90272285D01*
X72207601Y-90172112D01*
X72190406Y-90072033D01*
X72172052Y-89972068D01*
X72152543Y-89872233D01*
X72131880Y-89772546D01*
X72110068Y-89673026D01*
X72087111Y-89573691D01*
X72063011Y-89474558D01*
X72037772Y-89375645D01*
X72011397Y-89276971D01*
X71983890Y-89178553D01*
X71955255Y-89080409D01*
X71925494Y-88982557D01*
X71894611Y-88885015D01*
X71862610Y-88787801D01*
X71829493Y-88690933D01*
X71795265Y-88594429D01*
X71759928Y-88498307D01*
X71723486Y-88402585D01*
X71667739Y-88256351D01*
X71618817Y-88123465D01*
X71577573Y-88006585D01*
X71544857Y-87908366D01*
X71521522Y-87831466D01*
X71508417Y-87778541D01*
X71506394Y-87752248D01*
X71516305Y-87755245D01*
X71550939Y-87796231D01*
X71589350Y-87844044D01*
X71631291Y-87898292D01*
X71676515Y-87958582D01*
X71724774Y-88024524D01*
X71775820Y-88095725D01*
X71829407Y-88171793D01*
X71885287Y-88252336D01*
X71943213Y-88336962D01*
X72002937Y-88425280D01*
X72064212Y-88516898D01*
X72126792Y-88611423D01*
X72190427Y-88708464D01*
X72254872Y-88807628D01*
X72319878Y-88908525D01*
X72385199Y-89010762D01*
X72450586Y-89113947D01*
X72515794Y-89217688D01*
X72580574Y-89321594D01*
X72644679Y-89425272D01*
X72707861Y-89528330D01*
X72769874Y-89630378D01*
X72830470Y-89731022D01*
X72889402Y-89829871D01*
X72946422Y-89926533D01*
X73001283Y-90020616D01*
X73053738Y-90111728D01*
X73103539Y-90199477D01*
X73150439Y-90283472D01*
X73194191Y-90363320D01*
X73234547Y-90438630D01*
X73271260Y-90509009D01*
X73304083Y-90574066D01*
X73332768Y-90633409D01*
X73390319Y-90752140D01*
X73449838Y-90868371D01*
X73510398Y-90980640D01*
X73571070Y-91087485D01*
X73630928Y-91187443D01*
X73689045Y-91279053D01*
X73744493Y-91360852D01*
X73796346Y-91431377D01*
X73843676Y-91489166D01*
X73885555Y-91532757D01*
X73921058Y-91560687D01*
X74033031Y-91624818D01*
X74089834Y-91640012D01*
X74101398Y-91603099D01*
X74077653Y-91510906D01*
X74032307Y-91366978D01*
X73986953Y-91223001D01*
X73941594Y-91078989D01*
X73896234Y-90934953D01*
X73850877Y-90790906D01*
X73805527Y-90646859D01*
X73760187Y-90502825D01*
X73714862Y-90358816D01*
X73669555Y-90214844D01*
X73624269Y-90070921D01*
X73579009Y-89927060D01*
X73533779Y-89783272D01*
X73488581Y-89639570D01*
X73443421Y-89495966D01*
X73398301Y-89352471D01*
X73353226Y-89209099D01*
X73308199Y-89065861D01*
X73263225Y-88922769D01*
X73218306Y-88779836D01*
X73173447Y-88637073D01*
X73128651Y-88494493D01*
X73083923Y-88352109D01*
X73039265Y-88209931D01*
X72994683Y-88067973D01*
X72950179Y-87926246D01*
X72905757Y-87784762D01*
X72861422Y-87643534D01*
X72817176Y-87502574D01*
X72773024Y-87361894D01*
X72728970Y-87221506D01*
X72685017Y-87081423D01*
X72641169Y-86941655D01*
X72597430Y-86802217D01*
X72553804Y-86663119D01*
X72510293Y-86524373D01*
X72466904Y-86385993D01*
X72423638Y-86247990D01*
X72380500Y-86110376D01*
X72337493Y-85973164D01*
X72294622Y-85836365D01*
X72251890Y-85699992D01*
X72209301Y-85564057D01*
X72166858Y-85428572D01*
X72124566Y-85293548D01*
X72082429Y-85159000D01*
X72040449Y-85024937D01*
X71998631Y-84891373D01*
X71956979Y-84758320D01*
X71915496Y-84625790D01*
X71874186Y-84493795D01*
X71833053Y-84362347D01*
X71792101Y-84231458D01*
X71751334Y-84101140D01*
X71710755Y-83971407D01*
X71670368Y-83842268D01*
X71630177Y-83713738D01*
X71590185Y-83585828D01*
X71550397Y-83458550D01*
X71510816Y-83331916D01*
X71471446Y-83205939D01*
X71432291Y-83080630D01*
X71393355Y-82956003D01*
X71354640Y-82832068D01*
X71316152Y-82708838D01*
X71277894Y-82586325D01*
X71239870Y-82464541D01*
X71202083Y-82343499D01*
X71164538Y-82223211D01*
X71127237Y-82103688D01*
X71090185Y-81984943D01*
X71053386Y-81866989D01*
X71016844Y-81749836D01*
X70980561Y-81633498D01*
X70944543Y-81517986D01*
X70908792Y-81403313D01*
X70873313Y-81289491D01*
X70838109Y-81176531D01*
X70803184Y-81064447D01*
X70768543Y-80953249D01*
X70734187Y-80842952D01*
X70700123Y-80733565D01*
X70666352Y-80625102D01*
X70632880Y-80517576D01*
X70599709Y-80410996D01*
X70566844Y-80305378D01*
X70534289Y-80200731D01*
X70502046Y-80097068D01*
X70470121Y-79994402D01*
X70438516Y-79892745D01*
X70407236Y-79792109D01*
X70376284Y-79692505D01*
X70345664Y-79593947D01*
X70315380Y-79496446D01*
X70285436Y-79400014D01*
X70255835Y-79304663D01*
X70226581Y-79210407D01*
X70197678Y-79117256D01*
X70169130Y-79025223D01*
X70140941Y-78934320D01*
X70113114Y-78844559D01*
X70085653Y-78755953D01*
X70058562Y-78668513D01*
X70031845Y-78582252D01*
X70005505Y-78497182D01*
X69979547Y-78413315D01*
X69953973Y-78330663D01*
X69928788Y-78249238D01*
X69903996Y-78169052D01*
X69879601Y-78090118D01*
X69855605Y-78012448D01*
X69832014Y-77936053D01*
X69808830Y-77860947D01*
X69786058Y-77787140D01*
X69763701Y-77714646D01*
X69741764Y-77643476D01*
X69720249Y-77573643D01*
X69699160Y-77505159D01*
X69678503Y-77438035D01*
X69658279Y-77372284D01*
X69638494Y-77307919D01*
X69619150Y-77244951D01*
X69600252Y-77183392D01*
X69581803Y-77123254D01*
X69563808Y-77064551D01*
X69546269Y-77007293D01*
X69529191Y-76951493D01*
X69512578Y-76897164D01*
X69496433Y-76844316D01*
X69480760Y-76792963D01*
X69465562Y-76743117D01*
X69450845Y-76694789D01*
X69436611Y-76647993D01*
X69422864Y-76602739D01*
X69409608Y-76559040D01*
X69396847Y-76516909D01*
X69384584Y-76476357D01*
X69372824Y-76437397D01*
X69361570Y-76400040D01*
X69350825Y-76364300D01*
X69340595Y-76330187D01*
X69330882Y-76297714D01*
X69321690Y-76266894D01*
X69313023Y-76237738D01*
X69304885Y-76210259D01*
X69297280Y-76184469D01*
X69290211Y-76160379D01*
X69283682Y-76138003D01*
X69277697Y-76117352D01*
X69272260Y-76098438D01*
X69267375Y-76081273D01*
X69263044Y-76065870D01*
X69259273Y-76052241D01*
X69256065Y-76040398D01*
X69253423Y-76030353D01*
X69251352Y-76022118D01*
X69249855Y-76015705D01*
X69248936Y-76011127D01*
X69248599Y-76008395D01*
X69277015Y-75964662D01*
X69289259Y-75950306D01*
X69307650Y-75931365D01*
X69332030Y-75907968D01*
X69362237Y-75880243D01*
X69398112Y-75848319D01*
X69439495Y-75812326D01*
X69486224Y-75772391D01*
X69538141Y-75728645D01*
X69595085Y-75681215D01*
X69656896Y-75630230D01*
X69723412Y-75575819D01*
X69794476Y-75518112D01*
X69869925Y-75457236D01*
X69949600Y-75393321D01*
X70033341Y-75326496D01*
X70120988Y-75256888D01*
X70212380Y-75184628D01*
X70307357Y-75109844D01*
X70405759Y-75032665D01*
X70507426Y-74953219D01*
X70612197Y-74871635D01*
X70719912Y-74788043D01*
X70830412Y-74702570D01*
X70943536Y-74615347D01*
X71059124Y-74526501D01*
X71177015Y-74436161D01*
X71297049Y-74344457D01*
X71419067Y-74251517D01*
X71542908Y-74157469D01*
X71650010Y-74076169D01*
X71754351Y-73996786D01*
X71855958Y-73919299D01*
X71954857Y-73843686D01*
X72051075Y-73769923D01*
X72144639Y-73697988D01*
X72235577Y-73627859D01*
X72323915Y-73559513D01*
X72409680Y-73492927D01*
X72492900Y-73428080D01*
X72573600Y-73364949D01*
X72651808Y-73303510D01*
X72727552Y-73243742D01*
X72800857Y-73185623D01*
X72871751Y-73129129D01*
X72940261Y-73074238D01*
X73006414Y-73020928D01*
X73070237Y-72969175D01*
X73131756Y-72918959D01*
X73190999Y-72870256D01*
X73247993Y-72823043D01*
X73302764Y-72777298D01*
X73355340Y-72732999D01*
X73411855Y-72689968D01*
X73502023Y-72620970D01*
X73587422Y-72555637D01*
X73629633Y-72523600D01*
X73690282Y-72470963D01*
X73751441Y-72400837D01*
X73812831Y-72317225D01*
X73883934Y-72241962D01*
X73941171Y-72175291D01*
X73984825Y-72116857D01*
X74015176Y-72066311D01*
X74057221Y-71981095D01*
X74097644Y-71893800D01*
X74136412Y-71804566D01*
X74173493Y-71713533D01*
X74208853Y-71620843D01*
X74242461Y-71526636D01*
X74274283Y-71431053D01*
X74304286Y-71334236D01*
X74332438Y-71236324D01*
X74358705Y-71137459D01*
X74383055Y-71037782D01*
X74405455Y-70937433D01*
X74425873Y-70836553D01*
X74444275Y-70735284D01*
X74460628Y-70633765D01*
X74474901Y-70532138D01*
X74487059Y-70430544D01*
X74497070Y-70329123D01*
X74504902Y-70228017D01*
X74510521Y-70127366D01*
X74513895Y-70027310D01*
X74514991Y-69927992D01*
X74514870Y-69713419D01*
X76258887Y-69713419D01*
X76276439Y-69760962D01*
X76326236Y-69830098D01*
X76407236Y-69921342D01*
X76504245Y-70024889D01*
X76574144Y-70096154D01*
X76626368Y-70139179D01*
X76670350Y-70158009D01*
X76715526Y-70156690D01*
X76771329Y-70139265D01*
X76847194Y-70109780D01*
X76924338Y-70073848D01*
X76973688Y-70036075D01*
X76995336Y-69996656D01*
X76989371Y-69955786D01*
X76955885Y-69913658D01*
X76894968Y-69870468D01*
X76806711Y-69826409D01*
X76691203Y-69781676D01*
X76560805Y-69737948D01*
X76454463Y-69706359D01*
X76371664Y-69687162D01*
X76311889Y-69680609D01*
X76274624Y-69686953D01*
X76258887Y-69713419D01*
X74514870Y-69713419D01*
X74514593Y-69224220D01*
X74296528Y-69572679D01*
X74220970Y-69685068D01*
X74157289Y-69762589D01*
X74107161Y-69803848D01*
X74072266Y-69807450D01*
X74054279Y-69772001D01*
X74047099Y-69725311D01*
X74037310Y-69658198D01*
X74025442Y-69574472D01*
X74012028Y-69477944D01*
X73997599Y-69372424D01*
X73982685Y-69261723D01*
X73967819Y-69149652D01*
X73949191Y-69036556D01*
X73925331Y-68934576D01*
X73897714Y-68845609D01*
X73867818Y-68771549D01*
X73837118Y-68714293D01*
X73807092Y-68675736D01*
X73779214Y-68657776D01*
X73754961Y-68662307D01*
X73735810Y-68691226D01*
X73723237Y-68746429D01*
X73718718Y-68829811D01*
X73712591Y-68893128D01*
X73695049Y-68968904D01*
X73667348Y-69055035D01*
X73630748Y-69149416D01*
X73586504Y-69249946D01*
X73535875Y-69354521D01*
X73480119Y-69461036D01*
X73420493Y-69567390D01*
X73358254Y-69671479D01*
X73294660Y-69771199D01*
X73230969Y-69864447D01*
X73168438Y-69949120D01*
X73108325Y-70023114D01*
X73051887Y-70084327D01*
X73000382Y-70130654D01*
X72955068Y-70159993D01*
X72917201Y-70170240D01*
X72898429Y-70151117D01*
X72890577Y-70097934D01*
X72893420Y-70016967D01*
X72906736Y-69914494D01*
X72930302Y-69796790D01*
X72941159Y-69743276D01*
X72951660Y-69678313D01*
X72961721Y-69603094D01*
X72971257Y-69518810D01*
X72980182Y-69426655D01*
X72988411Y-69327820D01*
X72995859Y-69223496D01*
X73002441Y-69114877D01*
X73008072Y-69003154D01*
X73012666Y-68889520D01*
X73016139Y-68775166D01*
X73018406Y-68661284D01*
X73019381Y-68549068D01*
X73018692Y-68437390D01*
X73016015Y-68327024D01*
X73011349Y-68217973D01*
X73004696Y-68110240D01*
X72996058Y-68003828D01*
X72985434Y-67898740D01*
X72972826Y-67794981D01*
X72958235Y-67692552D01*
X72941662Y-67591457D01*
X72923108Y-67491699D01*
X72902573Y-67393282D01*
X72880058Y-67296208D01*
X72855565Y-67200481D01*
X72829095Y-67106104D01*
X72800647Y-67013080D01*
X72770224Y-66921412D01*
X72737826Y-66831104D01*
X72732084Y-66816245D01*
X75545661Y-66816245D01*
X75547933Y-66824064D01*
X75561073Y-66840604D01*
X75584608Y-66865454D01*
X75618063Y-66898204D01*
X75660964Y-66938443D01*
X75712836Y-66985759D01*
X75773204Y-67039743D01*
X75841594Y-67099984D01*
X75917531Y-67166071D01*
X76000542Y-67237593D01*
X76090151Y-67314139D01*
X76185884Y-67395299D01*
X76287266Y-67480661D01*
X76393823Y-67569816D01*
X76505081Y-67662353D01*
X76620564Y-67757860D01*
X76739798Y-67855927D01*
X76862310Y-67956143D01*
X78214832Y-69059766D01*
X78898852Y-68544433D01*
X79021473Y-68451123D01*
X79137225Y-68361192D01*
X79244122Y-68276307D01*
X79340178Y-68198133D01*
X79423405Y-68128336D01*
X79491819Y-68068581D01*
X79543432Y-68020533D01*
X79576259Y-67985858D01*
X79588314Y-67966221D01*
X79567223Y-67927702D01*
X79506629Y-67887318D01*
X79419626Y-67853762D01*
X79256570Y-67807462D01*
X79095603Y-67761855D01*
X78936829Y-67716971D01*
X78780350Y-67672835D01*
X78626269Y-67629477D01*
X78474690Y-67586923D01*
X78325715Y-67545202D01*
X78179448Y-67504340D01*
X78035993Y-67464366D01*
X77895451Y-67425308D01*
X77757926Y-67387192D01*
X77623521Y-67350046D01*
X77492340Y-67313899D01*
X77364485Y-67278778D01*
X77240060Y-67244710D01*
X77119168Y-67211723D01*
X77001911Y-67179845D01*
X76888394Y-67149103D01*
X76778718Y-67119525D01*
X76672987Y-67091139D01*
X76571305Y-67063972D01*
X76473774Y-67038053D01*
X76380498Y-67013408D01*
X76291579Y-66990065D01*
X76207122Y-66968052D01*
X76127228Y-66947396D01*
X76052000Y-66928126D01*
X75981543Y-66910269D01*
X75915960Y-66893852D01*
X75855352Y-66878903D01*
X75799824Y-66865450D01*
X75749479Y-66853520D01*
X75704419Y-66843142D01*
X75664748Y-66834342D01*
X75630569Y-66827149D01*
X75601985Y-66821589D01*
X75579099Y-66817692D01*
X75562014Y-66815483D01*
X75550834Y-66814992D01*
X75545661Y-66816245D01*
X72732084Y-66816245D01*
X72703454Y-66742158D01*
X72667110Y-66654578D01*
X72628793Y-66568366D01*
X72588505Y-66483527D01*
X72546246Y-66400063D01*
X72502019Y-66317978D01*
X72455823Y-66237275D01*
X72407660Y-66157956D01*
X72357530Y-66080025D01*
X72164984Y-65788803D01*
X77610620Y-65788803D01*
X77617788Y-65799924D01*
X77637011Y-65821910D01*
X77667623Y-65854125D01*
X77708958Y-65895937D01*
X77760352Y-65946711D01*
X77821138Y-66005812D01*
X77890649Y-66072606D01*
X77968221Y-66146459D01*
X78053188Y-66226736D01*
X78144883Y-66312802D01*
X78242642Y-66404024D01*
X78345797Y-66499768D01*
X78453684Y-66599397D01*
X78565637Y-66702280D01*
X78680989Y-66807780D01*
X78796672Y-66912851D01*
X78909592Y-67014473D01*
X79019047Y-67112057D01*
X79124337Y-67205015D01*
X79224762Y-67292756D01*
X79319620Y-67374694D01*
X79408210Y-67450239D01*
X79489831Y-67518802D01*
X79563783Y-67579794D01*
X79629365Y-67632627D01*
X79685875Y-67676713D01*
X79732613Y-67711461D01*
X79768878Y-67736285D01*
X79793968Y-67750594D01*
X79807184Y-67753800D01*
X79824965Y-67744549D01*
X79855530Y-67725248D01*
X79898006Y-67696566D01*
X79951517Y-67659171D01*
X80015189Y-67613732D01*
X80088146Y-67560918D01*
X80169515Y-67501396D01*
X80258420Y-67435836D01*
X80353987Y-67364905D01*
X80455340Y-67289272D01*
X80561605Y-67209606D01*
X80671908Y-67126576D01*
X80785373Y-67040849D01*
X80901125Y-66953094D01*
X81018290Y-66863979D01*
X81135994Y-66774174D01*
X81253361Y-66684346D01*
X81369516Y-66595164D01*
X81483585Y-66507297D01*
X81594693Y-66421413D01*
X81701965Y-66338180D01*
X81804527Y-66258268D01*
X81901503Y-66182343D01*
X81992019Y-66111076D01*
X82075200Y-66045134D01*
X82150171Y-65985186D01*
X82216058Y-65931900D01*
X82271986Y-65885945D01*
X82317079Y-65847989D01*
X82350464Y-65818702D01*
X82371266Y-65798750D01*
X82378608Y-65788803D01*
X82373299Y-65785408D01*
X82357146Y-65782071D01*
X82330513Y-65778802D01*
X82293762Y-65775608D01*
X82247255Y-65772495D01*
X82191355Y-65769473D01*
X82126425Y-65766548D01*
X82052827Y-65763727D01*
X81970923Y-65761019D01*
X81881076Y-65758431D01*
X81783648Y-65755970D01*
X81679003Y-65753645D01*
X81567502Y-65751462D01*
X81449507Y-65749429D01*
X81325383Y-65747554D01*
X81195490Y-65745844D01*
X81060191Y-65744307D01*
X80919850Y-65742951D01*
X80774828Y-65741783D01*
X80625487Y-65740810D01*
X80472192Y-65740040D01*
X80315303Y-65739480D01*
X80155183Y-65739139D01*
X79992196Y-65739024D01*
X79829220Y-65739139D01*
X79669133Y-65739480D01*
X79512298Y-65740040D01*
X79359075Y-65740810D01*
X79209828Y-65741783D01*
X79064917Y-65742951D01*
X78924705Y-65744307D01*
X78789553Y-65745844D01*
X78659823Y-65747554D01*
X78535878Y-65749429D01*
X78418078Y-65751462D01*
X78306787Y-65753645D01*
X78202365Y-65755970D01*
X78105175Y-65758431D01*
X78015578Y-65761019D01*
X77933937Y-65763727D01*
X77860613Y-65766548D01*
X77795967Y-65769473D01*
X77740363Y-65772495D01*
X77694162Y-65775608D01*
X77657725Y-65778802D01*
X77631414Y-65782071D01*
X77615592Y-65785408D01*
X77610620Y-65788803D01*
X72164984Y-65788803D01*
X72099158Y-65689242D01*
X70308291Y-65689242D01*
X68517222Y-65689242D01*
X68155663Y-66007874D01*
X67900515Y-66232388D01*
X67840243Y-66259027D01*
X67788662Y-66273098D01*
X67762865Y-66007874D01*
X67731425Y-65689242D01*
X66845665Y-65689242D01*
X65959703Y-65689242D01*
X65840393Y-65291003D01*
X65799751Y-65165644D01*
X65758589Y-65056871D01*
X65719912Y-64971317D01*
X65686725Y-64915613D01*
X65662032Y-64896392D01*
X65634934Y-64912433D01*
X65588497Y-64955760D01*
X65526401Y-65022259D01*
X65452324Y-65107812D01*
X65369943Y-65208305D01*
X65282939Y-65319622D01*
X64962494Y-65739023D01*
X65805527Y-65896626D01*
X65942581Y-65922875D01*
X66074286Y-65949330D01*
X66198747Y-65975534D01*
X66314071Y-66001032D01*
X66418362Y-66025369D01*
X66509726Y-66048088D01*
X66586268Y-66068734D01*
X66646093Y-66086852D01*
X66687307Y-66101987D01*
X66708015Y-66113682D01*
X66705910Y-66143123D01*
X66664193Y-66189142D01*
X66588704Y-66247225D01*
X66485279Y-66312858D01*
X66359757Y-66381526D01*
X66231152Y-66449142D01*
X66119170Y-66511865D01*
X66030678Y-66565548D01*
X65972546Y-66606047D01*
X65951642Y-66629216D01*
X65970401Y-66645900D01*
X66023287Y-66672714D01*
X66105217Y-66707607D01*
X66211107Y-66748525D01*
X66335873Y-66793415D01*
X66474432Y-66840227D01*
X66579149Y-66875853D01*
X66688377Y-66915496D01*
X66801046Y-66958629D01*
X66916087Y-67004722D01*
X67032432Y-67053247D01*
X67149009Y-67103676D01*
X67264751Y-67155481D01*
X67378587Y-67208133D01*
X67489449Y-67261104D01*
X67596266Y-67313866D01*
X67697970Y-67365890D01*
X67793492Y-67416648D01*
X67881761Y-67465612D01*
X67961708Y-67512253D01*
X68032265Y-67556043D01*
X68092361Y-67596454D01*
X68140928Y-67632957D01*
X68176896Y-67665024D01*
X68199195Y-67692128D01*
X68212127Y-67728327D01*
X68197924Y-67753339D01*
X68154748Y-67767445D01*
X68080760Y-67770928D01*
X67974124Y-67764068D01*
X67833000Y-67747148D01*
X67711532Y-67730782D01*
X67592850Y-67715475D01*
X67476814Y-67701225D01*
X67363282Y-67688029D01*
X67252112Y-67675882D01*
X67143163Y-67664781D01*
X67036293Y-67654723D01*
X66931360Y-67645705D01*
X66828224Y-67637723D01*
X66726743Y-67630774D01*
X66626775Y-67624854D01*
X66528179Y-67619960D01*
X66430813Y-67616088D01*
X66334536Y-67613236D01*
X66239207Y-67611400D01*
X66144683Y-67610576D01*
X66050823Y-67610761D01*
X65957486Y-67611952D01*
X65864531Y-67614145D01*
X65771815Y-67617337D01*
X65679198Y-67621524D01*
X65586538Y-67626703D01*
X65493693Y-67632871D01*
X65400521Y-67640025D01*
X65306882Y-67648160D01*
X65212634Y-67657274D01*
X65117636Y-67667363D01*
X65021745Y-67678424D01*
X64876983Y-67695216D01*
X64737689Y-67710310D01*
X64605481Y-67723590D01*
X64481975Y-67734943D01*
X64368788Y-67744253D01*
X64267538Y-67751404D01*
X64179840Y-67756283D01*
X64107314Y-67758775D01*
X64051574Y-67758764D01*
X64014239Y-67756136D01*
X63996925Y-67750775D01*
X63995310Y-67729024D01*
X64008192Y-67684194D01*
X64034257Y-67619024D01*
X64072192Y-67536251D01*
X64120684Y-67438614D01*
X64178418Y-67328848D01*
X64244082Y-67209693D01*
X64316362Y-67083886D01*
X64380870Y-66972499D01*
X64436397Y-66873136D01*
X64482943Y-66784811D01*
X64520507Y-66706539D01*
X64549088Y-66637334D01*
X64568688Y-66576212D01*
X64650310Y-66436143D01*
X64556193Y-66412563D01*
X64522831Y-66375456D01*
X64474520Y-66343838D01*
X64410583Y-66316579D01*
X64330343Y-66292551D01*
X64233123Y-66270624D01*
X64118245Y-66249669D01*
X63985033Y-66228558D01*
X63851731Y-66205141D01*
X63735845Y-66178555D01*
X63644448Y-66150941D01*
X63584613Y-66124439D01*
X63563415Y-66101186D01*
X63571976Y-66079559D01*
X63595987Y-66048831D01*
X63634146Y-66009916D01*
X63685149Y-65963728D01*
X63747693Y-65911181D01*
X63820475Y-65853189D01*
X63902192Y-65790666D01*
X63991541Y-65724527D01*
X64087219Y-65655685D01*
X64187922Y-65585054D01*
X64292348Y-65513550D01*
X64399192Y-65442085D01*
X64507153Y-65371574D01*
X64614928Y-65302931D01*
X64721211Y-65237071D01*
X64824702Y-65174907D01*
X64924097Y-65117353D01*
X65018092Y-65065324D01*
X65105384Y-65019733D01*
X65238564Y-64952184D01*
X65360820Y-64889296D01*
X65466985Y-64833791D01*
X65551889Y-64788390D01*
X65610365Y-64755815D01*
X65637242Y-64738789D01*
X65638913Y-64725574D01*
X65634762Y-64695176D01*
X65625188Y-64648858D01*
X65610587Y-64587881D01*
X65591356Y-64513507D01*
X65567892Y-64426998D01*
X65540591Y-64329616D01*
X65509852Y-64222624D01*
X65476070Y-64107282D01*
X65439643Y-63984854D01*
X65400968Y-63856601D01*
X65360441Y-63723784D01*
X65318460Y-63587667D01*
X65275421Y-63449511D01*
X65231722Y-63310577D01*
X65187758Y-63172129D01*
X65143929Y-63035427D01*
X65100629Y-62901734D01*
X65058256Y-62772312D01*
X65017208Y-62648422D01*
X64977880Y-62531327D01*
X64940670Y-62422289D01*
X64905975Y-62322570D01*
X64874192Y-62233431D01*
X64845718Y-62156135D01*
X64820949Y-62091943D01*
X64800283Y-62042118D01*
X64784116Y-62007921D01*
X64772846Y-61990615D01*
X64717944Y-61961861D01*
X64636982Y-61949976D01*
X64538535Y-61952852D01*
X64431179Y-61968377D01*
X64323491Y-61994441D01*
X64224046Y-62028933D01*
X64141420Y-62069744D01*
X64084190Y-62114763D01*
X64057990Y-62120608D01*
X64072904Y-62138142D01*
X64059804Y-62165551D01*
X64087973Y-62263054D01*
X64155736Y-62303605D01*
X64190940Y-62319565D01*
X64242467Y-62363730D01*
X64306173Y-62430529D01*
X64377912Y-62514390D01*
X64453536Y-62609742D01*
X64528902Y-62711014D01*
X64599861Y-62812634D01*
X64662269Y-62909031D01*
X64711979Y-62994633D01*
X64744846Y-63063870D01*
X64756722Y-63111168D01*
X64747805Y-63115654D01*
X64721725Y-63114165D01*
X64679492Y-63106988D01*
X64622115Y-63094411D01*
X64550603Y-63076724D01*
X64465966Y-63054214D01*
X64369213Y-63027169D01*
X64261352Y-62995877D01*
X64143394Y-62960628D01*
X64016347Y-62921709D01*
X63881220Y-62879408D01*
X63739023Y-62834014D01*
X63590764Y-62785814D01*
X63437454Y-62735098D01*
X63278434Y-62682233D01*
X63124456Y-62631433D01*
X62975391Y-62582666D01*
X62831106Y-62535901D01*
X62691471Y-62491106D01*
X62556355Y-62448248D01*
X62425627Y-62407297D01*
X62299155Y-62368219D01*
X62176809Y-62330985D01*
X62058458Y-62295561D01*
X61943971Y-62261915D01*
X61833216Y-62230017D01*
X61726063Y-62199834D01*
X61622381Y-62171335D01*
X61522038Y-62144486D01*
X61424904Y-62119258D01*
X61330847Y-62095618D01*
X61239737Y-62073534D01*
X61151443Y-62052974D01*
X61065833Y-62033907D01*
X60982776Y-62016300D01*
X60902142Y-62000122D01*
X60823800Y-61985342D01*
X60747618Y-61971926D01*
X60673465Y-61959844D01*
X60601211Y-61949064D01*
X60530724Y-61939553D01*
X60461874Y-61931281D01*
X60394529Y-61924215D01*
X60328558Y-61918323D01*
X60263830Y-61913574D01*
X60200215Y-61909935D01*
X60137581Y-61907376D01*
X60075797Y-61905863D01*
X60014733Y-61905366D01*
X59919381Y-61906805D01*
X59836372Y-61908991D01*
X59794049Y-61905366D01*
X59794056Y-61905360D01*
X59707596Y-61911813D01*
X59632019Y-61917459D01*
X59564907Y-61931970D01*
X59484084Y-61951049D01*
X59412011Y-61979375D01*
X59344538Y-62019211D01*
X59277518Y-62072817D01*
X59206801Y-62142456D01*
X59128239Y-62230388D01*
X59037684Y-62338875D01*
X58944039Y-62454353D01*
X58865734Y-62553765D01*
X58802731Y-62637532D01*
X58754994Y-62706079D01*
X58722485Y-62759829D01*
X58705168Y-62799204D01*
X58703007Y-62824628D01*
X58715964Y-62836524D01*
X58744003Y-62835315D01*
X58787087Y-62821424D01*
X58845180Y-62795274D01*
X58918244Y-62757289D01*
X59006244Y-62707892D01*
X59072287Y-62671243D01*
X59138488Y-62637325D01*
X59204984Y-62606155D01*
X59271909Y-62577748D01*
X59339399Y-62552122D01*
X59407590Y-62529294D01*
X59476617Y-62509278D01*
X59546614Y-62492093D01*
X59617719Y-62477755D01*
X59690065Y-62466280D01*
X59763789Y-62457684D01*
X59839026Y-62451985D01*
X59915911Y-62449199D01*
X59994580Y-62449342D01*
X60075167Y-62452431D01*
X60157810Y-62458482D01*
X60242642Y-62467512D01*
X60329799Y-62479538D01*
X60419417Y-62494576D01*
X60511631Y-62512642D01*
X60606577Y-62533753D01*
X60704389Y-62557926D01*
X60805204Y-62585178D01*
X60909157Y-62615523D01*
X61016382Y-62648981D01*
X61127016Y-62685565D01*
X61241194Y-62725295D01*
X61359052Y-62768185D01*
X61480724Y-62814252D01*
X61606346Y-62863514D01*
X61736053Y-62915985D01*
X61869982Y-62971684D01*
X62008267Y-63030627D01*
X62151044Y-63092829D01*
X62229225Y-63126601D01*
X62312390Y-63161334D01*
X62400029Y-63196855D01*
X62491637Y-63232991D01*
X62586704Y-63269567D01*
X62684725Y-63306411D01*
X62785192Y-63343349D01*
X62887597Y-63380209D01*
X62991433Y-63416816D01*
X63096194Y-63452997D01*
X63201370Y-63488580D01*
X63306456Y-63523390D01*
X63410943Y-63557255D01*
X63514325Y-63590000D01*
X63616094Y-63621454D01*
X63715742Y-63651441D01*
X63812764Y-63679790D01*
X63906650Y-63706327D01*
X63996894Y-63730878D01*
X64082988Y-63753270D01*
X64221807Y-63788897D01*
X64357819Y-63824648D01*
X64489607Y-63860106D01*
X64615750Y-63894853D01*
X64734832Y-63928471D01*
X64845433Y-63960543D01*
X64946134Y-63990650D01*
X65035518Y-64018375D01*
X65112166Y-64043299D01*
X65174658Y-64065006D01*
X65221578Y-64083077D01*
X65251505Y-64097094D01*
X65282325Y-64119929D01*
X65297830Y-64144449D01*
X65298803Y-64170387D01*
X65286028Y-64197477D01*
X65260290Y-64225456D01*
X65222371Y-64254056D01*
X65173055Y-64283013D01*
X65113127Y-64312061D01*
X65043369Y-64340934D01*
X64964565Y-64369368D01*
X64877499Y-64397096D01*
X64782955Y-64423854D01*
X64681716Y-64449375D01*
X64574566Y-64473395D01*
X64462289Y-64495648D01*
X64345668Y-64515867D01*
X64225487Y-64533789D01*
X64102530Y-64549147D01*
X63977580Y-64561676D01*
X63851420Y-64571111D01*
X63095451Y-64617666D01*
X62969691Y-64965521D01*
X62943145Y-65027651D01*
X62905838Y-65098296D01*
X62858977Y-65176098D01*
X62803768Y-65259700D01*
X62741419Y-65347745D01*
X62673137Y-65438875D01*
X62600128Y-65531734D01*
X62523600Y-65624964D01*
X62444760Y-65717208D01*
X62364815Y-65807108D01*
X62284971Y-65893308D01*
X62206437Y-65974449D01*
X62130417Y-66049175D01*
X62058121Y-66116129D01*
X61990754Y-66173953D01*
X61929524Y-66221290D01*
X61875638Y-66256782D01*
X61830302Y-66279073D01*
X61794725Y-66286805D01*
X61773276Y-66272660D01*
X61765962Y-66231554D01*
X61772341Y-66165475D01*
X61791969Y-66076416D01*
X61824404Y-65966367D01*
X61869204Y-65837318D01*
X61925925Y-65691260D01*
X61976522Y-65563580D01*
X62021376Y-65443265D01*
X62060375Y-65329906D01*
X62093412Y-65223099D01*
X62120377Y-65122435D01*
X62141159Y-65027509D01*
X62155650Y-64937915D01*
X62163740Y-64853245D01*
X62165319Y-64773093D01*
X62160277Y-64697054D01*
X62148506Y-64624719D01*
X62129895Y-64555684D01*
X62104335Y-64489541D01*
X62071717Y-64425884D01*
X62031930Y-64364306D01*
X61984866Y-64304402D01*
X61930415Y-64245764D01*
X61868466Y-64187986D01*
X61798911Y-64130662D01*
X61721640Y-64073385D01*
X61636544Y-64015749D01*
X61543512Y-63957346D01*
X61442435Y-63897772D01*
X61338591Y-63841877D01*
X61231426Y-63791039D01*
X61122256Y-63745469D01*
X61012390Y-63705378D01*
X60903144Y-63670979D01*
X60795828Y-63642483D01*
X60691756Y-63620102D01*
X60592239Y-63604046D01*
X60498591Y-63594528D01*
X60412125Y-63591759D01*
X60334151Y-63595952D01*
X60265984Y-63607316D01*
X60208936Y-63626065D01*
X60164319Y-63652409D01*
X60133446Y-63686560D01*
X60135618Y-63713941D01*
X60165862Y-63752947D01*
X60221134Y-63801383D01*
X60298392Y-63857052D01*
X60394592Y-63917758D01*
X60506692Y-63981306D01*
X60631648Y-64045500D01*
X60733111Y-64097601D01*
X60827098Y-64150942D01*
X60913617Y-64205488D01*
X60992678Y-64261206D01*
X61064287Y-64318063D01*
X61128452Y-64376024D01*
X61185183Y-64435056D01*
X61234485Y-64495125D01*
X61276369Y-64556197D01*
X61293298Y-64592272D01*
X61320136Y-64648928D01*
X61340861Y-64706343D01*
X61355302Y-64785068D01*
X61363741Y-64870010D01*
X61367464Y-64960886D01*
X61352858Y-65036111D01*
X61329012Y-65112250D01*
X61295875Y-65189260D01*
X61253393Y-65267097D01*
X61201514Y-65345718D01*
X61140187Y-65425080D01*
X61069358Y-65505140D01*
X60988975Y-65585855D01*
X60934848Y-65635181D01*
X60877417Y-65683350D01*
X60816753Y-65730339D01*
X60752926Y-65776124D01*
X60686005Y-65820683D01*
X60616061Y-65863993D01*
X60543163Y-65906029D01*
X60467383Y-65946770D01*
X60388790Y-65986192D01*
X60377005Y-65991710D01*
X60307454Y-66024273D01*
X60223445Y-66060988D01*
X60136833Y-66096315D01*
X60047688Y-66130232D01*
X59956081Y-66162713D01*
X59862082Y-66193738D01*
X59765760Y-66223283D01*
X59667185Y-66251323D01*
X59566428Y-66277838D01*
X59463559Y-66302803D01*
X59358648Y-66326195D01*
X59251765Y-66347991D01*
X59236393Y-66350842D01*
X59142980Y-66368168D01*
X59032363Y-66386704D01*
X58919984Y-66403574D01*
X58805913Y-66418757D01*
X58690221Y-66432228D01*
X58572977Y-66443965D01*
X58454251Y-66453944D01*
X58334114Y-66462143D01*
X58211462Y-66469868D01*
X58099526Y-66477257D01*
X57998236Y-66483841D01*
X57907522Y-66489151D01*
X57827316Y-66492720D01*
X57757549Y-66494078D01*
X57698151Y-66492759D01*
X57649054Y-66488292D01*
X57610188Y-66480209D01*
X57581484Y-66468044D01*
X57562873Y-66451325D01*
X57554286Y-66429587D01*
X57555654Y-66402359D01*
X57566908Y-66369174D01*
X57587978Y-66329563D01*
X57618795Y-66283058D01*
X57659291Y-66229190D01*
X57709397Y-66167491D01*
X57769042Y-66097493D01*
X57838158Y-66018726D01*
X57916676Y-65930724D01*
X58004527Y-65833016D01*
X58101642Y-65725136D01*
X58133835Y-65689245D01*
X58872415Y-65689245D01*
X59236393Y-65689245D01*
X59384261Y-65684943D01*
X59482721Y-65670033D01*
X59537579Y-65641515D01*
X59554639Y-65596385D01*
X59539708Y-65531642D01*
X59509258Y-65439786D01*
X59487534Y-65350372D01*
X59479247Y-65282743D01*
X59468043Y-65228939D01*
X59437125Y-65199104D01*
X59393794Y-65191646D01*
X59393794Y-65191648D01*
X59334811Y-65204458D01*
X59267131Y-65237514D01*
X59194702Y-65289337D01*
X59121470Y-65358448D01*
X59051381Y-65443369D01*
X58872415Y-65689245D01*
X58133835Y-65689245D01*
X58207951Y-65606614D01*
X58319375Y-65479614D01*
X58414783Y-65365890D01*
X58494342Y-65265493D01*
X58558216Y-65178476D01*
X58606569Y-65104894D01*
X58639567Y-65044797D01*
X58657375Y-64998240D01*
X58660157Y-64965274D01*
X58648079Y-64945953D01*
X58621306Y-64940329D01*
X58602160Y-64892564D01*
X58536468Y-64914516D01*
X58454830Y-64972027D01*
X58375026Y-65052586D01*
X58345601Y-65081003D01*
X58275456Y-65125239D01*
X58202148Y-65172671D01*
X58120606Y-65228532D01*
X58025760Y-65298059D01*
X57969914Y-65339742D01*
X57912186Y-65381679D01*
X57852598Y-65423860D01*
X57791174Y-65466275D01*
X57727937Y-65508911D01*
X57662910Y-65551759D01*
X57596118Y-65594806D01*
X57527583Y-65638042D01*
X57457328Y-65681456D01*
X57385377Y-65725036D01*
X57311753Y-65768772D01*
X57236479Y-65812653D01*
X57159579Y-65856667D01*
X57081076Y-65900804D01*
X57000993Y-65945053D01*
X56919354Y-65989402D01*
X56836182Y-66033840D01*
X56751500Y-66078357D01*
X56665331Y-66122941D01*
X56577700Y-66167581D01*
X56488628Y-66212266D01*
X56398140Y-66256986D01*
X56306259Y-66301729D01*
X56213007Y-66346484D01*
X56118409Y-66391240D01*
X56022488Y-66435986D01*
X55925267Y-66480711D01*
X55826768Y-66525404D01*
X55727017Y-66570053D01*
X55626035Y-66614649D01*
X55523847Y-66659179D01*
X55420475Y-66703633D01*
X55315943Y-66748000D01*
X55210273Y-66792269D01*
X55103491Y-66836428D01*
X54995618Y-66880466D01*
X54886678Y-66924373D01*
X54776694Y-66968138D01*
X54665690Y-67011749D01*
X54553689Y-67055196D01*
X54440714Y-67098466D01*
X54326789Y-67141550D01*
X54211937Y-67184437D01*
X54096180Y-67227114D01*
X53979543Y-67269572D01*
X53862049Y-67311798D01*
X53743721Y-67353783D01*
X53624583Y-67395515D01*
X53504657Y-67436983D01*
X53341030Y-67493588D01*
X53181454Y-67549579D01*
X53026019Y-67604916D01*
X52874812Y-67659558D01*
X52727925Y-67713463D01*
X52585444Y-67766591D01*
X52447460Y-67818901D01*
X52314062Y-67870351D01*
X52185338Y-67920901D01*
X52061378Y-67970510D01*
X51942271Y-68019136D01*
X51828105Y-68066739D01*
X51718971Y-68113277D01*
X51614956Y-68158710D01*
X51516151Y-68202996D01*
X51422643Y-68246095D01*
X51334523Y-68287965D01*
X51251879Y-68328566D01*
X51174801Y-68367856D01*
X51103377Y-68405795D01*
X51037696Y-68442341D01*
X50977848Y-68477454D01*
X50923921Y-68511092D01*
X50876006Y-68543215D01*
X50834190Y-68573781D01*
X50798563Y-68602749D01*
X50769214Y-68630079D01*
X50746231Y-68655729D01*
X50729705Y-68679658D01*
X50719724Y-68701826D01*
X50716377Y-68722191D01*
X50724643Y-68756839D01*
X50748330Y-68810511D01*
X50785778Y-68880501D01*
X50835325Y-68964108D01*
X50895309Y-69058626D01*
X50964069Y-69161352D01*
X51039942Y-69269583D01*
X51121267Y-69380616D01*
X51191277Y-69476106D01*
X51253609Y-69565831D01*
X51308209Y-69650527D01*
X51355025Y-69730930D01*
X51394004Y-69807774D01*
X51425092Y-69881797D01*
X51448236Y-69953732D01*
X51463385Y-70024315D01*
X51470484Y-70094283D01*
X51469480Y-70164370D01*
X51460321Y-70235312D01*
X51442954Y-70307845D01*
X51417326Y-70382704D01*
X51383383Y-70460624D01*
X51341073Y-70542342D01*
X51290343Y-70628593D01*
X51231139Y-70720111D01*
X51163409Y-70817634D01*
X51087100Y-70921895D01*
X51002159Y-71033632D01*
X50907459Y-71154953D01*
X50818270Y-71266509D01*
X50737348Y-71365057D01*
X50667454Y-71447352D01*
X50611345Y-71510150D01*
X50571781Y-71550208D01*
X50551519Y-71564282D01*
X50541668Y-71540062D01*
X50539025Y-71472704D01*
X50543264Y-71370154D01*
X50554054Y-71240360D01*
X50571068Y-71091271D01*
X50585341Y-70956092D01*
X50591217Y-70836753D01*
X50588518Y-70731803D01*
X50577067Y-70639786D01*
X50556688Y-70559249D01*
X50527204Y-70488738D01*
X50488438Y-70426801D01*
X50428459Y-70349886D01*
X50382083Y-70306086D01*
X50341342Y-70297196D01*
X50298266Y-70325012D01*
X50244886Y-70391329D01*
X50173233Y-70497943D01*
X50138926Y-70557091D01*
X50107076Y-70625550D01*
X50077760Y-70702428D01*
X50051054Y-70786831D01*
X50027034Y-70877866D01*
X50005775Y-70974638D01*
X49987355Y-71076255D01*
X49971850Y-71181823D01*
X49959334Y-71290448D01*
X49949886Y-71401237D01*
X49943581Y-71513295D01*
X49940495Y-71625731D01*
X48793212Y-71625731D01*
X48796475Y-71607052D01*
X48821095Y-71490109D01*
X48832162Y-71437972D01*
X48843913Y-71377558D01*
X48856270Y-71309435D01*
X48869157Y-71234171D01*
X48882497Y-71152333D01*
X48896211Y-71064490D01*
X48910222Y-70971210D01*
X48924454Y-70873061D01*
X48938829Y-70770611D01*
X48953269Y-70664429D01*
X48967697Y-70555081D01*
X48982037Y-70443138D01*
X48996209Y-70329165D01*
X49010138Y-70213733D01*
X49023746Y-70097408D01*
X49036956Y-69980759D01*
X49049690Y-69864353D01*
X49061870Y-69748760D01*
X49073421Y-69634547D01*
X49185678Y-68499888D01*
X49185678Y-68499688D01*
X49218059Y-68420286D01*
X49257512Y-68347154D01*
X49304354Y-68277748D01*
X49358903Y-68209526D01*
X49421478Y-68139943D01*
X49586134Y-67997455D01*
X49629993Y-67960390D01*
X49676066Y-67923258D01*
X49724410Y-67886033D01*
X49775081Y-67848690D01*
X49828135Y-67811200D01*
X49883629Y-67773539D01*
X49941618Y-67735679D01*
X50002160Y-67697595D01*
X50065311Y-67659260D01*
X50131127Y-67620648D01*
X50199664Y-67581732D01*
X50270979Y-67542485D01*
X50345128Y-67502883D01*
X50422168Y-67462898D01*
X50502154Y-67422504D01*
X50585144Y-67381674D01*
X50671194Y-67340382D01*
X50760359Y-67298603D01*
X50852696Y-67256309D01*
X50948263Y-67213474D01*
X51047114Y-67170072D01*
X51149306Y-67126076D01*
X51254897Y-67081461D01*
X51363941Y-67036200D01*
X51476496Y-66990265D01*
X51592618Y-66943632D01*
X51712363Y-66896274D01*
X51835787Y-66848164D01*
X51962947Y-66799276D01*
X52093900Y-66749584D01*
X52228701Y-66699061D01*
X52367407Y-66647681D01*
X52510075Y-66595418D01*
X52656760Y-66542245D01*
X52807519Y-66488136D01*
X52916564Y-66448923D01*
X53025328Y-66409289D01*
X53133761Y-66369260D01*
X53241809Y-66328860D01*
X53349422Y-66288114D01*
X53456546Y-66247048D01*
X53563132Y-66205686D01*
X53669126Y-66164054D01*
X53774478Y-66122176D01*
X53879134Y-66080077D01*
X53983045Y-66037782D01*
X54086156Y-65995316D01*
X54188418Y-65952705D01*
X54289778Y-65909973D01*
X54390184Y-65867145D01*
X54489585Y-65824246D01*
X54587928Y-65781300D01*
X54685162Y-65738335D01*
X54781236Y-65695372D01*
X54876097Y-65652439D01*
X54969693Y-65609560D01*
X55061973Y-65566760D01*
X55152885Y-65524064D01*
X55242378Y-65481496D01*
X55330399Y-65439083D01*
X55416896Y-65396848D01*
X55501818Y-65354817D01*
X55585114Y-65313015D01*
X55666730Y-65271466D01*
X55746616Y-65230196D01*
X55824720Y-65189230D01*
X55900990Y-65148592D01*
X55975374Y-65108308D01*
X56047820Y-65068402D01*
X56118276Y-65028900D01*
X56186692Y-64989827D01*
X56253014Y-64951207D01*
X56351041Y-64892609D01*
X56443780Y-64835234D01*
X56531043Y-64779176D01*
X56552452Y-64764838D01*
X60119102Y-64764838D01*
X60156414Y-64812956D01*
X60202782Y-64873488D01*
X60240715Y-64949974D01*
X60266324Y-65032620D01*
X60275725Y-65111635D01*
X60282782Y-65190969D01*
X60302985Y-65245789D01*
X60334878Y-65276271D01*
X60377005Y-65282589D01*
X60427910Y-65264918D01*
X60486139Y-65223433D01*
X60550235Y-65158307D01*
X60618743Y-65069716D01*
X60684471Y-64971765D01*
X60730197Y-64892002D01*
X60754909Y-64828647D01*
X60757598Y-64779921D01*
X60737252Y-64744044D01*
X60692861Y-64719237D01*
X60623415Y-64703721D01*
X60527903Y-64695716D01*
X60405314Y-64693444D01*
X60260467Y-64696951D01*
X60167141Y-64708746D01*
X60121348Y-64730738D01*
X60119102Y-64764838D01*
X56552452Y-64764838D01*
X56612640Y-64724529D01*
X56688381Y-64671387D01*
X56758079Y-64619844D01*
X56821545Y-64569994D01*
X56878588Y-64521931D01*
X56976908Y-64435109D01*
X57059306Y-64359618D01*
X57127246Y-64292112D01*
X57182192Y-64229246D01*
X57225607Y-64167673D01*
X57258956Y-64104048D01*
X57283703Y-64035027D01*
X57301311Y-63957263D01*
X57313243Y-63867410D01*
X57320965Y-63762125D01*
X57325939Y-63638059D01*
X57329630Y-63491870D01*
X57333538Y-63371119D01*
X57339853Y-63260022D01*
X57348901Y-63157302D01*
X57361012Y-63061684D01*
X57376514Y-62971893D01*
X57395735Y-62886651D01*
X57418999Y-62804691D01*
X57446627Y-62724751D01*
X57478937Y-62645557D01*
X57516248Y-62565838D01*
X57558879Y-62484321D01*
X57607148Y-62399735D01*
X57660039Y-62313526D01*
X57716435Y-62227666D01*
X57776066Y-62142402D01*
X57838667Y-62057981D01*
X57903968Y-61974649D01*
X57971703Y-61892652D01*
X58041604Y-61812236D01*
X58113403Y-61733649D01*
X58186833Y-61657137D01*
X58261626Y-61582945D01*
X58337515Y-61511321D01*
X58414231Y-61442510D01*
X58491508Y-61376760D01*
X58569078Y-61314316D01*
X58646672Y-61255426D01*
X58724025Y-61200334D01*
X58800867Y-61149289D01*
X58876931Y-61102536D01*
X58951951Y-61060321D01*
X59025657Y-61022891D01*
X59097783Y-60990493D01*
X59168061Y-60963373D01*
X59235454Y-60941275D01*
X59306849Y-60921003D01*
X59382047Y-60902555D01*
X59460848Y-60885927D01*
X59543052Y-60871117D01*
X59628458Y-60858121D01*
X59716867Y-60846938D01*
X59808079Y-60837564D01*
X59901893Y-60829996D01*
X59998110Y-60824232D01*
X60096529Y-60820269D01*
X60196952Y-60818104D01*
X60299177Y-60817733D01*
X60403004Y-60819155D01*
X60508234Y-60822366D01*
X60614667Y-60827364D01*
X60722103Y-60834146D01*
X60830341Y-60842709D01*
X60939182Y-60853049D01*
X61048426Y-60865165D01*
X61157872Y-60879054D01*
X61267321Y-60894712D01*
X61376572Y-60912137D01*
X61485426Y-60931326D01*
X61593683Y-60952276D01*
X61701143Y-60974984D01*
X61807605Y-60999448D01*
X61946207Y-61032144D01*
X62069484Y-61059950D01*
X62179650Y-61082979D01*
X62278919Y-61101340D01*
X62369507Y-61115146D01*
X62453627Y-61124505D01*
X62533496Y-61129531D01*
X62611326Y-61130333D01*
X62689334Y-61127022D01*
X62715534Y-61132061D01*
X62764104Y-61118759D01*
X62834460Y-61109799D01*
X62908818Y-61098428D01*
X62988872Y-61084332D01*
X63076319Y-61067197D01*
X63172852Y-61046708D01*
X63280167Y-61022551D01*
X63399957Y-60994410D01*
X63531645Y-60962092D01*
X63658957Y-60929181D01*
X63780011Y-60896265D01*
X63892927Y-60863932D01*
X63995824Y-60832769D01*
X64086820Y-60803364D01*
X64164036Y-60776305D01*
X64225588Y-60752179D01*
X64269598Y-60731574D01*
X64294182Y-60715078D01*
X64275238Y-60634464D01*
X64306038Y-60564101D01*
X64294384Y-60474644D01*
X64288606Y-60456505D01*
X64275100Y-60413780D01*
X64254830Y-60349531D01*
X64228757Y-60266819D01*
X64197843Y-60168706D01*
X64163050Y-60058254D01*
X64125342Y-59938524D01*
X64085679Y-59812578D01*
X64045025Y-59683476D01*
X64004342Y-59554281D01*
X63964592Y-59428055D01*
X63926737Y-59307858D01*
X63891739Y-59196752D01*
X63860561Y-59097799D01*
X63834165Y-59014060D01*
X63813513Y-58948597D01*
X63812717Y-58945779D01*
X63791646Y-58874395D01*
X63770206Y-58801889D01*
X63748400Y-58728271D01*
X63726230Y-58653550D01*
X63703698Y-58577733D01*
X63680807Y-58500830D01*
X63657560Y-58422850D01*
X63633959Y-58343801D01*
X63610006Y-58263692D01*
X63585704Y-58182532D01*
X63561055Y-58100329D01*
X63536062Y-58017092D01*
X63510726Y-57932830D01*
X63485052Y-57847552D01*
X63459040Y-57761267D01*
X63432694Y-57673982D01*
X63406016Y-57585708D01*
X63379009Y-57496452D01*
X63351674Y-57406223D01*
X63324014Y-57315031D01*
X63296032Y-57222883D01*
X63267730Y-57129789D01*
X63239111Y-57035758D01*
X63210177Y-56940797D01*
X63180931Y-56844916D01*
X63151374Y-56748124D01*
X63121510Y-56650429D01*
X63091341Y-56551840D01*
X63060869Y-56452366D01*
X63030097Y-56352016D01*
X62999027Y-56250797D01*
X62967662Y-56148720D01*
X62936004Y-56045792D01*
X62904055Y-55942023D01*
X62871819Y-55837421D01*
X62839297Y-55731995D01*
X62806492Y-55625753D01*
X62773406Y-55518705D01*
X62740042Y-55410859D01*
X62706403Y-55302224D01*
X62672490Y-55192809D01*
X62638306Y-55082622D01*
X62603854Y-54971672D01*
X62569136Y-54859968D01*
X62534154Y-54747518D01*
X62498912Y-54634332D01*
X62463411Y-54520418D01*
X62427653Y-54405785D01*
X62391643Y-54290441D01*
X62355380Y-54174395D01*
X62318869Y-54057657D01*
X62282112Y-53940234D01*
X62245111Y-53822136D01*
X62207868Y-53703371D01*
X62171347Y-53586986D01*
X62135076Y-53471463D01*
X62099057Y-53356805D01*
X62063291Y-53243015D01*
X62027780Y-53130097D01*
X61992524Y-53018054D01*
X61957526Y-52906890D01*
X61922786Y-52796609D01*
X61888306Y-52687214D01*
X61854087Y-52578708D01*
X61820131Y-52471095D01*
X61786438Y-52364379D01*
X61753011Y-52258563D01*
X61719850Y-52153651D01*
X61686956Y-52049646D01*
X61654332Y-51946552D01*
X61621979Y-51844373D01*
X61589897Y-51743111D01*
X61558089Y-51642770D01*
X61526555Y-51543355D01*
X61495296Y-51444868D01*
X61464315Y-51347313D01*
X61433613Y-51250693D01*
X61403190Y-51155013D01*
X61373048Y-51060275D01*
X61343189Y-50966483D01*
X61313614Y-50873642D01*
X61284324Y-50781753D01*
X61255320Y-50690821D01*
X61226604Y-50600850D01*
X61198177Y-50511842D01*
X61170041Y-50423802D01*
X61142197Y-50336732D01*
X61114645Y-50250638D01*
X61087388Y-50165521D01*
X61060427Y-50081386D01*
X61033764Y-49998235D01*
X61007398Y-49916074D01*
X60981333Y-49834905D01*
X60955568Y-49754731D01*
X60930106Y-49675557D01*
X60904948Y-49597385D01*
X60880095Y-49520220D01*
X60855549Y-49444064D01*
X60806046Y-49290064D01*
X60758731Y-49143162D01*
X60713543Y-49003155D01*
X60670417Y-48869839D01*
X60629291Y-48743013D01*
X60590101Y-48622474D01*
X60552786Y-48508017D01*
X60517282Y-48399441D01*
X60483526Y-48296541D01*
X60451455Y-48199117D01*
X60421007Y-48106963D01*
X60392118Y-48019878D01*
X60364726Y-47937658D01*
X60338767Y-47860101D01*
X60314179Y-47787003D01*
X60290898Y-47718162D01*
X60268863Y-47653375D01*
X60248009Y-47592437D01*
X60228274Y-47535148D01*
X60209596Y-47481303D01*
X60191911Y-47430700D01*
X60175156Y-47383136D01*
X60159032Y-47334162D01*
X60003244Y-46838983D01*
X59998006Y-46854904D01*
X59987929Y-46825077D01*
X59987909Y-46825080D01*
X59986928Y-46826806D01*
X59985270Y-46830692D01*
X59982939Y-46836721D01*
X59979942Y-46844873D01*
X59976284Y-46855131D01*
X59971971Y-46867477D01*
X59967008Y-46881892D01*
X59961402Y-46898358D01*
X59955159Y-46916857D01*
X59948284Y-46937370D01*
X59940782Y-46959879D01*
X59932660Y-46984366D01*
X59923924Y-47010813D01*
X59914578Y-47039202D01*
X59904630Y-47069513D01*
X59894084Y-47101730D01*
X59882947Y-47135833D01*
X59871224Y-47171805D01*
X59858921Y-47209627D01*
X59846043Y-47249280D01*
X59832598Y-47290748D01*
X59818589Y-47334010D01*
X59804024Y-47379050D01*
X59788908Y-47425849D01*
X59773246Y-47474388D01*
X59757045Y-47524650D01*
X59740310Y-47576616D01*
X59723047Y-47630268D01*
X59705261Y-47685587D01*
X59686959Y-47742556D01*
X59668147Y-47801155D01*
X59648829Y-47861368D01*
X59629012Y-47923175D01*
X59608702Y-47986559D01*
X59587904Y-48051500D01*
X59566624Y-48117982D01*
X59544869Y-48185985D01*
X59522642Y-48255491D01*
X59499952Y-48326482D01*
X59476802Y-48398940D01*
X59453200Y-48472847D01*
X59429150Y-48548184D01*
X59404659Y-48624933D01*
X59379732Y-48703075D01*
X59354375Y-48782594D01*
X59328594Y-48863469D01*
X59302394Y-48945683D01*
X59275782Y-49029219D01*
X59248763Y-49114056D01*
X59221343Y-49200178D01*
X59193528Y-49287566D01*
X59165323Y-49376202D01*
X59136735Y-49466067D01*
X59107768Y-49557143D01*
X59078429Y-49649412D01*
X59048724Y-49742856D01*
X59018658Y-49837457D01*
X58988237Y-49933195D01*
X58957467Y-50030054D01*
X58926354Y-50128014D01*
X58894903Y-50227057D01*
X58863120Y-50327166D01*
X58831011Y-50428322D01*
X58798582Y-50530506D01*
X58765839Y-50633701D01*
X58732786Y-50737888D01*
X58699431Y-50843048D01*
X58665778Y-50949165D01*
X58631834Y-51056218D01*
X58597605Y-51164191D01*
X58563095Y-51273065D01*
X58528312Y-51382821D01*
X58493260Y-51493442D01*
X58457945Y-51604909D01*
X58422374Y-51717203D01*
X58386552Y-51830307D01*
X58350484Y-51944203D01*
X58314177Y-52058871D01*
X58277636Y-52174295D01*
X58240867Y-52290455D01*
X58203876Y-52407333D01*
X58166669Y-52524911D01*
X58129251Y-52643171D01*
X58091628Y-52762095D01*
X58053806Y-52881664D01*
X58015791Y-53001860D01*
X57977588Y-53122664D01*
X57939204Y-53244059D01*
X57900643Y-53366027D01*
X57861913Y-53488548D01*
X57823017Y-53611605D01*
X57783963Y-53735180D01*
X57744757Y-53859254D01*
X57705403Y-53983809D01*
X57665907Y-54108826D01*
X57626276Y-54234289D01*
X57586515Y-54360177D01*
X57546630Y-54486473D01*
X57506627Y-54613159D01*
X57466512Y-54740216D01*
X57426289Y-54867627D01*
X57385966Y-54995372D01*
X57345547Y-55123434D01*
X57305039Y-55251795D01*
X57264447Y-55380436D01*
X57223778Y-55509338D01*
X57183036Y-55638485D01*
X57142228Y-55767856D01*
X57101359Y-55897435D01*
X57060435Y-56027203D01*
X57019463Y-56157141D01*
X56978447Y-56287232D01*
X56937394Y-56417457D01*
X56896309Y-56547798D01*
X56855198Y-56678236D01*
X56814066Y-56808753D01*
X56772921Y-56939332D01*
X56731767Y-57069954D01*
X56690609Y-57200600D01*
X56649455Y-57331252D01*
X56608310Y-57461893D01*
X56567179Y-57592503D01*
X56526068Y-57723065D01*
X56484983Y-57853561D01*
X56443930Y-57983971D01*
X56402914Y-58114278D01*
X56361942Y-58244464D01*
X56321018Y-58374509D01*
X56280150Y-58504397D01*
X56239342Y-58634109D01*
X56198601Y-58763626D01*
X56157931Y-58892931D01*
X56117340Y-59022004D01*
X56076832Y-59150828D01*
X56036414Y-59279385D01*
X55996091Y-59407656D01*
X55955869Y-59535623D01*
X55915754Y-59663267D01*
X55875752Y-59790571D01*
X55835867Y-59917517D01*
X55796107Y-60044085D01*
X55756477Y-60170258D01*
X55716982Y-60296017D01*
X55677629Y-60421345D01*
X55638423Y-60546222D01*
X55599369Y-60670632D01*
X55560475Y-60794554D01*
X55521745Y-60917972D01*
X55483185Y-61040867D01*
X55444802Y-61163220D01*
X55406600Y-61285014D01*
X55368586Y-61406230D01*
X55330765Y-61526849D01*
X55293143Y-61646855D01*
X55255726Y-61766227D01*
X55218520Y-61884949D01*
X55181530Y-62003002D01*
X55144762Y-62120367D01*
X55108222Y-62237027D01*
X55071916Y-62352963D01*
X55035850Y-62468157D01*
X55000029Y-62582590D01*
X54964459Y-62696244D01*
X54929146Y-62809102D01*
X54894095Y-62921144D01*
X54859313Y-63032353D01*
X54824805Y-63142711D01*
X54790576Y-63252198D01*
X54756634Y-63360797D01*
X54722983Y-63468490D01*
X54689629Y-63575258D01*
X54656578Y-63681083D01*
X54623836Y-63785946D01*
X54591409Y-63889831D01*
X54559301Y-63992717D01*
X54527520Y-64094588D01*
X54496071Y-64195424D01*
X54464959Y-64295208D01*
X54045760Y-65639467D01*
X45709338Y-65664861D01*
X45550365Y-65665354D01*
X45393405Y-65665855D01*
X45238445Y-65666365D01*
X45085470Y-65666884D01*
X44934467Y-65667412D01*
X44785423Y-65667949D01*
X44638324Y-65668496D01*
X44493156Y-65669053D01*
X44349907Y-65669619D01*
X44208562Y-65670195D01*
X44069108Y-65670782D01*
X43931531Y-65671379D01*
X43795818Y-65671986D01*
X43661956Y-65672604D01*
X43529930Y-65673234D01*
X43399727Y-65673874D01*
X43271334Y-65674526D01*
X43144738Y-65675189D01*
X43019923Y-65675864D01*
X42896878Y-65676551D01*
X42775589Y-65677251D01*
X42656041Y-65677962D01*
X42538222Y-65678686D01*
X42422117Y-65679422D01*
X42307714Y-65680172D01*
X42194999Y-65680934D01*
X42083958Y-65681710D01*
X41974577Y-65682499D01*
X41866844Y-65683302D01*
X41760744Y-65684119D01*
X41656265Y-65684949D01*
X41553392Y-65685794D01*
X41452112Y-65686654D01*
X41352411Y-65687527D01*
X41254276Y-65688416D01*
X41157694Y-65689319D01*
X41062650Y-65690238D01*
X40969132Y-65691172D01*
X40877125Y-65692121D01*
X40786617Y-65693087D01*
X40697593Y-65694068D01*
X40610040Y-65695065D01*
X40523945Y-65696078D01*
X40439294Y-65697108D01*
X40356073Y-65698155D01*
X40274269Y-65699218D01*
X40193868Y-65700299D01*
X40114858Y-65701396D01*
X40037223Y-65702511D01*
X39960952Y-65703644D01*
X39886029Y-65704794D01*
X39812442Y-65705963D01*
X39740177Y-65707149D01*
X39669221Y-65708354D01*
X39599560Y-65709578D01*
X39531180Y-65710820D01*
X39464069Y-65712081D01*
X39398211Y-65713361D01*
X39333595Y-65714661D01*
X39270205Y-65715980D01*
X39208030Y-65717319D01*
X39147055Y-65718677D01*
X39087266Y-65720056D01*
X39028651Y-65721455D01*
X38971195Y-65722874D01*
X38914885Y-65724314D01*
X38821628Y-65726434D01*
X38716478Y-65728538D01*
X38614045Y-65730695D01*
X38528940Y-65732977D01*
X38399562Y-65737509D01*
X38277380Y-65742206D01*
X38162647Y-65747080D01*
X38055613Y-65752148D01*
X37956529Y-65757422D01*
X37865647Y-65762917D01*
X37783218Y-65768648D01*
X37709495Y-65774628D01*
X37644727Y-65780871D01*
X37589167Y-65787392D01*
X37531555Y-65788070D01*
X37476911Y-65788806D01*
X37491824Y-65800496D01*
X37490211Y-65801093D01*
X37393877Y-65831198D01*
X37388383Y-65865598D01*
X35226947Y-65865598D01*
X33498569Y-64544104D01*
X43305614Y-64518912D01*
X43542543Y-64518290D01*
X43775910Y-64517660D01*
X44005740Y-64517022D01*
X44232056Y-64516375D01*
X44454880Y-64515720D01*
X44674238Y-64515054D01*
X44890151Y-64514379D01*
X45102643Y-64513694D01*
X45311738Y-64512999D01*
X45517459Y-64512292D01*
X45719830Y-64511574D01*
X45918873Y-64510845D01*
X46114612Y-64510104D01*
X46307071Y-64509351D01*
X46496273Y-64508585D01*
X46682241Y-64507806D01*
X46864998Y-64507014D01*
X47044569Y-64506208D01*
X47220976Y-64505389D01*
X47394243Y-64504554D01*
X47564393Y-64503706D01*
X47731449Y-64502842D01*
X47895435Y-64501962D01*
X48056375Y-64501067D01*
X48214291Y-64500156D01*
X48369207Y-64499229D01*
X48521147Y-64498284D01*
X48670133Y-64497322D01*
X48816190Y-64496343D01*
X48959340Y-64495346D01*
X49099607Y-64494331D01*
X49237014Y-64493297D01*
X49371585Y-64492245D01*
X49503343Y-64491172D01*
X49632311Y-64490081D01*
X49758513Y-64488969D01*
X49881972Y-64487837D01*
X50002712Y-64486684D01*
X50120756Y-64485511D01*
X50236127Y-64484316D01*
X50348848Y-64483099D01*
X50458944Y-64481860D01*
X50566437Y-64480598D01*
X50671350Y-64479314D01*
X50773708Y-64478007D01*
X50873534Y-64476676D01*
X50970850Y-64475321D01*
X51065681Y-64473942D01*
X51158049Y-64472538D01*
X51247978Y-64471110D01*
X51335492Y-64469656D01*
X51420614Y-64468177D01*
X51503366Y-64466671D01*
X51583774Y-64465140D01*
X51661859Y-64463581D01*
X51737645Y-64461996D01*
X51811156Y-64460383D01*
X51882415Y-64458743D01*
X51951446Y-64457074D01*
X52018271Y-64455377D01*
X52082915Y-64453651D01*
X52145400Y-64451896D01*
X52205749Y-64450111D01*
X52263988Y-64448297D01*
X52320138Y-64446453D01*
X52374223Y-64444577D01*
X52426266Y-64442671D01*
X52476291Y-64440734D01*
X52524321Y-64438765D01*
X52570380Y-64436764D01*
X52614491Y-64434731D01*
X52656677Y-64432665D01*
X52696962Y-64430566D01*
X52735369Y-64428434D01*
X52771921Y-64426268D01*
X52806642Y-64424068D01*
X52839555Y-64421834D01*
X52870684Y-64419564D01*
X52900052Y-64417260D01*
X52927682Y-64414920D01*
X52953597Y-64412544D01*
X52977822Y-64410132D01*
X53000379Y-64407684D01*
X53021292Y-64405198D01*
X53040584Y-64402676D01*
X53058279Y-64400116D01*
X53074400Y-64397517D01*
X53088970Y-64394881D01*
X53102012Y-64392206D01*
X53113551Y-64389492D01*
X53123609Y-64386738D01*
X53132210Y-64383945D01*
X53139377Y-64381112D01*
X53145134Y-64378238D01*
X53149503Y-64375323D01*
X53152509Y-64372368D01*
X53154175Y-64369371D01*
X53155165Y-64366322D01*
X53156896Y-64360909D01*
X53159363Y-64353147D01*
X53162559Y-64343054D01*
X53166480Y-64330647D01*
X53171120Y-64315943D01*
X53176474Y-64298959D01*
X53182536Y-64279712D01*
X53189302Y-64258219D01*
X53196765Y-64234497D01*
X53204921Y-64208564D01*
X53213764Y-64180437D01*
X53223289Y-64150132D01*
X53233490Y-64117666D01*
X53244363Y-64083058D01*
X53255901Y-64046323D01*
X53268099Y-64007479D01*
X53280952Y-63966543D01*
X53294455Y-63923532D01*
X53308602Y-63878463D01*
X53323388Y-63831354D01*
X53338808Y-63782221D01*
X53354856Y-63731081D01*
X53371527Y-63677952D01*
X53388815Y-63622850D01*
X53406716Y-63565793D01*
X53425223Y-63506798D01*
X53444332Y-63445881D01*
X53464036Y-63383061D01*
X53484332Y-63318353D01*
X53505213Y-63251776D01*
X53526674Y-63183346D01*
X53548710Y-63113080D01*
X53571315Y-63040995D01*
X53594484Y-62967109D01*
X53618211Y-62891438D01*
X53642492Y-62814000D01*
X53667321Y-62734812D01*
X53692692Y-62653890D01*
X53718601Y-62571253D01*
X53745041Y-62486916D01*
X53772008Y-62400897D01*
X53799496Y-62313213D01*
X53827500Y-62223882D01*
X53856014Y-62132919D01*
X53885034Y-62040344D01*
X53914553Y-61946171D01*
X53944567Y-61850419D01*
X53975069Y-61753105D01*
X54006055Y-61654246D01*
X54037520Y-61553858D01*
X54069457Y-61451959D01*
X54101862Y-61348566D01*
X54134730Y-61243696D01*
X54168054Y-61137366D01*
X54201830Y-61029594D01*
X54236052Y-60920396D01*
X54270715Y-60809789D01*
X54305813Y-60697790D01*
X54341342Y-60584417D01*
X54377295Y-60469687D01*
X54413668Y-60353617D01*
X54450454Y-60236223D01*
X54487650Y-60117523D01*
X54525249Y-59997534D01*
X54563246Y-59876274D01*
X54601635Y-59753758D01*
X54640412Y-59630005D01*
X54679571Y-59505031D01*
X54719106Y-59378853D01*
X54759013Y-59251489D01*
X54799285Y-59122955D01*
X54839918Y-58993269D01*
X54880907Y-58862448D01*
X54922245Y-58730509D01*
X54963927Y-58597468D01*
X55005949Y-58463344D01*
X55048305Y-58328152D01*
X55090988Y-58191911D01*
X55133995Y-58054637D01*
X55177320Y-57916348D01*
X55220957Y-57777059D01*
X55264901Y-57636790D01*
X55309147Y-57495555D01*
X55353689Y-57353374D01*
X55398522Y-57210262D01*
X55443640Y-57066237D01*
X55489039Y-56921317D01*
X55534713Y-56775517D01*
X55580656Y-56628855D01*
X55626863Y-56481348D01*
X55673329Y-56333014D01*
X55720049Y-56183869D01*
X55767016Y-56033930D01*
X55814227Y-55883215D01*
X55861675Y-55731741D01*
X55909355Y-55579524D01*
X55957261Y-55426582D01*
X56005389Y-55272932D01*
X56053733Y-55118591D01*
X56102288Y-54963576D01*
X56151048Y-54807904D01*
X56200008Y-54651592D01*
X56249162Y-54494658D01*
X56298506Y-54337117D01*
X56348033Y-54178989D01*
X56397739Y-54020289D01*
X56447618Y-53861034D01*
X56497665Y-53701242D01*
X56547875Y-53540930D01*
X56598087Y-53380619D01*
X56648141Y-53220830D01*
X56698033Y-53061580D01*
X56747756Y-52902886D01*
X56797306Y-52744765D01*
X56846676Y-52587234D01*
X56895863Y-52430311D01*
X56944859Y-52274012D01*
X56993660Y-52118355D01*
X57042261Y-51963356D01*
X57090655Y-51809033D01*
X57138838Y-51655402D01*
X57186805Y-51502481D01*
X57234549Y-51350287D01*
X57282066Y-51198837D01*
X57329349Y-51048148D01*
X57376395Y-50898237D01*
X57423197Y-50749121D01*
X57469749Y-50600817D01*
X57516047Y-50453343D01*
X57562085Y-50306714D01*
X57607858Y-50160950D01*
X57653360Y-50016065D01*
X57698587Y-49872079D01*
X57743531Y-49729007D01*
X57788189Y-49586866D01*
X57832555Y-49445675D01*
X57876623Y-49305449D01*
X57920388Y-49166206D01*
X57963844Y-49027964D01*
X58006987Y-48890738D01*
X58049810Y-48754547D01*
X58092309Y-48619406D01*
X58134478Y-48485334D01*
X58176312Y-48352348D01*
X58217805Y-48220463D01*
X58258952Y-48089699D01*
X58299747Y-47960071D01*
X58340185Y-47831596D01*
X58380261Y-47704292D01*
X58419969Y-47578177D01*
X58459304Y-47453266D01*
X58498261Y-47329577D01*
X58536834Y-47207126D01*
X58575017Y-47085933D01*
X58612806Y-46966012D01*
X58650195Y-46847381D01*
X58687178Y-46730058D01*
X58723751Y-46614059D01*
X58759907Y-46499402D01*
X58795642Y-46386103D01*
X58830950Y-46274180D01*
X58865825Y-46163650D01*
X58900263Y-46054529D01*
X58934257Y-45946835D01*
X58967803Y-45840585D01*
X59000895Y-45735796D01*
X59033527Y-45632485D01*
X59065695Y-45530669D01*
X59097393Y-45430365D01*
X59128615Y-45331591D01*
X59159356Y-45234363D01*
X59189611Y-45138698D01*
X59219375Y-45044614D01*
X59248641Y-44952128D01*
X59277405Y-44861256D01*
X59305661Y-44772016D01*
X59333403Y-44684424D01*
X59360627Y-44598499D01*
X59387327Y-44514256D01*
X59413498Y-44431713D01*
X59439134Y-44350888D01*
X59464229Y-44271796D01*
X59488779Y-44194456D01*
X59512778Y-44118884D01*
X59536221Y-44045098D01*
X59559102Y-43973114D01*
X59581415Y-43902949D01*
X59603157Y-43834621D01*
X59624320Y-43768147D01*
X59644900Y-43703543D01*
X59664891Y-43640827D01*
X59684288Y-43580016D01*
X59703086Y-43521127D01*
X59721279Y-43464178D01*
X59738861Y-43409184D01*
X59755828Y-43356163D01*
X59772174Y-43305133D01*
X59787893Y-43256110D01*
X59802981Y-43209111D01*
X59817431Y-43164154D01*
X59831239Y-43121255D01*
X59844398Y-43080432D01*
X59856904Y-43041702D01*
X59868752Y-43005081D01*
X59879935Y-42970587D01*
X59890449Y-42938237D01*
X59900288Y-42908048D01*
X59909446Y-42880037D01*
X59917919Y-42854222D01*
X59925700Y-42830618D01*
X59932785Y-42809244D01*
X59939169Y-42790116D01*
X59944844Y-42773252D01*
X59949808Y-42758667D01*
X59954053Y-42746381D01*
X59957574Y-42736409D01*
X59960367Y-42728769D01*
X59962425Y-42723478D01*
X59963744Y-42720552D01*
X59964691Y-42720092D01*
X59966142Y-42721249D01*
G37*
D11*
X60982092Y-64685560D02*
G75*
G02*
X60882092Y-64685560I-50000J0D01*
G01*
X60882092Y-64685560D02*
G75*
G02*
X60982092Y-64685560I50000J0D01*
G01*
M02*
