G04 #@! TF.GenerationSoftware,KiCad,Pcbnew,8.0.3*
G04 #@! TF.CreationDate,2024-07-11T09:34:09-07:00*
G04 #@! TF.ProjectId,mozilla-star-badge,6d6f7a69-6c6c-4612-9d73-7461722d6261,rev?*
G04 #@! TF.SameCoordinates,Original*
G04 #@! TF.FileFunction,Copper,L1,Top*
G04 #@! TF.FilePolarity,Positive*
%FSLAX46Y46*%
G04 Gerber Fmt 4.6, Leading zero omitted, Abs format (unit mm)*
G04 Created by KiCad (PCBNEW 8.0.3) date 2024-07-11 09:34:09*
%MOMM*%
%LPD*%
G01*
G04 APERTURE LIST*
G04 Aperture macros list*
%AMRoundRect*
0 Rectangle with rounded corners*
0 $1 Rounding radius*
0 $2 $3 $4 $5 $6 $7 $8 $9 X,Y pos of 4 corners*
0 Add a 4 corners polygon primitive as box body*
4,1,4,$2,$3,$4,$5,$6,$7,$8,$9,$2,$3,0*
0 Add four circle primitives for the rounded corners*
1,1,$1+$1,$2,$3*
1,1,$1+$1,$4,$5*
1,1,$1+$1,$6,$7*
1,1,$1+$1,$8,$9*
0 Add four rect primitives between the rounded corners*
20,1,$1+$1,$2,$3,$4,$5,0*
20,1,$1+$1,$4,$5,$6,$7,0*
20,1,$1+$1,$6,$7,$8,$9,0*
20,1,$1+$1,$8,$9,$2,$3,0*%
G04 Aperture macros list end*
G04 #@! TA.AperFunction,SMDPad,CuDef*
%ADD10RoundRect,0.160000X0.194851X0.275933X-0.337635X0.010446X-0.194851X-0.275933X0.337635X-0.010446X0*%
G04 #@! TD*
G04 #@! TA.AperFunction,ViaPad*
%ADD11C,0.600000*%
G04 #@! TD*
G04 #@! TA.AperFunction,ViaPad*
%ADD12C,0.750000*%
G04 #@! TD*
G04 #@! TA.AperFunction,Conductor*
%ADD13C,0.250000*%
G04 #@! TD*
G04 APERTURE END LIST*
D10*
X60379470Y-64961087D03*
X59220530Y-65538913D03*
D11*
X48800000Y-73700000D03*
X48800000Y-70300000D03*
X48800000Y-72000000D03*
X70800000Y-73700000D03*
X70800000Y-70300000D03*
X70800000Y-72000000D03*
D12*
X50200000Y-66300000D03*
X64850000Y-63500000D03*
D11*
X60000000Y-51900000D03*
X58900000Y-51900000D03*
X60000000Y-53300000D03*
X60000000Y-50500000D03*
X61100000Y-51900000D03*
D13*
X50200000Y-66300000D02*
X57750000Y-66300000D01*
X57750000Y-66300000D02*
X59287650Y-65505448D01*
X63250000Y-63500000D02*
X64850000Y-63500000D01*
X60312350Y-64994552D02*
X63250000Y-63500000D01*
G04 #@! TA.AperFunction,Conductor*
G36*
X59916941Y-39643772D02*
G01*
X59923553Y-39644203D01*
X59938552Y-39646106D01*
X59941334Y-39646632D01*
X59946846Y-39647677D01*
X59961011Y-39651235D01*
X59972341Y-39654805D01*
X59985251Y-39659678D01*
X60000337Y-39666356D01*
X60011796Y-39672156D01*
X60030932Y-39683126D01*
X60040900Y-39689491D01*
X60063911Y-39705782D01*
X60072445Y-39712400D01*
X60098922Y-39734845D01*
X60106142Y-39741474D01*
X60135489Y-39770642D01*
X60141573Y-39777140D01*
X60173199Y-39813444D01*
X60178297Y-39819696D01*
X60211574Y-39863335D01*
X60215841Y-39869289D01*
X60250228Y-39920399D01*
X60253814Y-39926053D01*
X60288789Y-39984634D01*
X60291799Y-39989970D01*
X60326910Y-40055984D01*
X60326925Y-40056011D01*
X60329455Y-40061040D01*
X60364361Y-40134532D01*
X60366489Y-40139267D01*
X60400847Y-40220181D01*
X60402641Y-40224644D01*
X60436100Y-40312798D01*
X60437612Y-40317007D01*
X60469109Y-40409966D01*
X60470947Y-40415389D01*
X60471610Y-40417402D01*
X67682883Y-62960664D01*
X67701911Y-63020146D01*
X67704576Y-63037351D01*
X67705469Y-63037176D01*
X67707825Y-63049160D01*
X67721023Y-63081226D01*
X67724460Y-63090638D01*
X67735027Y-63123671D01*
X67740040Y-63132719D01*
X67745755Y-63141312D01*
X67745757Y-63141314D01*
X67756283Y-63151887D01*
X67770223Y-63165888D01*
X67777001Y-63173270D01*
X67799402Y-63199742D01*
X67799403Y-63199743D01*
X67807494Y-63206181D01*
X67816063Y-63211934D01*
X67816066Y-63211935D01*
X67816068Y-63211937D01*
X67848079Y-63225279D01*
X67857160Y-63229503D01*
X67887988Y-63245389D01*
X67887995Y-63245389D01*
X67897932Y-63248241D01*
X67908048Y-63250277D01*
X67908049Y-63250277D01*
X67908052Y-63250278D01*
X67942746Y-63250354D01*
X67952722Y-63250780D01*
X67987299Y-63253661D01*
X67987302Y-63253660D01*
X67999433Y-63252281D01*
X67999535Y-63253185D01*
X68016743Y-63250519D01*
X88444977Y-63295888D01*
X88447548Y-63295920D01*
X88546148Y-63298203D01*
X88551603Y-63298450D01*
X88639010Y-63304363D01*
X88644891Y-63304903D01*
X88724737Y-63314178D01*
X88731134Y-63315092D01*
X88803224Y-63327317D01*
X88810133Y-63328693D01*
X88874246Y-63343377D01*
X88881726Y-63345339D01*
X88937736Y-63361926D01*
X88945828Y-63364629D01*
X88993659Y-63382464D01*
X89002342Y-63386084D01*
X89041945Y-63404393D01*
X89051184Y-63409144D01*
X89082819Y-63427134D01*
X89092508Y-63433254D01*
X89116508Y-63450014D01*
X89126445Y-63457732D01*
X89143599Y-63472510D01*
X89153452Y-63481993D01*
X89164847Y-63494241D01*
X89174193Y-63505563D01*
X89181198Y-63515153D01*
X89189537Y-63528211D01*
X89193652Y-63535640D01*
X89200480Y-63550093D01*
X89203012Y-63556491D01*
X89207956Y-63571827D01*
X89209712Y-63578797D01*
X89212595Y-63594392D01*
X89213713Y-63603757D01*
X89214586Y-63618977D01*
X89214530Y-63632294D01*
X89213640Y-63646612D01*
X89211418Y-63665047D01*
X89209119Y-63678153D01*
X89203555Y-63702207D01*
X89200224Y-63713945D01*
X89190146Y-63743780D01*
X89186124Y-63754132D01*
X89170561Y-63789422D01*
X89166124Y-63798468D01*
X89144291Y-63838756D01*
X89139649Y-63846617D01*
X89110947Y-63891370D01*
X89106242Y-63898193D01*
X89070276Y-63946791D01*
X89065604Y-63952718D01*
X89022076Y-64004608D01*
X89017506Y-64009758D01*
X88966258Y-64064382D01*
X88961825Y-64068872D01*
X88919885Y-64109241D01*
X88902672Y-64125809D01*
X88898388Y-64129743D01*
X88831262Y-64188545D01*
X88827134Y-64192005D01*
X88749097Y-64254589D01*
X88747100Y-64256157D01*
X72387841Y-76834364D01*
X72371163Y-76845178D01*
X72371005Y-76845262D01*
X72337774Y-76872759D01*
X72334311Y-76875522D01*
X72300115Y-76901815D01*
X72299989Y-76901960D01*
X72299013Y-76902909D01*
X72298502Y-76903538D01*
X72295657Y-76906908D01*
X72295119Y-76907522D01*
X72294343Y-76908650D01*
X72294226Y-76908793D01*
X72274052Y-76946903D01*
X72271910Y-76950781D01*
X72250374Y-76988168D01*
X72250314Y-76988346D01*
X72249779Y-76989589D01*
X72249544Y-76990376D01*
X72248202Y-76994587D01*
X72247941Y-76995357D01*
X72247658Y-76996685D01*
X72247603Y-76996868D01*
X72243547Y-77039809D01*
X72243052Y-77044210D01*
X72237464Y-77086983D01*
X72237476Y-77087159D01*
X72237457Y-77088503D01*
X72237541Y-77089316D01*
X72237913Y-77093725D01*
X72237969Y-77094572D01*
X72238217Y-77095916D01*
X72238233Y-77096077D01*
X72250915Y-77137286D01*
X72252143Y-77141546D01*
X72263353Y-77183217D01*
X72263426Y-77183365D01*
X72270781Y-77201842D01*
X79193235Y-99696327D01*
X79193853Y-99698398D01*
X79223317Y-99800435D01*
X79224501Y-99804839D01*
X79237864Y-99858438D01*
X79247715Y-99897951D01*
X79247838Y-99898442D01*
X79248929Y-99903218D01*
X79267206Y-99991200D01*
X79268170Y-99996393D01*
X79281617Y-100078556D01*
X79282411Y-100084226D01*
X79291282Y-100160321D01*
X79291847Y-100166520D01*
X79296442Y-100236205D01*
X79296704Y-100243002D01*
X79297397Y-100306111D01*
X79297254Y-100313568D01*
X79294489Y-100369757D01*
X79293815Y-100377929D01*
X79288134Y-100426976D01*
X79286768Y-100435913D01*
X79278815Y-100477663D01*
X79276559Y-100487364D01*
X79267089Y-100521771D01*
X79263712Y-100532214D01*
X79253552Y-100559444D01*
X79248810Y-100570485D01*
X79238819Y-100590955D01*
X79232475Y-100602383D01*
X79223372Y-100616918D01*
X79215262Y-100628372D01*
X79207484Y-100638134D01*
X79197561Y-100649163D01*
X79191089Y-100655544D01*
X79179505Y-100665629D01*
X79173695Y-100670086D01*
X79160797Y-100678754D01*
X79154462Y-100682457D01*
X79140730Y-100689379D01*
X79132311Y-100692987D01*
X79118358Y-100698002D01*
X79106289Y-100701541D01*
X79092598Y-100704725D01*
X79075499Y-100707692D01*
X79062516Y-100709245D01*
X79039522Y-100710772D01*
X79027490Y-100710986D01*
X78998085Y-100710081D01*
X78987140Y-100709258D01*
X78951206Y-100704950D01*
X78941372Y-100703369D01*
X78922683Y-100699587D01*
X78899084Y-100694811D01*
X78890312Y-100692700D01*
X78841996Y-100679196D01*
X78834184Y-100676732D01*
X78780217Y-100657726D01*
X78773277Y-100655045D01*
X78714060Y-100630105D01*
X78707889Y-100627305D01*
X78643871Y-100596122D01*
X78638378Y-100593274D01*
X78569893Y-100555570D01*
X78564982Y-100552717D01*
X78492439Y-100508324D01*
X78488023Y-100505492D01*
X78411704Y-100454229D01*
X78407729Y-100451444D01*
X78378435Y-100430057D01*
X78325199Y-100391190D01*
X78323448Y-100389887D01*
X60095941Y-86558822D01*
X60075229Y-86538131D01*
X60073001Y-86536160D01*
X60049587Y-86522507D01*
X60037092Y-86514168D01*
X60015498Y-86497782D01*
X60012845Y-86496491D01*
X59989721Y-86486927D01*
X59986912Y-86485959D01*
X59960043Y-86482303D01*
X59945323Y-86479383D01*
X59919104Y-86472510D01*
X59916161Y-86472333D01*
X59891114Y-86472345D01*
X59888172Y-86472525D01*
X59868559Y-86477689D01*
X59861953Y-86479428D01*
X59847236Y-86482364D01*
X59820370Y-86486048D01*
X59817588Y-86487010D01*
X59794455Y-86496606D01*
X59791799Y-86497902D01*
X59770221Y-86514310D01*
X59757751Y-86522652D01*
X59734338Y-86536339D01*
X59732124Y-86538302D01*
X59711421Y-86559026D01*
X41666752Y-100281551D01*
X41664930Y-100282910D01*
X41583349Y-100342622D01*
X41579411Y-100345389D01*
X41503885Y-100396289D01*
X41499510Y-100399106D01*
X41427785Y-100443185D01*
X41422906Y-100446032D01*
X41355232Y-100483487D01*
X41349776Y-100486332D01*
X41286528Y-100517343D01*
X41280406Y-100520141D01*
X41221965Y-100544958D01*
X41215072Y-100547646D01*
X41161858Y-100566584D01*
X41154095Y-100569062D01*
X41106539Y-100582540D01*
X41097800Y-100584678D01*
X41056288Y-100593249D01*
X41046494Y-100594864D01*
X41020831Y-100598049D01*
X41011368Y-100599223D01*
X41000444Y-100600090D01*
X40971874Y-100601091D01*
X40959833Y-100600928D01*
X40937713Y-100599552D01*
X40924699Y-100598049D01*
X40920498Y-100597337D01*
X40908612Y-100595323D01*
X40894864Y-100592180D01*
X40883825Y-100588986D01*
X40869760Y-100583981D01*
X40862466Y-100580879D01*
X40848620Y-100573940D01*
X40843388Y-100570895D01*
X40830386Y-100562183D01*
X40825658Y-100558563D01*
X40813956Y-100548382D01*
X40808462Y-100542962D01*
X40798465Y-100531831D01*
X40791563Y-100523145D01*
X40783413Y-100511593D01*
X40775031Y-100498142D01*
X40768677Y-100486625D01*
X40767878Y-100484976D01*
X40763249Y-100475417D01*
X40759304Y-100467272D01*
X40754570Y-100456144D01*
X40744945Y-100430057D01*
X40741591Y-100419551D01*
X40737639Y-100404961D01*
X40732569Y-100386238D01*
X40730348Y-100376495D01*
X40729841Y-100373769D01*
X40722792Y-100335851D01*
X40721463Y-100326891D01*
X40716497Y-100282229D01*
X40716129Y-100278922D01*
X40715495Y-100270767D01*
X40713040Y-100215652D01*
X40712933Y-100208205D01*
X40713905Y-100146172D01*
X40714195Y-100139456D01*
X40719036Y-100070853D01*
X40719629Y-100064676D01*
X40725049Y-100019950D01*
X40728708Y-99989753D01*
X40729516Y-99984162D01*
X40743150Y-99903098D01*
X40744122Y-99897987D01*
X40762545Y-99811166D01*
X40763647Y-99806434D01*
X40774650Y-99763059D01*
X40787077Y-99714071D01*
X40788261Y-99709737D01*
X40817806Y-99608913D01*
X40818411Y-99606916D01*
X44888831Y-86559026D01*
X47750962Y-77384350D01*
X47758242Y-77366198D01*
X47758780Y-77365109D01*
X47758785Y-77365104D01*
X47769895Y-77323972D01*
X47771223Y-77319404D01*
X47783919Y-77278711D01*
X47783919Y-77278709D01*
X47784049Y-77277493D01*
X47784270Y-77276311D01*
X47784276Y-77276227D01*
X47784690Y-77271468D01*
X47784704Y-77271335D01*
X47784690Y-77270106D01*
X47784770Y-77268903D01*
X47784772Y-77268898D01*
X47779295Y-77226640D01*
X47778777Y-77221933D01*
X47774932Y-77179462D01*
X47774927Y-77179453D01*
X47774587Y-77178296D01*
X47774336Y-77177103D01*
X47774299Y-77176994D01*
X47772866Y-77172456D01*
X47772832Y-77172341D01*
X47772354Y-77171223D01*
X47771965Y-77170072D01*
X47771965Y-77170069D01*
X47755574Y-77141546D01*
X47750735Y-77133125D01*
X47748449Y-77128965D01*
X47728648Y-77091207D01*
X47728647Y-77091205D01*
X47727871Y-77090245D01*
X47727194Y-77089257D01*
X47727142Y-77089197D01*
X47724073Y-77085543D01*
X47723986Y-77085435D01*
X47723112Y-77084581D01*
X47722312Y-77083665D01*
X47688559Y-77057656D01*
X47684831Y-77054667D01*
X47672291Y-77044210D01*
X47652113Y-77027383D01*
X47652112Y-77027382D01*
X47652110Y-77027381D01*
X47651025Y-77026790D01*
X47634654Y-77016120D01*
X34814115Y-67137234D01*
X33727576Y-66300000D01*
X49319678Y-66300000D01*
X49338915Y-66483029D01*
X49338916Y-66483032D01*
X49395783Y-66658053D01*
X49395786Y-66658059D01*
X49487805Y-66817440D01*
X49578438Y-66918099D01*
X49610949Y-66954206D01*
X49610951Y-66954208D01*
X49759834Y-67062378D01*
X49759835Y-67062378D01*
X49759839Y-67062381D01*
X49896953Y-67123428D01*
X49927961Y-67137234D01*
X49927966Y-67137236D01*
X50107981Y-67175500D01*
X50292019Y-67175500D01*
X50472034Y-67137236D01*
X50640161Y-67062381D01*
X50789050Y-66954207D01*
X50789049Y-66954207D01*
X50794308Y-66950387D01*
X50795798Y-66952438D01*
X50848537Y-66927123D01*
X50868531Y-66925500D01*
X57707938Y-66925500D01*
X57721808Y-66926277D01*
X57741244Y-66928466D01*
X57741245Y-66928465D01*
X57741246Y-66928466D01*
X57767156Y-66926278D01*
X57771160Y-66925939D01*
X57781593Y-66925500D01*
X57811606Y-66925500D01*
X57830782Y-66921685D01*
X57844515Y-66919745D01*
X57864020Y-66918099D01*
X57892888Y-66909778D01*
X57903007Y-66907319D01*
X57932452Y-66901463D01*
X57950525Y-66893976D01*
X57963623Y-66889392D01*
X57982415Y-66883977D01*
X58009104Y-66870185D01*
X58018552Y-66865798D01*
X58046286Y-66854311D01*
X58062544Y-66843447D01*
X58074503Y-66836391D01*
X58783598Y-66469979D01*
X58852191Y-66456692D01*
X58879864Y-66462549D01*
X58892153Y-66466661D01*
X58892157Y-66466661D01*
X58892160Y-66466662D01*
X59052019Y-66479675D01*
X59052020Y-66479675D01*
X59052021Y-66479674D01*
X59052023Y-66479675D01*
X59210362Y-66454052D01*
X59272620Y-66429769D01*
X59900649Y-66116644D01*
X59957512Y-66081536D01*
X59957516Y-66081531D01*
X59957519Y-66081530D01*
X60006932Y-66034130D01*
X60073266Y-65970502D01*
X60081254Y-65957887D01*
X60133749Y-65911781D01*
X60196077Y-65900637D01*
X60210963Y-65901849D01*
X60369302Y-65876226D01*
X60431560Y-65851943D01*
X61059589Y-65538818D01*
X61116452Y-65503710D01*
X61232206Y-65392676D01*
X61318025Y-65257167D01*
X61331134Y-65217987D01*
X61371070Y-65160660D01*
X61392492Y-65146817D01*
X63373470Y-64138980D01*
X63429697Y-64125500D01*
X64181469Y-64125500D01*
X64248508Y-64145185D01*
X64255559Y-64150569D01*
X64255692Y-64150387D01*
X64409834Y-64262378D01*
X64409835Y-64262378D01*
X64409839Y-64262381D01*
X64545623Y-64322836D01*
X64577961Y-64337234D01*
X64577966Y-64337236D01*
X64757981Y-64375500D01*
X64942019Y-64375500D01*
X65122034Y-64337236D01*
X65290161Y-64262381D01*
X65439050Y-64154207D01*
X65562195Y-64017440D01*
X65654214Y-63858059D01*
X65711085Y-63683029D01*
X65730322Y-63500000D01*
X65711085Y-63316971D01*
X65665182Y-63175696D01*
X65654216Y-63141946D01*
X65654213Y-63141940D01*
X65653852Y-63141314D01*
X65562195Y-62982560D01*
X65439050Y-62845793D01*
X65439048Y-62845791D01*
X65290165Y-62737621D01*
X65290162Y-62737619D01*
X65290161Y-62737619D01*
X65229112Y-62710438D01*
X65122038Y-62662765D01*
X65122033Y-62662763D01*
X64942019Y-62624500D01*
X64757981Y-62624500D01*
X64577966Y-62662763D01*
X64577961Y-62662765D01*
X64409839Y-62737619D01*
X64409834Y-62737621D01*
X64255692Y-62849613D01*
X64254201Y-62847561D01*
X64201463Y-62872877D01*
X64181469Y-62874500D01*
X63294434Y-62874500D01*
X63279786Y-62873632D01*
X63273440Y-62872877D01*
X63262724Y-62871602D01*
X63262723Y-62871602D01*
X63246396Y-62872877D01*
X63230425Y-62874124D01*
X63220774Y-62874500D01*
X63188388Y-62874500D01*
X63171546Y-62877850D01*
X63157019Y-62879855D01*
X63139888Y-62881193D01*
X63139878Y-62881195D01*
X63108702Y-62889966D01*
X63099318Y-62892216D01*
X63067552Y-62898535D01*
X63067548Y-62898537D01*
X63051665Y-62905115D01*
X63037810Y-62909914D01*
X63021276Y-62914566D01*
X62992402Y-62929256D01*
X62983633Y-62933295D01*
X62979215Y-62935125D01*
X62953712Y-62945689D01*
X62939423Y-62955236D01*
X62926766Y-62962648D01*
X60823165Y-64032872D01*
X60754488Y-64045726D01*
X60727596Y-64039946D01*
X60707853Y-64033340D01*
X60707838Y-64033337D01*
X60547980Y-64020324D01*
X60547979Y-64020324D01*
X60467568Y-64033337D01*
X60389638Y-64045948D01*
X60389635Y-64045949D01*
X60389634Y-64045949D01*
X60327376Y-64070232D01*
X59699348Y-64383357D01*
X59642486Y-64418465D01*
X59642480Y-64418469D01*
X59526734Y-64529496D01*
X59526733Y-64529498D01*
X59518741Y-64542118D01*
X59466241Y-64588222D01*
X59403926Y-64599362D01*
X59389043Y-64598150D01*
X59389039Y-64598150D01*
X59299108Y-64612703D01*
X59230698Y-64623774D01*
X59230695Y-64623775D01*
X59230694Y-64623775D01*
X59168436Y-64648058D01*
X58540408Y-64961183D01*
X58483546Y-64996291D01*
X58483545Y-64996291D01*
X58367795Y-65107322D01*
X58281975Y-65242833D01*
X58266303Y-65289670D01*
X58226362Y-65346998D01*
X58205635Y-65360484D01*
X57624722Y-65660662D01*
X57567798Y-65674500D01*
X50868531Y-65674500D01*
X50801492Y-65654815D01*
X50794440Y-65649430D01*
X50794308Y-65649613D01*
X50640165Y-65537621D01*
X50640162Y-65537619D01*
X50640161Y-65537619D01*
X50563996Y-65503708D01*
X50472038Y-65462765D01*
X50472033Y-65462763D01*
X50292019Y-65424500D01*
X50107981Y-65424500D01*
X49927966Y-65462763D01*
X49927961Y-65462765D01*
X49759839Y-65537619D01*
X49759834Y-65537621D01*
X49610951Y-65645791D01*
X49610949Y-65645793D01*
X49487804Y-65782561D01*
X49395786Y-65941940D01*
X49395783Y-65941946D01*
X49339022Y-66116642D01*
X49338915Y-66116971D01*
X49319678Y-66300000D01*
X33727576Y-66300000D01*
X31098910Y-64274478D01*
X31096926Y-64272915D01*
X31017918Y-64209415D01*
X31013804Y-64205959D01*
X30993967Y-64188545D01*
X30959729Y-64158488D01*
X30945791Y-64146252D01*
X30941516Y-64142318D01*
X30881502Y-64084437D01*
X30877072Y-64079941D01*
X30825002Y-64024336D01*
X30820446Y-64019192D01*
X30776175Y-63966327D01*
X30771525Y-63960420D01*
X30734848Y-63910800D01*
X30730165Y-63904002D01*
X30721676Y-63890756D01*
X30700808Y-63858196D01*
X30696204Y-63850397D01*
X30673741Y-63808947D01*
X30669355Y-63800008D01*
X30653253Y-63763543D01*
X30649253Y-63753269D01*
X30647820Y-63749041D01*
X30638737Y-63722247D01*
X30635421Y-63710626D01*
X30629516Y-63685307D01*
X30627208Y-63672318D01*
X30624782Y-63652620D01*
X30623857Y-63638423D01*
X30623745Y-63623829D01*
X30624552Y-63608740D01*
X30625767Y-63598169D01*
X30628552Y-63582684D01*
X30630545Y-63574594D01*
X30635372Y-63559326D01*
X30638240Y-63551952D01*
X30644936Y-63537548D01*
X30649447Y-63529280D01*
X30657667Y-63516224D01*
X30665064Y-63505953D01*
X30674316Y-63494592D01*
X30686093Y-63481763D01*
X30695878Y-63472220D01*
X30713376Y-63456946D01*
X30723269Y-63449162D01*
X30747626Y-63431928D01*
X30757296Y-63425741D01*
X30789232Y-63407337D01*
X30798487Y-63402512D01*
X30838452Y-63383779D01*
X30847195Y-63380084D01*
X30895341Y-63361870D01*
X30903486Y-63359107D01*
X30959904Y-63342136D01*
X30967430Y-63340129D01*
X31032048Y-63325067D01*
X31039019Y-63323653D01*
X31111612Y-63311089D01*
X31118032Y-63310151D01*
X31198498Y-63300558D01*
X31204425Y-63299997D01*
X31292538Y-63293805D01*
X31298039Y-63293541D01*
X31397427Y-63291015D01*
X31399971Y-63290977D01*
X51992914Y-63201626D01*
X52010433Y-63204261D01*
X52010511Y-63203538D01*
X52022652Y-63204837D01*
X52056336Y-63201803D01*
X52066914Y-63201305D01*
X52100729Y-63201159D01*
X52100734Y-63201156D01*
X52111447Y-63198978D01*
X52121902Y-63195901D01*
X52121905Y-63195901D01*
X52151862Y-63180209D01*
X52161445Y-63175699D01*
X52192632Y-63162624D01*
X52192634Y-63162620D01*
X52201693Y-63156512D01*
X52210185Y-63149661D01*
X52231857Y-63123699D01*
X52238984Y-63115865D01*
X52262792Y-63091852D01*
X52262794Y-63091845D01*
X52268816Y-63082749D01*
X52274043Y-63073164D01*
X52274047Y-63073160D01*
X52284136Y-63040877D01*
X52287718Y-63030925D01*
X52300528Y-62999619D01*
X52300527Y-62999613D01*
X52302859Y-62987627D01*
X52303573Y-62987766D01*
X52306206Y-62970256D01*
X59356523Y-40410916D01*
X59357163Y-40408933D01*
X59389688Y-40310828D01*
X59391156Y-40306656D01*
X59423901Y-40218741D01*
X59425638Y-40214342D01*
X59459289Y-40133786D01*
X59461396Y-40129031D01*
X59495609Y-40055984D01*
X59498126Y-40050914D01*
X59532625Y-39985277D01*
X59535605Y-39979936D01*
X59569962Y-39921825D01*
X59573531Y-39916149D01*
X59607309Y-39865551D01*
X59611590Y-39859538D01*
X59644259Y-39816448D01*
X59649378Y-39810140D01*
X59680405Y-39774388D01*
X59686517Y-39767841D01*
X59715253Y-39739230D01*
X59722539Y-39732536D01*
X59748373Y-39710647D01*
X59756993Y-39703974D01*
X59779356Y-39688192D01*
X59789443Y-39681781D01*
X59807898Y-39671267D01*
X59819511Y-39665436D01*
X59833970Y-39659104D01*
X59847030Y-39654239D01*
X59857821Y-39650897D01*
X59872082Y-39647393D01*
X59880054Y-39645930D01*
X59895130Y-39644107D01*
X59901623Y-39643725D01*
X59916941Y-39643772D01*
G37*
G04 #@! TD.AperFunction*
M02*
