G04 #@! TF.GenerationSoftware,KiCad,Pcbnew,8.0.3*
G04 #@! TF.CreationDate,2024-07-11T09:34:10-07:00*
G04 #@! TF.ProjectId,mozilla-star-badge,6d6f7a69-6c6c-4612-9d73-7461722d6261,rev?*
G04 #@! TF.SameCoordinates,Original*
G04 #@! TF.FileFunction,Legend,Bot*
G04 #@! TF.FilePolarity,Positive*
%FSLAX46Y46*%
G04 Gerber Fmt 4.6, Leading zero omitted, Abs format (unit mm)*
G04 Created by KiCad (PCBNEW 8.0.3) date 2024-07-11 09:34:10*
%MOMM*%
%LPD*%
G01*
G04 APERTURE LIST*
%ADD10C,0.100000*%
%ADD11C,0.120000*%
G04 APERTURE END LIST*
D10*
X61895238Y-62362180D02*
X61942857Y-62409800D01*
X61942857Y-62409800D02*
X62085714Y-62457419D01*
X62085714Y-62457419D02*
X62180952Y-62457419D01*
X62180952Y-62457419D02*
X62323809Y-62409800D01*
X62323809Y-62409800D02*
X62419047Y-62314561D01*
X62419047Y-62314561D02*
X62466666Y-62219323D01*
X62466666Y-62219323D02*
X62514285Y-62028847D01*
X62514285Y-62028847D02*
X62514285Y-61885990D01*
X62514285Y-61885990D02*
X62466666Y-61695514D01*
X62466666Y-61695514D02*
X62419047Y-61600276D01*
X62419047Y-61600276D02*
X62323809Y-61505038D01*
X62323809Y-61505038D02*
X62180952Y-61457419D01*
X62180952Y-61457419D02*
X62085714Y-61457419D01*
X62085714Y-61457419D02*
X61942857Y-61505038D01*
X61942857Y-61505038D02*
X61895238Y-61552657D01*
X60895238Y-62457419D02*
X61228571Y-61981228D01*
X61466666Y-62457419D02*
X61466666Y-61457419D01*
X61466666Y-61457419D02*
X61085714Y-61457419D01*
X61085714Y-61457419D02*
X60990476Y-61505038D01*
X60990476Y-61505038D02*
X60942857Y-61552657D01*
X60942857Y-61552657D02*
X60895238Y-61647895D01*
X60895238Y-61647895D02*
X60895238Y-61790752D01*
X60895238Y-61790752D02*
X60942857Y-61885990D01*
X60942857Y-61885990D02*
X60990476Y-61933609D01*
X60990476Y-61933609D02*
X61085714Y-61981228D01*
X61085714Y-61981228D02*
X61466666Y-61981228D01*
X60514285Y-61552657D02*
X60466666Y-61505038D01*
X60466666Y-61505038D02*
X60371428Y-61457419D01*
X60371428Y-61457419D02*
X60133333Y-61457419D01*
X60133333Y-61457419D02*
X60038095Y-61505038D01*
X60038095Y-61505038D02*
X59990476Y-61552657D01*
X59990476Y-61552657D02*
X59942857Y-61647895D01*
X59942857Y-61647895D02*
X59942857Y-61743133D01*
X59942857Y-61743133D02*
X59990476Y-61885990D01*
X59990476Y-61885990D02*
X60561904Y-62457419D01*
X60561904Y-62457419D02*
X59942857Y-62457419D01*
X59323809Y-61457419D02*
X59228571Y-61457419D01*
X59228571Y-61457419D02*
X59133333Y-61505038D01*
X59133333Y-61505038D02*
X59085714Y-61552657D01*
X59085714Y-61552657D02*
X59038095Y-61647895D01*
X59038095Y-61647895D02*
X58990476Y-61838371D01*
X58990476Y-61838371D02*
X58990476Y-62076466D01*
X58990476Y-62076466D02*
X59038095Y-62266942D01*
X59038095Y-62266942D02*
X59085714Y-62362180D01*
X59085714Y-62362180D02*
X59133333Y-62409800D01*
X59133333Y-62409800D02*
X59228571Y-62457419D01*
X59228571Y-62457419D02*
X59323809Y-62457419D01*
X59323809Y-62457419D02*
X59419047Y-62409800D01*
X59419047Y-62409800D02*
X59466666Y-62362180D01*
X59466666Y-62362180D02*
X59514285Y-62266942D01*
X59514285Y-62266942D02*
X59561904Y-62076466D01*
X59561904Y-62076466D02*
X59561904Y-61838371D01*
X59561904Y-61838371D02*
X59514285Y-61647895D01*
X59514285Y-61647895D02*
X59466666Y-61552657D01*
X59466666Y-61552657D02*
X59419047Y-61505038D01*
X59419047Y-61505038D02*
X59323809Y-61457419D01*
X58657142Y-61457419D02*
X58038095Y-61457419D01*
X58038095Y-61457419D02*
X58371428Y-61838371D01*
X58371428Y-61838371D02*
X58228571Y-61838371D01*
X58228571Y-61838371D02*
X58133333Y-61885990D01*
X58133333Y-61885990D02*
X58085714Y-61933609D01*
X58085714Y-61933609D02*
X58038095Y-62028847D01*
X58038095Y-62028847D02*
X58038095Y-62266942D01*
X58038095Y-62266942D02*
X58085714Y-62362180D01*
X58085714Y-62362180D02*
X58133333Y-62409800D01*
X58133333Y-62409800D02*
X58228571Y-62457419D01*
X58228571Y-62457419D02*
X58514285Y-62457419D01*
X58514285Y-62457419D02*
X58609523Y-62409800D01*
X58609523Y-62409800D02*
X58657142Y-62362180D01*
X57657142Y-61552657D02*
X57609523Y-61505038D01*
X57609523Y-61505038D02*
X57514285Y-61457419D01*
X57514285Y-61457419D02*
X57276190Y-61457419D01*
X57276190Y-61457419D02*
X57180952Y-61505038D01*
X57180952Y-61505038D02*
X57133333Y-61552657D01*
X57133333Y-61552657D02*
X57085714Y-61647895D01*
X57085714Y-61647895D02*
X57085714Y-61743133D01*
X57085714Y-61743133D02*
X57133333Y-61885990D01*
X57133333Y-61885990D02*
X57704761Y-62457419D01*
X57704761Y-62457419D02*
X57085714Y-62457419D01*
D11*
X45877500Y-69154724D02*
X45877500Y-68645276D01*
X46922500Y-69154724D02*
X46922500Y-68645276D01*
M02*
