G04 #@! TF.GenerationSoftware,KiCad,Pcbnew,8.0.3*
G04 #@! TF.CreationDate,2024-07-11T09:34:10-07:00*
G04 #@! TF.ProjectId,mozilla-star-badge,6d6f7a69-6c6c-4612-9d73-7461722d6261,rev?*
G04 #@! TF.SameCoordinates,Original*
G04 #@! TF.FileFunction,Soldermask,Top*
G04 #@! TF.FilePolarity,Negative*
%FSLAX46Y46*%
G04 Gerber Fmt 4.6, Leading zero omitted, Abs format (unit mm)*
G04 Created by KiCad (PCBNEW 8.0.3) date 2024-07-11 09:34:10*
%MOMM*%
%LPD*%
G01*
G04 APERTURE LIST*
G04 Aperture macros list*
%AMRoundRect*
0 Rectangle with rounded corners*
0 $1 Rounding radius*
0 $2 $3 $4 $5 $6 $7 $8 $9 X,Y pos of 4 corners*
0 Add a 4 corners polygon primitive as box body*
4,1,4,$2,$3,$4,$5,$6,$7,$8,$9,$2,$3,0*
0 Add four circle primitives for the rounded corners*
1,1,$1+$1,$2,$3*
1,1,$1+$1,$4,$5*
1,1,$1+$1,$6,$7*
1,1,$1+$1,$8,$9*
0 Add four rect primitives between the rounded corners*
20,1,$1+$1,$2,$3,$4,$5,0*
20,1,$1+$1,$4,$5,$6,$7,0*
20,1,$1+$1,$6,$7,$8,$9,0*
20,1,$1+$1,$8,$9,$2,$3,0*%
G04 Aperture macros list end*
%ADD10C,0.000000*%
%ADD11RoundRect,0.160000X0.194851X0.275933X-0.337635X0.010446X-0.194851X-0.275933X0.337635X-0.010446X0*%
G04 APERTURE END LIST*
D10*
G36*
X58317006Y-81080653D02*
G01*
X57785910Y-81080653D01*
X57785910Y-80443909D01*
X58317006Y-80443909D01*
X58317006Y-81080653D01*
G37*
G36*
X58317006Y-82217998D02*
G01*
X57785910Y-82217998D01*
X57785910Y-81580546D01*
X58317006Y-81580546D01*
X58317006Y-82217998D01*
G37*
G36*
X59148740Y-82217998D02*
G01*
X58649560Y-82217998D01*
X59416767Y-79511485D01*
X59915953Y-79511485D01*
X59148740Y-82217998D01*
G37*
G36*
X60179015Y-82217998D02*
G01*
X59679127Y-82217998D01*
X60446335Y-79511485D01*
X60946229Y-79511485D01*
X60179015Y-82217998D01*
G37*
G36*
X57340617Y-80710520D02*
G01*
X56356429Y-81832265D01*
X56930776Y-81832265D01*
X57013029Y-81557147D01*
X57414361Y-81596145D01*
X57304457Y-82217998D01*
X55754436Y-82217998D01*
X55703377Y-81950680D01*
X56679057Y-80829644D01*
X56124567Y-80829644D01*
X56045857Y-81104761D01*
X55679982Y-81065053D01*
X55743087Y-80443201D01*
X57300907Y-80443201D01*
X57340617Y-80710520D01*
G37*
G36*
X55120016Y-72730460D02*
G01*
X55156935Y-72797544D01*
X55176154Y-72871390D01*
X55186952Y-72964233D01*
X55188576Y-73064215D01*
X55180273Y-73159483D01*
X55165361Y-73248516D01*
X55148330Y-73300899D01*
X55121940Y-73315709D01*
X55078951Y-73292020D01*
X55012123Y-73228908D01*
X54914216Y-73125448D01*
X54680832Y-72875921D01*
X54890682Y-72763508D01*
X54996541Y-72714679D01*
X55069805Y-72703217D01*
X55120016Y-72730460D01*
G37*
G36*
X52006350Y-73469850D02*
G01*
X52066252Y-73513228D01*
X52099946Y-73590363D01*
X52110496Y-73705213D01*
X52110001Y-73813364D01*
X52105061Y-73887000D01*
X52090489Y-73927851D01*
X52061101Y-73937645D01*
X52011711Y-73918112D01*
X51937134Y-73870982D01*
X51832185Y-73797983D01*
X51752127Y-73733089D01*
X51698904Y-73670811D01*
X51672054Y-73613009D01*
X51671113Y-73561545D01*
X51695618Y-73518278D01*
X51745106Y-73485069D01*
X51819113Y-73463780D01*
X51917176Y-73456270D01*
X52006350Y-73469850D01*
G37*
G36*
X56025513Y-72378230D02*
G01*
X56062152Y-72425461D01*
X56097205Y-72509146D01*
X56137731Y-72634758D01*
X56159393Y-72726149D01*
X56161550Y-72792667D01*
X56145660Y-72834175D01*
X56113183Y-72850538D01*
X56065578Y-72841617D01*
X56004304Y-72807277D01*
X55930820Y-72747381D01*
X55846585Y-72661791D01*
X55767121Y-72570229D01*
X55726664Y-72508053D01*
X55724810Y-72465519D01*
X55761158Y-72432883D01*
X55835304Y-72400401D01*
X55919143Y-72371161D01*
X55980201Y-72361956D01*
X56025513Y-72378230D01*
G37*
G36*
X53016455Y-73271620D02*
G01*
X53056899Y-73316560D01*
X53084838Y-73394079D01*
X53101038Y-73506320D01*
X53106267Y-73655424D01*
X53103846Y-73780971D01*
X53097113Y-73890267D01*
X53086865Y-73976620D01*
X53073898Y-74033339D01*
X53059007Y-74053733D01*
X53028357Y-74029931D01*
X52979819Y-73965125D01*
X52920066Y-73869210D01*
X52855768Y-73752084D01*
X52803141Y-73638797D01*
X52769515Y-73539534D01*
X52754817Y-73454628D01*
X52758976Y-73384412D01*
X52781919Y-73329220D01*
X52823575Y-73289384D01*
X52883871Y-73265238D01*
X52962736Y-73257115D01*
X53016455Y-73271620D01*
G37*
G36*
X54039213Y-73082770D02*
G01*
X54085043Y-73114849D01*
X54128282Y-73170923D01*
X54168736Y-73250797D01*
X54206212Y-73354276D01*
X54240513Y-73481164D01*
X54258986Y-73584154D01*
X54260989Y-73662181D01*
X54248028Y-73715145D01*
X54221606Y-73742945D01*
X54183227Y-73745483D01*
X54134396Y-73722657D01*
X54076616Y-73674369D01*
X54011391Y-73600517D01*
X53940226Y-73501002D01*
X53878408Y-73397485D01*
X53842930Y-73313437D01*
X53833149Y-73244293D01*
X53848421Y-73185486D01*
X53888104Y-73132450D01*
X53940554Y-73091385D01*
X53990988Y-73074881D01*
X54039213Y-73082770D01*
G37*
G36*
X57270634Y-71753364D02*
G01*
X57319431Y-71797291D01*
X57350472Y-71873526D01*
X57369805Y-71987507D01*
X57377577Y-72083781D01*
X57375463Y-72157466D01*
X57362470Y-72208746D01*
X57337605Y-72237808D01*
X57299877Y-72244838D01*
X57248292Y-72230022D01*
X57181859Y-72193545D01*
X57099583Y-72135594D01*
X57000474Y-72056355D01*
X56913173Y-71980146D01*
X56853120Y-71918094D01*
X56820861Y-71868371D01*
X56816942Y-71829148D01*
X56841908Y-71798599D01*
X56896306Y-71774893D01*
X56980680Y-71756204D01*
X57095578Y-71740702D01*
X57198033Y-71736313D01*
X57270634Y-71753364D01*
G37*
G36*
X50857637Y-73660034D02*
G01*
X50924175Y-73676815D01*
X50969507Y-73710192D01*
X50997321Y-73764590D01*
X51011305Y-73844437D01*
X51015147Y-73954156D01*
X51011732Y-74061100D01*
X51001196Y-74142614D01*
X50983106Y-74198769D01*
X50957024Y-74229635D01*
X50922516Y-74235280D01*
X50879148Y-74215775D01*
X50826482Y-74171189D01*
X50764085Y-74101593D01*
X50691521Y-74007056D01*
X50616909Y-73901601D01*
X50565083Y-73819361D01*
X50536642Y-73757514D01*
X50532186Y-73713238D01*
X50552314Y-73683712D01*
X50597627Y-73666116D01*
X50668723Y-73657627D01*
X50766204Y-73655424D01*
X50857637Y-73660034D01*
G37*
G36*
X52538974Y-80412555D02*
G01*
X52622408Y-80427083D01*
X52702121Y-80451488D01*
X52776921Y-80485927D01*
X52845616Y-80530555D01*
X52907014Y-80585530D01*
X52959922Y-80651009D01*
X53003148Y-80727148D01*
X53035500Y-80814103D01*
X53055785Y-80912032D01*
X53062812Y-81021090D01*
X53062812Y-81832265D01*
X53298222Y-81832265D01*
X53298222Y-82217998D01*
X52554408Y-82217998D01*
X52554408Y-81218922D01*
X52548167Y-81098721D01*
X52529486Y-81000450D01*
X52498426Y-80922856D01*
X52455049Y-80864686D01*
X52399417Y-80824686D01*
X52331593Y-80801606D01*
X52251638Y-80794190D01*
X52155864Y-80804498D01*
X52077071Y-80834278D01*
X52014439Y-80881821D01*
X51967150Y-80945414D01*
X51934386Y-81023345D01*
X51915328Y-81113903D01*
X51909157Y-81215377D01*
X51909157Y-81832265D01*
X52145274Y-81832265D01*
X52145274Y-82217998D01*
X51402171Y-82217998D01*
X51402171Y-81218922D01*
X51395930Y-81098721D01*
X51377249Y-81000450D01*
X51346189Y-80922856D01*
X51302812Y-80864686D01*
X51247180Y-80824686D01*
X51179356Y-80801606D01*
X51099401Y-80794190D01*
X51003627Y-80804498D01*
X50924834Y-80834278D01*
X50862202Y-80881821D01*
X50814913Y-80945414D01*
X50782149Y-81023345D01*
X50763091Y-81113903D01*
X50756920Y-81215377D01*
X50756920Y-81832265D01*
X51095149Y-81832265D01*
X51095149Y-82217998D01*
X50013815Y-82217998D01*
X50013815Y-81832265D01*
X50249939Y-81832265D01*
X50249939Y-80828934D01*
X50013815Y-80828934D01*
X50013815Y-80443201D01*
X50756920Y-80443201D01*
X50756920Y-80710520D01*
X50807275Y-80634360D01*
X50866981Y-80568011D01*
X50935755Y-80512169D01*
X51013310Y-80467526D01*
X51099362Y-80434779D01*
X51193625Y-80414621D01*
X51295815Y-80407747D01*
X51390590Y-80413494D01*
X51481943Y-80430858D01*
X51568376Y-80460022D01*
X51648396Y-80501167D01*
X51720505Y-80554477D01*
X51783208Y-80620136D01*
X51835010Y-80698324D01*
X51874414Y-80789226D01*
X51916115Y-80705042D01*
X51967114Y-80630007D01*
X52027137Y-80564761D01*
X52095910Y-80509942D01*
X52173158Y-80466192D01*
X52258607Y-80434149D01*
X52351983Y-80414454D01*
X52453012Y-80407747D01*
X52538974Y-80412555D01*
G37*
G36*
X54580010Y-80412829D02*
G01*
X54682261Y-80425652D01*
X54777789Y-80446486D01*
X54866613Y-80474888D01*
X54948749Y-80510419D01*
X55024214Y-80552637D01*
X55093026Y-80601103D01*
X55155203Y-80655375D01*
X55210761Y-80715012D01*
X55259718Y-80779574D01*
X55302091Y-80848620D01*
X55337898Y-80921708D01*
X55367156Y-80998400D01*
X55389881Y-81078253D01*
X55406093Y-81160826D01*
X55415807Y-81245680D01*
X55419041Y-81332373D01*
X55414845Y-81430157D01*
X55402463Y-81523430D01*
X55382201Y-81612010D01*
X55354368Y-81695714D01*
X55319270Y-81774359D01*
X55277215Y-81847762D01*
X55228511Y-81915741D01*
X55173465Y-81978113D01*
X55112383Y-82034695D01*
X55045574Y-82085305D01*
X54973346Y-82129760D01*
X54896004Y-82167877D01*
X54813858Y-82199473D01*
X54727213Y-82224366D01*
X54636378Y-82242372D01*
X54541660Y-82253310D01*
X54458967Y-82256412D01*
X54443367Y-82256997D01*
X54342891Y-82253108D01*
X54246677Y-82241540D01*
X54155031Y-82222442D01*
X54068259Y-82195962D01*
X53986668Y-82162248D01*
X53910564Y-82121450D01*
X53840254Y-82073715D01*
X53776044Y-82019193D01*
X53718241Y-81958032D01*
X53667150Y-81890380D01*
X53623079Y-81816385D01*
X53586334Y-81736198D01*
X53557221Y-81649965D01*
X53536046Y-81557835D01*
X53523117Y-81459958D01*
X53518739Y-81356481D01*
X53519891Y-81324573D01*
X54042034Y-81324573D01*
X54047274Y-81424062D01*
X54062950Y-81516939D01*
X54088990Y-81601844D01*
X54125325Y-81677418D01*
X54171884Y-81742300D01*
X54228598Y-81795131D01*
X54295397Y-81834551D01*
X54372210Y-81859201D01*
X54458967Y-81867719D01*
X54543416Y-81859960D01*
X54620466Y-81837162D01*
X54689439Y-81800043D01*
X54749658Y-81749319D01*
X54800446Y-81685711D01*
X54841127Y-81609934D01*
X54871023Y-81522707D01*
X54889457Y-81424747D01*
X54895752Y-81316773D01*
X54888809Y-81204664D01*
X54868782Y-81106860D01*
X54836873Y-81023061D01*
X54794284Y-80952972D01*
X54742217Y-80896293D01*
X54681875Y-80852728D01*
X54614460Y-80821978D01*
X54541173Y-80803747D01*
X54463218Y-80797736D01*
X54380237Y-80804785D01*
X54305117Y-80825659D01*
X54238366Y-80859950D01*
X54180491Y-80907249D01*
X54132000Y-80967148D01*
X54093402Y-81039239D01*
X54065202Y-81123112D01*
X54047910Y-81218360D01*
X54042034Y-81324573D01*
X53519891Y-81324573D01*
X53522009Y-81265890D01*
X53531824Y-81177582D01*
X53548195Y-81091972D01*
X53571130Y-81009473D01*
X53600640Y-80930499D01*
X53636734Y-80855465D01*
X53679421Y-80784784D01*
X53728710Y-80718870D01*
X53784613Y-80658136D01*
X53847137Y-80602998D01*
X53916292Y-80553869D01*
X53992089Y-80511162D01*
X54074536Y-80475292D01*
X54163643Y-80446673D01*
X54259420Y-80425718D01*
X54361875Y-80412841D01*
X54471019Y-80408457D01*
X54580010Y-80412829D01*
G37*
G36*
X61910247Y-80412570D02*
G01*
X62000870Y-80424933D01*
X62087209Y-80445583D01*
X62168348Y-80474558D01*
X62243371Y-80511894D01*
X62311363Y-80557627D01*
X62371407Y-80611796D01*
X62422587Y-80674436D01*
X62463989Y-80745586D01*
X62494695Y-80825281D01*
X62513791Y-80913559D01*
X62520359Y-81010456D01*
X62520359Y-81781212D01*
X62533543Y-81862256D01*
X62573830Y-81905799D01*
X62642322Y-81918772D01*
X62716774Y-81906717D01*
X62719608Y-82174036D01*
X62645534Y-82208836D01*
X62566273Y-82234927D01*
X62484087Y-82251313D01*
X62401236Y-82256997D01*
X62306555Y-82248747D01*
X62224896Y-82224682D01*
X62156261Y-82185832D01*
X62100649Y-82133226D01*
X62058061Y-82067895D01*
X62028496Y-81990867D01*
X62011955Y-81903172D01*
X61969923Y-81970289D01*
X61920188Y-82034738D01*
X61862426Y-82094583D01*
X61796313Y-82147889D01*
X61721524Y-82192720D01*
X61637737Y-82227139D01*
X61627640Y-82229532D01*
X61544625Y-82249210D01*
X61441866Y-82256997D01*
X61364358Y-82252756D01*
X61286718Y-82239662D01*
X61210898Y-82217157D01*
X61138852Y-82184683D01*
X61072532Y-82141685D01*
X61013891Y-82087604D01*
X60964883Y-82021882D01*
X60927458Y-81943963D01*
X60903572Y-81853290D01*
X60895176Y-81749304D01*
X60899686Y-81690452D01*
X61419180Y-81690452D01*
X61430214Y-81770632D01*
X61465976Y-81835722D01*
X61530455Y-81879407D01*
X61627640Y-81895372D01*
X61705307Y-81887322D01*
X61781077Y-81862751D01*
X61851575Y-81821026D01*
X61913428Y-81761514D01*
X61963262Y-81683582D01*
X61997704Y-81586599D01*
X62013379Y-81469931D01*
X61928422Y-81458823D01*
X61841888Y-81450078D01*
X61757402Y-81446533D01*
X61669566Y-81451207D01*
X61589353Y-81466911D01*
X61520486Y-81496167D01*
X61466687Y-81541495D01*
X61431677Y-81605416D01*
X61419180Y-81690452D01*
X60899686Y-81690452D01*
X60902453Y-81654343D01*
X60923489Y-81570628D01*
X60957089Y-81497525D01*
X61002058Y-81434399D01*
X61057201Y-81380614D01*
X61121323Y-81335536D01*
X61193230Y-81298529D01*
X61271727Y-81268958D01*
X61355619Y-81246188D01*
X61443711Y-81229584D01*
X61534809Y-81218510D01*
X61627718Y-81212331D01*
X61721242Y-81210413D01*
X61820431Y-81211778D01*
X61918678Y-81216610D01*
X62012671Y-81226013D01*
X62012671Y-81167160D01*
X62011597Y-81088232D01*
X62005129Y-81009366D01*
X61988390Y-80934966D01*
X61956506Y-80869434D01*
X61904603Y-80817174D01*
X61827807Y-80782589D01*
X61721242Y-80770082D01*
X61621998Y-80773706D01*
X61533311Y-80788675D01*
X61449666Y-80821134D01*
X61392231Y-81021090D01*
X60987355Y-80977838D01*
X61056843Y-80569416D01*
X61166892Y-80526466D01*
X61265840Y-80491318D01*
X61357077Y-80463333D01*
X61443993Y-80441871D01*
X61529979Y-80426293D01*
X61618424Y-80415957D01*
X61712720Y-80410225D01*
X61816255Y-80408457D01*
X61910247Y-80412570D01*
G37*
G36*
X59962675Y-39395720D02*
G01*
X60015211Y-39405674D01*
X60067530Y-39422156D01*
X60119512Y-39445164D01*
X60171033Y-39474699D01*
X60221973Y-39510761D01*
X60272211Y-39553348D01*
X60321625Y-39602462D01*
X60370094Y-39658100D01*
X60417496Y-39720263D01*
X60463709Y-39788950D01*
X60508613Y-39864162D01*
X60552086Y-39945897D01*
X60594006Y-40034156D01*
X60634252Y-40128938D01*
X60672703Y-40230242D01*
X60709237Y-40338068D01*
X67958436Y-62999889D01*
X88449435Y-63045398D01*
X88560227Y-63047962D01*
X88664890Y-63055042D01*
X88763374Y-63066483D01*
X88855630Y-63082128D01*
X88941605Y-63101820D01*
X89021251Y-63125405D01*
X89094517Y-63152724D01*
X89161352Y-63183623D01*
X89221707Y-63217943D01*
X89275530Y-63255530D01*
X89322771Y-63296227D01*
X89363380Y-63339878D01*
X89397306Y-63386325D01*
X89424500Y-63435414D01*
X89444910Y-63486986D01*
X89458487Y-63540887D01*
X89465180Y-63596960D01*
X89464938Y-63655049D01*
X89457712Y-63714996D01*
X89443451Y-63776647D01*
X89422104Y-63839843D01*
X89393621Y-63904431D01*
X89357952Y-63970251D01*
X89315046Y-64037150D01*
X89264854Y-64104969D01*
X89207324Y-64173553D01*
X89142406Y-64242746D01*
X89070050Y-64312391D01*
X88990206Y-64382332D01*
X88902822Y-64452412D01*
X72492310Y-77070027D01*
X79433617Y-99625774D01*
X79465895Y-99737557D01*
X79492686Y-99845015D01*
X79514095Y-99948069D01*
X79530226Y-100046636D01*
X79541185Y-100140638D01*
X79547076Y-100229993D01*
X79548006Y-100314621D01*
X79544079Y-100394441D01*
X79535399Y-100469372D01*
X79522073Y-100539333D01*
X79504206Y-100604245D01*
X79481901Y-100664027D01*
X79455265Y-100718597D01*
X79424403Y-100767875D01*
X79389420Y-100811782D01*
X79350420Y-100850235D01*
X79307509Y-100883155D01*
X79260791Y-100910460D01*
X79210373Y-100932071D01*
X79156359Y-100947906D01*
X79098854Y-100957885D01*
X79037964Y-100961928D01*
X78973792Y-100959953D01*
X78906445Y-100951880D01*
X78836028Y-100937629D01*
X78762645Y-100917119D01*
X78686402Y-100890268D01*
X78607404Y-100856998D01*
X78525756Y-100817226D01*
X78441563Y-100770873D01*
X78354929Y-100717857D01*
X78265961Y-100658099D01*
X78174763Y-100591517D01*
X77382871Y-99990628D01*
X59903771Y-86727457D01*
X41815694Y-100482993D01*
X41725421Y-100549068D01*
X41637379Y-100608402D01*
X41551672Y-100661073D01*
X41468403Y-100707160D01*
X41387674Y-100746743D01*
X41309590Y-100779900D01*
X41234253Y-100806711D01*
X41161768Y-100827255D01*
X41092236Y-100841611D01*
X41025762Y-100849858D01*
X40962449Y-100852076D01*
X40902400Y-100848342D01*
X40845718Y-100838737D01*
X40792507Y-100823340D01*
X40742870Y-100802229D01*
X40696910Y-100775483D01*
X40654731Y-100743183D01*
X40616436Y-100705406D01*
X40582128Y-100662233D01*
X40551910Y-100613741D01*
X40525886Y-100560011D01*
X40504159Y-100501121D01*
X40486833Y-100437150D01*
X40474010Y-100368178D01*
X40465794Y-100294284D01*
X40462288Y-100215546D01*
X40463596Y-100132044D01*
X40469820Y-100043857D01*
X40481065Y-99951064D01*
X40497433Y-99853745D01*
X40519028Y-99751977D01*
X40545953Y-99645841D01*
X40578311Y-99535415D01*
X47529946Y-77251677D01*
X31038427Y-64544113D01*
X33498510Y-64544113D01*
X40531343Y-69921280D01*
X40650872Y-70012671D01*
X40770188Y-70103899D01*
X40889272Y-70194951D01*
X41008106Y-70285812D01*
X41126672Y-70376470D01*
X41244951Y-70466909D01*
X41362925Y-70557116D01*
X41480577Y-70647077D01*
X41597887Y-70736778D01*
X41714839Y-70826206D01*
X41831412Y-70915345D01*
X41947590Y-71004183D01*
X42063354Y-71092705D01*
X42178686Y-71180898D01*
X42293568Y-71268746D01*
X42407981Y-71356238D01*
X42521907Y-71443358D01*
X42635328Y-71530093D01*
X42748226Y-71616428D01*
X42860583Y-71702351D01*
X42972379Y-71787846D01*
X43083598Y-71872900D01*
X43194221Y-71957499D01*
X43304230Y-72041629D01*
X43413606Y-72125277D01*
X43522332Y-72208427D01*
X43630389Y-72291067D01*
X43737758Y-72373183D01*
X43844422Y-72454759D01*
X43950363Y-72535783D01*
X44055562Y-72616241D01*
X44160001Y-72696118D01*
X44263662Y-72775401D01*
X44366526Y-72854076D01*
X44468576Y-72932129D01*
X44569793Y-73009545D01*
X44670159Y-73086312D01*
X44769655Y-73162415D01*
X44868265Y-73237839D01*
X44965968Y-73312572D01*
X45062748Y-73386599D01*
X45158586Y-73459906D01*
X45253463Y-73532480D01*
X45347362Y-73604306D01*
X45440264Y-73675371D01*
X45532151Y-73745660D01*
X45623005Y-73815160D01*
X45712808Y-73883857D01*
X45801541Y-73951736D01*
X45889187Y-74018785D01*
X45975726Y-74084988D01*
X46061141Y-74150332D01*
X46145414Y-74214803D01*
X46228526Y-74278388D01*
X46310460Y-74341071D01*
X46391196Y-74402840D01*
X46470717Y-74463680D01*
X46549004Y-74523578D01*
X46626040Y-74582519D01*
X46701806Y-74640490D01*
X46776284Y-74697476D01*
X46849456Y-74753464D01*
X46921303Y-74808439D01*
X46991807Y-74862389D01*
X47060951Y-74915298D01*
X47128715Y-74967153D01*
X47195082Y-75017941D01*
X47260033Y-75067646D01*
X47323550Y-75116256D01*
X47385616Y-75163755D01*
X47446211Y-75210131D01*
X47505318Y-75255370D01*
X47562918Y-75299457D01*
X47618993Y-75342378D01*
X47673526Y-75384120D01*
X47726496Y-75424668D01*
X47777888Y-75464009D01*
X47827682Y-75502129D01*
X47875860Y-75539014D01*
X47922403Y-75574650D01*
X47967295Y-75609022D01*
X48010515Y-75642118D01*
X48052048Y-75673923D01*
X48091873Y-75704423D01*
X48129973Y-75733604D01*
X48166329Y-75761453D01*
X48200924Y-75787954D01*
X48233739Y-75813096D01*
X48264756Y-75836863D01*
X48293957Y-75859241D01*
X48321323Y-75880217D01*
X48346837Y-75899777D01*
X48370480Y-75917907D01*
X48392233Y-75934592D01*
X48412080Y-75949819D01*
X48430001Y-75963575D01*
X48445978Y-75975844D01*
X48564814Y-76068068D01*
X48678156Y-76157865D01*
X48784984Y-76244328D01*
X48884279Y-76326548D01*
X48975023Y-76403618D01*
X49056197Y-76474630D01*
X49126780Y-76538678D01*
X49185755Y-76594853D01*
X49232102Y-76642247D01*
X49264803Y-76679954D01*
X49282838Y-76707065D01*
X49285188Y-76722673D01*
X49284131Y-76725010D01*
X49282299Y-76729824D01*
X49279698Y-76737096D01*
X49276333Y-76746808D01*
X49272210Y-76758941D01*
X49267335Y-76773477D01*
X49261714Y-76790397D01*
X49255352Y-76809682D01*
X49248257Y-76831314D01*
X49240432Y-76855274D01*
X49231886Y-76881543D01*
X49222622Y-76910103D01*
X49212648Y-76940936D01*
X49201969Y-76974021D01*
X49190590Y-77009341D01*
X49178519Y-77046878D01*
X49165760Y-77086612D01*
X49152320Y-77128525D01*
X49138204Y-77172598D01*
X49123419Y-77218813D01*
X49107970Y-77267150D01*
X49091862Y-77317592D01*
X49075103Y-77370120D01*
X49057698Y-77424715D01*
X49039653Y-77481358D01*
X49020973Y-77540031D01*
X49001665Y-77600715D01*
X48981734Y-77663392D01*
X48961187Y-77728042D01*
X48940028Y-77794647D01*
X48918265Y-77863190D01*
X48895902Y-77933650D01*
X48872947Y-78006009D01*
X48849404Y-78080249D01*
X48825280Y-78156351D01*
X48800580Y-78234296D01*
X48775310Y-78314066D01*
X48749477Y-78395642D01*
X48723086Y-78479005D01*
X48696142Y-78564137D01*
X48668653Y-78651020D01*
X48640623Y-78739634D01*
X48612059Y-78829960D01*
X48582967Y-78921981D01*
X48553352Y-79015678D01*
X48523220Y-79111031D01*
X48492577Y-79208023D01*
X48461430Y-79306634D01*
X48429783Y-79406847D01*
X48397643Y-79508641D01*
X48365016Y-79612000D01*
X48331907Y-79716903D01*
X48298323Y-79823333D01*
X48264269Y-79931271D01*
X48229751Y-80040698D01*
X48194775Y-80151596D01*
X48159348Y-80263945D01*
X48123474Y-80377728D01*
X48087160Y-80492925D01*
X48050411Y-80609518D01*
X48013234Y-80727489D01*
X47975635Y-80846818D01*
X47937619Y-80967487D01*
X47899191Y-81089478D01*
X47860359Y-81212771D01*
X47821128Y-81337349D01*
X47781503Y-81463192D01*
X47741492Y-81590282D01*
X47701098Y-81718600D01*
X47660330Y-81848127D01*
X47619191Y-81978846D01*
X47577689Y-82110736D01*
X47535828Y-82243781D01*
X47493616Y-82377960D01*
X47451058Y-82513256D01*
X47408159Y-82649649D01*
X47364926Y-82787121D01*
X47321364Y-82925654D01*
X47277480Y-83065229D01*
X47233279Y-83205827D01*
X47188767Y-83347429D01*
X47143950Y-83490017D01*
X47098834Y-83633572D01*
X47053425Y-83778076D01*
X47007728Y-83923510D01*
X46961750Y-84069855D01*
X46915496Y-84217093D01*
X46868973Y-84365205D01*
X46822186Y-84514172D01*
X46775141Y-84663976D01*
X46727844Y-84814598D01*
X46680300Y-84966019D01*
X46632517Y-85118222D01*
X46584499Y-85271186D01*
X46536252Y-85424894D01*
X46487783Y-85579327D01*
X46439097Y-85734466D01*
X46390200Y-85890292D01*
X46341098Y-86046788D01*
X46291797Y-86203934D01*
X46242303Y-86361712D01*
X46192622Y-86520102D01*
X46142759Y-86679087D01*
X46092720Y-86838648D01*
X46042512Y-86998766D01*
X45994131Y-87153059D01*
X45945886Y-87306917D01*
X45897780Y-87460324D01*
X45849820Y-87613263D01*
X45802010Y-87765715D01*
X45754357Y-87917664D01*
X45706866Y-88069092D01*
X45659541Y-88219983D01*
X45612389Y-88370319D01*
X45565416Y-88520082D01*
X45518625Y-88669256D01*
X45472023Y-88817822D01*
X45425616Y-88965765D01*
X45379408Y-89113067D01*
X45333405Y-89259710D01*
X45287613Y-89405677D01*
X45242036Y-89550951D01*
X45196681Y-89695514D01*
X45151552Y-89839351D01*
X45106656Y-89982442D01*
X45061997Y-90124771D01*
X45017582Y-90266321D01*
X44973415Y-90407074D01*
X44929501Y-90547013D01*
X44885847Y-90686122D01*
X44842457Y-90824382D01*
X44799338Y-90961776D01*
X44756494Y-91098288D01*
X44713931Y-91233899D01*
X44671655Y-91368593D01*
X44629670Y-91502352D01*
X44587983Y-91635160D01*
X44546598Y-91766998D01*
X44505521Y-91897850D01*
X44464758Y-92027699D01*
X44424313Y-92156526D01*
X44384193Y-92284316D01*
X44344403Y-92411050D01*
X44304947Y-92536711D01*
X44265833Y-92661282D01*
X44227064Y-92784747D01*
X44188647Y-92907087D01*
X44150587Y-93028285D01*
X44112888Y-93148324D01*
X44075558Y-93267188D01*
X44038601Y-93384857D01*
X44002022Y-93501316D01*
X43965827Y-93616548D01*
X43930022Y-93730534D01*
X43894611Y-93843257D01*
X43859601Y-93954701D01*
X43824996Y-94064849D01*
X43790802Y-94173681D01*
X43757025Y-94281183D01*
X43723670Y-94387336D01*
X43690742Y-94492123D01*
X43658246Y-94595526D01*
X43626189Y-94697529D01*
X43594576Y-94798115D01*
X43563411Y-94897266D01*
X43532701Y-94994964D01*
X43502451Y-95091193D01*
X43472666Y-95185935D01*
X43443352Y-95279173D01*
X43414514Y-95370890D01*
X43386157Y-95461069D01*
X43358287Y-95549692D01*
X43330910Y-95636742D01*
X43304031Y-95722202D01*
X43277655Y-95806054D01*
X43251787Y-95888281D01*
X43226433Y-95968867D01*
X43201599Y-96047793D01*
X43177290Y-96125043D01*
X43153511Y-96200599D01*
X43130268Y-96274444D01*
X43107567Y-96346561D01*
X43085411Y-96416932D01*
X43063808Y-96485541D01*
X43042762Y-96552369D01*
X43022279Y-96617401D01*
X43002364Y-96680618D01*
X42983023Y-96742003D01*
X42964262Y-96801539D01*
X42946084Y-96859209D01*
X42928497Y-96914995D01*
X42911505Y-96968881D01*
X42895114Y-97020848D01*
X42879329Y-97070880D01*
X42864155Y-97118960D01*
X42849599Y-97165070D01*
X42835665Y-97209193D01*
X42822359Y-97251311D01*
X42809687Y-97291408D01*
X42797653Y-97329467D01*
X42786264Y-97365469D01*
X42775524Y-97399398D01*
X42765439Y-97431236D01*
X42756014Y-97460967D01*
X42747255Y-97488572D01*
X42739168Y-97514036D01*
X42731757Y-97537339D01*
X42725029Y-97558466D01*
X42718988Y-97577399D01*
X42713640Y-97594120D01*
X42708990Y-97608613D01*
X42705044Y-97620860D01*
X42701808Y-97630844D01*
X42699286Y-97638548D01*
X42655691Y-97777218D01*
X42628271Y-97880691D01*
X42616922Y-97950567D01*
X42621542Y-97988448D01*
X42642029Y-97995932D01*
X42678281Y-97974621D01*
X42691846Y-97963838D01*
X42707474Y-97951486D01*
X42725142Y-97937580D01*
X42744832Y-97922135D01*
X42766523Y-97905167D01*
X42790194Y-97886692D01*
X42815825Y-97866724D01*
X42843397Y-97845279D01*
X42872888Y-97822374D01*
X42904279Y-97798022D01*
X42937549Y-97772241D01*
X42972678Y-97745044D01*
X43009646Y-97716449D01*
X43048432Y-97686469D01*
X43089017Y-97655121D01*
X43131379Y-97622420D01*
X43175499Y-97588382D01*
X43221356Y-97553021D01*
X43268930Y-97516355D01*
X43318201Y-97478397D01*
X43369149Y-97439164D01*
X43421753Y-97398670D01*
X43475992Y-97356932D01*
X43531848Y-97313965D01*
X43589299Y-97269784D01*
X43648325Y-97224406D01*
X43708906Y-97177844D01*
X43771021Y-97130115D01*
X43834651Y-97081234D01*
X43899775Y-97031217D01*
X43966373Y-96980080D01*
X44034424Y-96927837D01*
X44103909Y-96874504D01*
X44174807Y-96820096D01*
X44247097Y-96764630D01*
X44320760Y-96708120D01*
X44395775Y-96650583D01*
X44472122Y-96592032D01*
X44549780Y-96532485D01*
X44628730Y-96471956D01*
X44708951Y-96410461D01*
X44790422Y-96348016D01*
X44873125Y-96284635D01*
X44957037Y-96220335D01*
X45042140Y-96155130D01*
X45128412Y-96089037D01*
X45215834Y-96022071D01*
X45304385Y-95954246D01*
X45394045Y-95885580D01*
X45484793Y-95816086D01*
X45576610Y-95745781D01*
X45669475Y-95674681D01*
X45763368Y-95602800D01*
X45858268Y-95530153D01*
X45954156Y-95456758D01*
X46051011Y-95382628D01*
X46148812Y-95307780D01*
X46247540Y-95232229D01*
X46347174Y-95155990D01*
X46447694Y-95079080D01*
X46549080Y-95001512D01*
X46651311Y-94923303D01*
X46754367Y-94844469D01*
X46858228Y-94765024D01*
X46962874Y-94684985D01*
X47068283Y-94604367D01*
X47174437Y-94523184D01*
X47281315Y-94441453D01*
X47388896Y-94359190D01*
X47497161Y-94276409D01*
X47606088Y-94193126D01*
X47715658Y-94109357D01*
X47825850Y-94025116D01*
X47936645Y-93940420D01*
X48048021Y-93855285D01*
X48159959Y-93769724D01*
X48272438Y-93683755D01*
X48385439Y-93597392D01*
X48498940Y-93510650D01*
X48612921Y-93423547D01*
X48727363Y-93336096D01*
X48842245Y-93248313D01*
X48957546Y-93160214D01*
X49073247Y-93071814D01*
X49189327Y-92983129D01*
X49305766Y-92894174D01*
X49422543Y-92804965D01*
X49539639Y-92715516D01*
X49657033Y-92625845D01*
X49774704Y-92535965D01*
X49892634Y-92445893D01*
X50010800Y-92355644D01*
X50129183Y-92265234D01*
X50247763Y-92174677D01*
X50366520Y-92083990D01*
X50485432Y-91993188D01*
X50604481Y-91902286D01*
X50723645Y-91811300D01*
X50842904Y-91720246D01*
X50962239Y-91629138D01*
X51081628Y-91537992D01*
X51201052Y-91446824D01*
X51320490Y-91355649D01*
X51439922Y-91264483D01*
X51559327Y-91173342D01*
X51678687Y-91082239D01*
X51797979Y-90991192D01*
X51917184Y-90900216D01*
X52036282Y-90809325D01*
X52155252Y-90718536D01*
X52274074Y-90627864D01*
X52392729Y-90537324D01*
X52511194Y-90446933D01*
X52629451Y-90356704D01*
X52747479Y-90266655D01*
X52865258Y-90176800D01*
X52982767Y-90087155D01*
X53099986Y-89997735D01*
X53216895Y-89908556D01*
X53333474Y-89819633D01*
X53449702Y-89730982D01*
X53565559Y-89642618D01*
X53681025Y-89554556D01*
X53796080Y-89466813D01*
X53910702Y-89379403D01*
X54024873Y-89292343D01*
X54138572Y-89205647D01*
X54251778Y-89119331D01*
X54364471Y-89033410D01*
X54476631Y-88947901D01*
X54588238Y-88862818D01*
X54699271Y-88778177D01*
X54809711Y-88693993D01*
X54919536Y-88610282D01*
X55028726Y-88527059D01*
X55137262Y-88444340D01*
X55245123Y-88362141D01*
X55352289Y-88280476D01*
X55458739Y-88199361D01*
X55564454Y-88118812D01*
X55669412Y-88038845D01*
X55773594Y-87959474D01*
X55876979Y-87880714D01*
X55979548Y-87802583D01*
X56081279Y-87725095D01*
X56182153Y-87648265D01*
X56282149Y-87572109D01*
X56381247Y-87496643D01*
X56479427Y-87421881D01*
X56576669Y-87347840D01*
X56672952Y-87274535D01*
X56768255Y-87201981D01*
X56862560Y-87130194D01*
X56955844Y-87059189D01*
X57048089Y-86988983D01*
X57139274Y-86919589D01*
X57229378Y-86851024D01*
X57318382Y-86783303D01*
X57406264Y-86716442D01*
X57493006Y-86650456D01*
X57578586Y-86585361D01*
X57662984Y-86521172D01*
X57746180Y-86457904D01*
X57828154Y-86395573D01*
X57908885Y-86334195D01*
X57988353Y-86273785D01*
X58066538Y-86214358D01*
X58143420Y-86155931D01*
X58218978Y-86098517D01*
X58293192Y-86042134D01*
X58366042Y-85986796D01*
X58437508Y-85932518D01*
X58507569Y-85879317D01*
X58576204Y-85827208D01*
X58643395Y-85776206D01*
X58709119Y-85726326D01*
X58773358Y-85677585D01*
X58836091Y-85629997D01*
X58897298Y-85583579D01*
X58956957Y-85538345D01*
X59015050Y-85494311D01*
X59071556Y-85451493D01*
X59126454Y-85409905D01*
X59179725Y-85369565D01*
X59231347Y-85330486D01*
X59281301Y-85292684D01*
X59329567Y-85256176D01*
X59376123Y-85220975D01*
X59420951Y-85187099D01*
X59464029Y-85154562D01*
X59505338Y-85123380D01*
X59544857Y-85093568D01*
X59582565Y-85065142D01*
X59618443Y-85038117D01*
X59652470Y-85012508D01*
X59684627Y-84988332D01*
X59714892Y-84965603D01*
X59743245Y-84944338D01*
X59769667Y-84924551D01*
X59794136Y-84906258D01*
X59816633Y-84889475D01*
X59837138Y-84874216D01*
X59855629Y-84860498D01*
X59872088Y-84848336D01*
X59886493Y-84837746D01*
X59898824Y-84828742D01*
X59909061Y-84821341D01*
X59917184Y-84815557D01*
X59923173Y-84811407D01*
X59927007Y-84808905D01*
X59928665Y-84808068D01*
X59934987Y-84810700D01*
X59948013Y-84818509D01*
X59967565Y-84831360D01*
X59993467Y-84849122D01*
X60025540Y-84871659D01*
X60063607Y-84898841D01*
X60107492Y-84930532D01*
X60157016Y-84966600D01*
X60212002Y-85006912D01*
X60272274Y-85051335D01*
X60337653Y-85099735D01*
X60407963Y-85151980D01*
X60483025Y-85207935D01*
X60562663Y-85267469D01*
X60646700Y-85330447D01*
X60734957Y-85396736D01*
X60827258Y-85466204D01*
X60923426Y-85538717D01*
X61023282Y-85614142D01*
X61126650Y-85692346D01*
X61233352Y-85773195D01*
X61343211Y-85856557D01*
X61456049Y-85942298D01*
X61571690Y-86030285D01*
X61689955Y-86120385D01*
X61810668Y-86212465D01*
X61933652Y-86306390D01*
X62058728Y-86402030D01*
X62185719Y-86499249D01*
X62314449Y-86597915D01*
X62444739Y-86697895D01*
X62483363Y-86727551D01*
X62523310Y-86758221D01*
X62564567Y-86789897D01*
X62607117Y-86822565D01*
X62650946Y-86856214D01*
X62696040Y-86890834D01*
X62742383Y-86926412D01*
X62789961Y-86962937D01*
X62838758Y-87000397D01*
X62888760Y-87038783D01*
X62939952Y-87078081D01*
X62992318Y-87118280D01*
X63045845Y-87159369D01*
X63100517Y-87201337D01*
X63156319Y-87244172D01*
X63213236Y-87287863D01*
X63271254Y-87332398D01*
X63330358Y-87377766D01*
X63390532Y-87423956D01*
X63451762Y-87470955D01*
X63514033Y-87518753D01*
X63577330Y-87567338D01*
X63641638Y-87616699D01*
X63706943Y-87666824D01*
X63773229Y-87717702D01*
X63840481Y-87769322D01*
X63908685Y-87821671D01*
X63977826Y-87874739D01*
X64047888Y-87928515D01*
X64118858Y-87982986D01*
X64190719Y-88038141D01*
X64263458Y-88093969D01*
X64337059Y-88150459D01*
X64411507Y-88207599D01*
X64486788Y-88265377D01*
X64562887Y-88323783D01*
X64639788Y-88382804D01*
X64717477Y-88442429D01*
X64795939Y-88502648D01*
X64875159Y-88563448D01*
X64955123Y-88624818D01*
X65035814Y-88686747D01*
X65117219Y-88749222D01*
X65199323Y-88812234D01*
X65282110Y-88875770D01*
X65365566Y-88939819D01*
X65449675Y-89004369D01*
X65534424Y-89069410D01*
X65619797Y-89134929D01*
X65705779Y-89200915D01*
X65792355Y-89267357D01*
X65879510Y-89334244D01*
X65967231Y-89401563D01*
X66055500Y-89469304D01*
X66144305Y-89537455D01*
X66233629Y-89606004D01*
X66323459Y-89674941D01*
X66413778Y-89744253D01*
X66504573Y-89813930D01*
X66595828Y-89883960D01*
X66687528Y-89954332D01*
X66779659Y-90025033D01*
X66872205Y-90096053D01*
X66965153Y-90167381D01*
X67058486Y-90239004D01*
X67152190Y-90310911D01*
X67246250Y-90383092D01*
X67340651Y-90455534D01*
X67435379Y-90528226D01*
X67530418Y-90601157D01*
X67625754Y-90674315D01*
X67721371Y-90747689D01*
X67817255Y-90821267D01*
X67913391Y-90895038D01*
X68009764Y-90968991D01*
X68106359Y-91043114D01*
X68203161Y-91117395D01*
X68300156Y-91191824D01*
X68397328Y-91266389D01*
X68494662Y-91341078D01*
X68592145Y-91415880D01*
X68689760Y-91490783D01*
X68787492Y-91565777D01*
X68885328Y-91640849D01*
X68983252Y-91715989D01*
X69081249Y-91791184D01*
X69179305Y-91866424D01*
X69277404Y-91941697D01*
X69375531Y-92016992D01*
X69473672Y-92092296D01*
X69571812Y-92167600D01*
X69669936Y-92242890D01*
X69768029Y-92318157D01*
X69866076Y-92393388D01*
X69964062Y-92468572D01*
X70061973Y-92543697D01*
X70159793Y-92618753D01*
X70257507Y-92693727D01*
X70355101Y-92768609D01*
X70452560Y-92843386D01*
X70549869Y-92918048D01*
X70647013Y-92992583D01*
X70743977Y-93066980D01*
X70840746Y-93141226D01*
X70937306Y-93215312D01*
X71033641Y-93289225D01*
X71129736Y-93362953D01*
X71262795Y-93465030D01*
X71395227Y-93566605D01*
X71527004Y-93667656D01*
X71658094Y-93768161D01*
X71788470Y-93868098D01*
X71918101Y-93967445D01*
X72046958Y-94066180D01*
X72175011Y-94164281D01*
X72302232Y-94261726D01*
X72428589Y-94358494D01*
X72554055Y-94454562D01*
X72678598Y-94549909D01*
X72802191Y-94644512D01*
X72924803Y-94738350D01*
X73046405Y-94831400D01*
X73166966Y-94923641D01*
X73286459Y-95015051D01*
X73404853Y-95105607D01*
X73522118Y-95195288D01*
X73638226Y-95284073D01*
X73753146Y-95371938D01*
X73866850Y-95458862D01*
X73979307Y-95544824D01*
X74090488Y-95629800D01*
X74200364Y-95713770D01*
X74308905Y-95796711D01*
X74416081Y-95878602D01*
X74521863Y-95959420D01*
X74626222Y-96039143D01*
X74729128Y-96117750D01*
X74830552Y-96195218D01*
X74930463Y-96271526D01*
X75028833Y-96346652D01*
X75125631Y-96420574D01*
X75220830Y-96493269D01*
X75314397Y-96564717D01*
X75406306Y-96634894D01*
X75496525Y-96703779D01*
X75585026Y-96771350D01*
X75671778Y-96837586D01*
X75756753Y-96902464D01*
X75839920Y-96965962D01*
X75921251Y-97028058D01*
X76000715Y-97088731D01*
X76078284Y-97147958D01*
X76153927Y-97205717D01*
X76227615Y-97261988D01*
X76299320Y-97316746D01*
X76369010Y-97369972D01*
X76436657Y-97421642D01*
X76502231Y-97471735D01*
X76565703Y-97520229D01*
X76627042Y-97567102D01*
X76686221Y-97612332D01*
X76743208Y-97655897D01*
X76797975Y-97697775D01*
X76850492Y-97737944D01*
X76900729Y-97776382D01*
X76948657Y-97813068D01*
X76994247Y-97847979D01*
X77037469Y-97881093D01*
X77078293Y-97912389D01*
X77116690Y-97941845D01*
X77152630Y-97969438D01*
X77186084Y-97995147D01*
X77217023Y-98018949D01*
X77245416Y-98040823D01*
X77271235Y-98060747D01*
X77294449Y-98078699D01*
X77315030Y-98094657D01*
X77332948Y-98108599D01*
X77348172Y-98120503D01*
X77360675Y-98130347D01*
X77370425Y-98138110D01*
X77377395Y-98143768D01*
X77381553Y-98147301D01*
X77382871Y-98148687D01*
X77405955Y-98117059D01*
X77397026Y-98027628D01*
X77357977Y-97899744D01*
X77356085Y-97894556D01*
X77353439Y-97886967D01*
X77350046Y-97876996D01*
X77345911Y-97864660D01*
X77341040Y-97849977D01*
X77335438Y-97832967D01*
X77329113Y-97813648D01*
X77322068Y-97792037D01*
X77314310Y-97768153D01*
X77305846Y-97742014D01*
X77296680Y-97713639D01*
X77286818Y-97683046D01*
X77276266Y-97650253D01*
X77265031Y-97615278D01*
X77253117Y-97578141D01*
X77240531Y-97538858D01*
X77227278Y-97497449D01*
X77213364Y-97453932D01*
X77198795Y-97408325D01*
X77183577Y-97360646D01*
X77167715Y-97310914D01*
X77151215Y-97259147D01*
X77134083Y-97205363D01*
X77116325Y-97149581D01*
X77097947Y-97091818D01*
X77078954Y-97032094D01*
X77059352Y-96970426D01*
X77039147Y-96906833D01*
X77018344Y-96841333D01*
X76996950Y-96773944D01*
X76974971Y-96704686D01*
X76952411Y-96633575D01*
X76929277Y-96560630D01*
X76905575Y-96485870D01*
X76881310Y-96409313D01*
X76856488Y-96330977D01*
X76831115Y-96250881D01*
X76805197Y-96169043D01*
X76778739Y-96085480D01*
X76751747Y-96000212D01*
X76724228Y-95913257D01*
X76696186Y-95824633D01*
X76667628Y-95734358D01*
X76638560Y-95642451D01*
X76608986Y-95548930D01*
X76578914Y-95453813D01*
X76548348Y-95357118D01*
X76517294Y-95258865D01*
X76485759Y-95159070D01*
X76453748Y-95057753D01*
X76421267Y-94954932D01*
X76388322Y-94850625D01*
X76354918Y-94744850D01*
X76321061Y-94637626D01*
X76286757Y-94528971D01*
X76252012Y-94418904D01*
X76216831Y-94307442D01*
X76181221Y-94194603D01*
X76145186Y-94080407D01*
X76108734Y-93964872D01*
X76071869Y-93848015D01*
X76034598Y-93729855D01*
X75996926Y-93610411D01*
X75958858Y-93489701D01*
X75920402Y-93367742D01*
X75881562Y-93244554D01*
X75842345Y-93120154D01*
X75802755Y-92994562D01*
X75762800Y-92867795D01*
X75722484Y-92739871D01*
X75681814Y-92610809D01*
X75640795Y-92480627D01*
X75599433Y-92349344D01*
X75557733Y-92216977D01*
X75515703Y-92083545D01*
X75473346Y-91949067D01*
X75430670Y-91813561D01*
X75387680Y-91677044D01*
X75344381Y-91539536D01*
X75300780Y-91401054D01*
X75256882Y-91261618D01*
X75212694Y-91121244D01*
X75168220Y-90979952D01*
X75123466Y-90837760D01*
X75078439Y-90694685D01*
X75033144Y-90550747D01*
X74987588Y-90405964D01*
X74941774Y-90260354D01*
X74895711Y-90113935D01*
X74849402Y-89966726D01*
X74802855Y-89818745D01*
X74756075Y-89670010D01*
X74709067Y-89520539D01*
X74661837Y-89370352D01*
X74614392Y-89219465D01*
X74566737Y-89067898D01*
X74518877Y-88915669D01*
X74470819Y-88762795D01*
X74422569Y-88609297D01*
X74374131Y-88455190D01*
X74325512Y-88300495D01*
X74276718Y-88145229D01*
X74227755Y-87989410D01*
X74178627Y-87833058D01*
X74129342Y-87676189D01*
X74079904Y-87518823D01*
X74031375Y-87364348D01*
X73982981Y-87210316D01*
X73934727Y-87056743D01*
X73886619Y-86903648D01*
X73838663Y-86751047D01*
X73790863Y-86598959D01*
X73743227Y-86447402D01*
X73695759Y-86296391D01*
X73648464Y-86145946D01*
X73601349Y-85996084D01*
X73554419Y-85846823D01*
X73507679Y-85698179D01*
X73461135Y-85550170D01*
X73414793Y-85402815D01*
X73368658Y-85256130D01*
X73322735Y-85110134D01*
X73277031Y-84964843D01*
X73231550Y-84820276D01*
X73186299Y-84676450D01*
X73141282Y-84533382D01*
X73096506Y-84391090D01*
X73051975Y-84249592D01*
X73007696Y-84108906D01*
X72963675Y-83969048D01*
X72919915Y-83830036D01*
X72876424Y-83691888D01*
X72833207Y-83554622D01*
X72790268Y-83418255D01*
X72747615Y-83282804D01*
X72705251Y-83148288D01*
X72663184Y-83014724D01*
X72621418Y-82882128D01*
X72579959Y-82750520D01*
X72538813Y-82619917D01*
X72497984Y-82490335D01*
X72457479Y-82361793D01*
X72417303Y-82234308D01*
X72377462Y-82107899D01*
X72337962Y-81982581D01*
X72298807Y-81858373D01*
X72260003Y-81735293D01*
X72221556Y-81613358D01*
X72183472Y-81492586D01*
X72145756Y-81372994D01*
X72108413Y-81254599D01*
X72071449Y-81137420D01*
X72034870Y-81021474D01*
X71998682Y-80906779D01*
X71962889Y-80793352D01*
X71927497Y-80681210D01*
X71892512Y-80570371D01*
X71857939Y-80460853D01*
X71823785Y-80352674D01*
X71790054Y-80245851D01*
X71756751Y-80140401D01*
X71723884Y-80036342D01*
X71691457Y-79933692D01*
X71659475Y-79832468D01*
X71627944Y-79732687D01*
X71596871Y-79634369D01*
X71566259Y-79537529D01*
X71536116Y-79442185D01*
X71506446Y-79348356D01*
X71477255Y-79256058D01*
X71448548Y-79165310D01*
X71420332Y-79076128D01*
X71392611Y-78988531D01*
X71365391Y-78902536D01*
X71338678Y-78818160D01*
X71312477Y-78735421D01*
X71286794Y-78654337D01*
X71261635Y-78574925D01*
X71237004Y-78497203D01*
X71212908Y-78421189D01*
X71189352Y-78346899D01*
X71166341Y-78274352D01*
X71143882Y-78203565D01*
X71121979Y-78134555D01*
X71100638Y-78067341D01*
X71079865Y-78001939D01*
X71059666Y-77938368D01*
X71040045Y-77876645D01*
X71021009Y-77816788D01*
X71002563Y-77758813D01*
X70984712Y-77702739D01*
X70967462Y-77648583D01*
X70950819Y-77596364D01*
X70934788Y-77546097D01*
X70919375Y-77497801D01*
X70904584Y-77451494D01*
X70890423Y-77407193D01*
X70876896Y-77364916D01*
X70864009Y-77324680D01*
X70851768Y-77286503D01*
X70840177Y-77250402D01*
X70829243Y-77216395D01*
X70818971Y-77184499D01*
X70809367Y-77154733D01*
X70800436Y-77127113D01*
X70792183Y-77101658D01*
X70784615Y-77078384D01*
X70777737Y-77057310D01*
X70771554Y-77038452D01*
X70766072Y-77021829D01*
X70761296Y-77007459D01*
X70757233Y-76995357D01*
X70753887Y-76985543D01*
X70751264Y-76978034D01*
X70603455Y-76562222D01*
X77935408Y-70953615D01*
X78059968Y-70858330D01*
X78184198Y-70763294D01*
X78308081Y-70668522D01*
X78431599Y-70574028D01*
X78554732Y-70479826D01*
X78677464Y-70385929D01*
X78799777Y-70292352D01*
X78921651Y-70199108D01*
X79043069Y-70106212D01*
X79164012Y-70013676D01*
X79284463Y-69921516D01*
X79404404Y-69829744D01*
X79523816Y-69738375D01*
X79642681Y-69647422D01*
X79760982Y-69556901D01*
X79878699Y-69466823D01*
X79995815Y-69377204D01*
X80112312Y-69288057D01*
X80228171Y-69199395D01*
X80343375Y-69111234D01*
X80457906Y-69023587D01*
X80571744Y-68936467D01*
X80684873Y-68849888D01*
X80797273Y-68763866D01*
X80908928Y-68678412D01*
X81019818Y-68593542D01*
X81129926Y-68509268D01*
X81239233Y-68425606D01*
X81347722Y-68342568D01*
X81455374Y-68260169D01*
X81562171Y-68178423D01*
X81668095Y-68097343D01*
X81773127Y-68016943D01*
X81877251Y-67937238D01*
X81980447Y-67858240D01*
X82082698Y-67779965D01*
X82183985Y-67702426D01*
X82284290Y-67625636D01*
X82383596Y-67549610D01*
X82481883Y-67474361D01*
X82579134Y-67399904D01*
X82675331Y-67326252D01*
X82770456Y-67253419D01*
X82864490Y-67181419D01*
X82957416Y-67110266D01*
X83049215Y-67039974D01*
X83139868Y-66970556D01*
X83229359Y-66902027D01*
X83317669Y-66834401D01*
X83404780Y-66767690D01*
X83490673Y-66701910D01*
X83575331Y-66637074D01*
X83658735Y-66573196D01*
X83740867Y-66510290D01*
X83821709Y-66448369D01*
X83901244Y-66387448D01*
X83979452Y-66327540D01*
X84056316Y-66268660D01*
X84131818Y-66210821D01*
X84205940Y-66154037D01*
X84278662Y-66098322D01*
X84349968Y-66043690D01*
X84419839Y-65990154D01*
X84488257Y-65937729D01*
X84555204Y-65886429D01*
X84620662Y-65836267D01*
X84684613Y-65787258D01*
X84747038Y-65739414D01*
X84807919Y-65692751D01*
X84867239Y-65647281D01*
X84924978Y-65603019D01*
X84981120Y-65559979D01*
X85035646Y-65518174D01*
X85088537Y-65477619D01*
X85139777Y-65438327D01*
X85189345Y-65400312D01*
X85237225Y-65363588D01*
X85283399Y-65328170D01*
X85327847Y-65294070D01*
X85370553Y-65261302D01*
X85411497Y-65229882D01*
X85450663Y-65199822D01*
X85488031Y-65171136D01*
X85523583Y-65143838D01*
X85557302Y-65117942D01*
X85589169Y-65093463D01*
X85619167Y-65070413D01*
X85647276Y-65048807D01*
X85673479Y-65028659D01*
X85697758Y-65009982D01*
X85720095Y-64992790D01*
X85740472Y-64977098D01*
X85758869Y-64962919D01*
X85775270Y-64950267D01*
X85789657Y-64939155D01*
X85802010Y-64929599D01*
X85812312Y-64921611D01*
X86357264Y-64498408D01*
X76598312Y-64498408D01*
X66839165Y-64498408D01*
X66477420Y-63328376D01*
X66439732Y-63206501D01*
X66401887Y-63084168D01*
X66363890Y-62961387D01*
X66325743Y-62838169D01*
X66287450Y-62714522D01*
X66249013Y-62590458D01*
X66210436Y-62465985D01*
X66171721Y-62341114D01*
X66132873Y-62215855D01*
X66093894Y-62090217D01*
X66054788Y-61964211D01*
X66015557Y-61837846D01*
X65976204Y-61711132D01*
X65936733Y-61584079D01*
X65897147Y-61456697D01*
X65857449Y-61328995D01*
X65817643Y-61200984D01*
X65777731Y-61072674D01*
X65737716Y-60944074D01*
X65697601Y-60815195D01*
X65657391Y-60686045D01*
X65617087Y-60556636D01*
X65576694Y-60426977D01*
X65536214Y-60297077D01*
X65495650Y-60166947D01*
X65455005Y-60036597D01*
X65414283Y-59906036D01*
X65373487Y-59775274D01*
X65332620Y-59644322D01*
X65291685Y-59513188D01*
X65250685Y-59381884D01*
X65209624Y-59250418D01*
X65168503Y-59118801D01*
X65127328Y-58987043D01*
X65086100Y-58855153D01*
X65044824Y-58723142D01*
X65003501Y-58591018D01*
X64962135Y-58458793D01*
X64920730Y-58326476D01*
X64879289Y-58194077D01*
X64837814Y-58061605D01*
X64796309Y-57929071D01*
X64754776Y-57796485D01*
X64713220Y-57663856D01*
X64671643Y-57531194D01*
X64630049Y-57398510D01*
X64588439Y-57265812D01*
X64546819Y-57133112D01*
X64505190Y-57000418D01*
X64463557Y-56867740D01*
X64421921Y-56735090D01*
X64380286Y-56602476D01*
X64338656Y-56469908D01*
X64297034Y-56337396D01*
X64255422Y-56204950D01*
X64213824Y-56072580D01*
X64172243Y-55940296D01*
X64130682Y-55808108D01*
X64089144Y-55676025D01*
X64047632Y-55544058D01*
X64006150Y-55412216D01*
X63964701Y-55280510D01*
X63923287Y-55148948D01*
X63881913Y-55017542D01*
X63840580Y-54886300D01*
X63799293Y-54755233D01*
X63758054Y-54624350D01*
X63716867Y-54493663D01*
X63675734Y-54363179D01*
X63634659Y-54232910D01*
X63593645Y-54102865D01*
X63552696Y-53973053D01*
X63511813Y-53843486D01*
X63471001Y-53714173D01*
X63430262Y-53585123D01*
X63389600Y-53456347D01*
X63349018Y-53327854D01*
X63308519Y-53199654D01*
X63268106Y-53071758D01*
X63227782Y-52944174D01*
X63187550Y-52816914D01*
X63147415Y-52689986D01*
X63107377Y-52563401D01*
X63067442Y-52437169D01*
X63027611Y-52311299D01*
X62987889Y-52185801D01*
X62948278Y-52060686D01*
X62908781Y-51935962D01*
X62869402Y-51811641D01*
X62830144Y-51687731D01*
X62791009Y-51564244D01*
X62752001Y-51441187D01*
X62713124Y-51318573D01*
X62674380Y-51196409D01*
X62635772Y-51074707D01*
X62597303Y-50953476D01*
X62558978Y-50832726D01*
X62520798Y-50712467D01*
X62482767Y-50592708D01*
X62444888Y-50473461D01*
X62407165Y-50354733D01*
X62369600Y-50236536D01*
X62332196Y-50118880D01*
X62294958Y-50001773D01*
X62257887Y-49885227D01*
X62220987Y-49769250D01*
X62184261Y-49653854D01*
X62147712Y-49539047D01*
X62111344Y-49424839D01*
X62075160Y-49311241D01*
X62039162Y-49198262D01*
X62003354Y-49085913D01*
X61967739Y-48974202D01*
X61932320Y-48863141D01*
X61897100Y-48752738D01*
X61862083Y-48643004D01*
X61827272Y-48533949D01*
X61792669Y-48425582D01*
X61758278Y-48317913D01*
X61724102Y-48210952D01*
X61690144Y-48104710D01*
X61656407Y-47999196D01*
X61622895Y-47894419D01*
X61589611Y-47790391D01*
X61556557Y-47687120D01*
X61523737Y-47584616D01*
X61491154Y-47482890D01*
X61458811Y-47381951D01*
X61426711Y-47281809D01*
X61394858Y-47182474D01*
X61363254Y-47083956D01*
X61331904Y-46986265D01*
X61300809Y-46889411D01*
X61269973Y-46793403D01*
X61239399Y-46698251D01*
X61209090Y-46603966D01*
X61179050Y-46510557D01*
X61149282Y-46418034D01*
X61119788Y-46326407D01*
X61090572Y-46235686D01*
X61061638Y-46145880D01*
X61032987Y-46057000D01*
X61004624Y-45969055D01*
X60976551Y-45882056D01*
X60948771Y-45796012D01*
X60921289Y-45710933D01*
X60894106Y-45626829D01*
X60867226Y-45543710D01*
X60840653Y-45461586D01*
X60814389Y-45380466D01*
X60788437Y-45300361D01*
X60762801Y-45221280D01*
X60737483Y-45143233D01*
X60712488Y-45066231D01*
X60687817Y-44990282D01*
X60663475Y-44915397D01*
X60639464Y-44841586D01*
X60615788Y-44768859D01*
X60592449Y-44697225D01*
X60569451Y-44626695D01*
X60546796Y-44557278D01*
X60524489Y-44488984D01*
X60502532Y-44421823D01*
X60480928Y-44355805D01*
X60459681Y-44290940D01*
X60438793Y-44227238D01*
X60418269Y-44164708D01*
X60398110Y-44103360D01*
X60378320Y-44043205D01*
X60358902Y-43984252D01*
X60339860Y-43926511D01*
X60321196Y-43869992D01*
X60302913Y-43814705D01*
X60285016Y-43760660D01*
X60267506Y-43707866D01*
X60250387Y-43656334D01*
X60233663Y-43606073D01*
X60217336Y-43557093D01*
X60201409Y-43509404D01*
X60185887Y-43463017D01*
X60170770Y-43417940D01*
X60156064Y-43374184D01*
X60141771Y-43331759D01*
X60127894Y-43290674D01*
X60114436Y-43250939D01*
X60101401Y-43212565D01*
X60088792Y-43175561D01*
X60076611Y-43139937D01*
X60064862Y-43105703D01*
X60053548Y-43072868D01*
X60042673Y-43041444D01*
X60032238Y-43011438D01*
X60022249Y-42982863D01*
X60012707Y-42955726D01*
X60003615Y-42930039D01*
X59994978Y-42905811D01*
X59986798Y-42883051D01*
X59979078Y-42861771D01*
X59971821Y-42841979D01*
X59965031Y-42823686D01*
X59958710Y-42806901D01*
X59952862Y-42791635D01*
X59947490Y-42777897D01*
X59945168Y-42772107D01*
X59944774Y-42773266D01*
X59939098Y-42790130D01*
X59932716Y-42809258D01*
X59925631Y-42830631D01*
X59917850Y-42854234D01*
X59909378Y-42880049D01*
X59900220Y-42908059D01*
X59890382Y-42938247D01*
X59879869Y-42970596D01*
X59868686Y-43005089D01*
X59856840Y-43041708D01*
X59844334Y-43080438D01*
X59831175Y-43121259D01*
X59817369Y-43164157D01*
X59802919Y-43209113D01*
X59787833Y-43256110D01*
X59772114Y-43305132D01*
X59755770Y-43356161D01*
X59738804Y-43409180D01*
X59721223Y-43464172D01*
X59703031Y-43521120D01*
X59684234Y-43580008D01*
X59664839Y-43640817D01*
X59644849Y-43703531D01*
X59624270Y-43768133D01*
X59603108Y-43834606D01*
X59581368Y-43902932D01*
X59559056Y-43973095D01*
X59536176Y-44045077D01*
X59512735Y-44118861D01*
X59488737Y-44194431D01*
X59464188Y-44271770D01*
X59439094Y-44350859D01*
X59413460Y-44431683D01*
X59387291Y-44514224D01*
X59360592Y-44598464D01*
X59333370Y-44684388D01*
X59305629Y-44771977D01*
X59277374Y-44861216D01*
X59248612Y-44952085D01*
X59219347Y-45044570D01*
X59189585Y-45138652D01*
X59159332Y-45234315D01*
X59128592Y-45331541D01*
X59097371Y-45430313D01*
X59065675Y-45530615D01*
X59033509Y-45632429D01*
X59000878Y-45735738D01*
X58967788Y-45840525D01*
X58934243Y-45946773D01*
X58900250Y-46054465D01*
X58865814Y-46163584D01*
X58830940Y-46274112D01*
X58795634Y-46386034D01*
X58759901Y-46499331D01*
X58723746Y-46613986D01*
X58687175Y-46729983D01*
X58650193Y-46847304D01*
X58612806Y-46965933D01*
X58575018Y-47085852D01*
X58536836Y-47207045D01*
X58498265Y-47329493D01*
X58459309Y-47453180D01*
X58419975Y-47578090D01*
X58380268Y-47704204D01*
X58340194Y-47831506D01*
X58299757Y-47959979D01*
X58258963Y-48089606D01*
X58217817Y-48220369D01*
X58176326Y-48352252D01*
X58134493Y-48485238D01*
X58092325Y-48619308D01*
X58049827Y-48754448D01*
X58007005Y-48890638D01*
X57963863Y-49027863D01*
X57920408Y-49166105D01*
X57876644Y-49305346D01*
X57832577Y-49445571D01*
X57788212Y-49586762D01*
X57743555Y-49728902D01*
X57698611Y-49871973D01*
X57653386Y-50015959D01*
X57607884Y-50160843D01*
X57562112Y-50306607D01*
X57516075Y-50453235D01*
X57469777Y-50600709D01*
X57423225Y-50749013D01*
X57376424Y-50898129D01*
X57329379Y-51048040D01*
X57282096Y-51198729D01*
X57234579Y-51350179D01*
X57186835Y-51502373D01*
X57138869Y-51655295D01*
X57090686Y-51808926D01*
X57042292Y-51963249D01*
X56993691Y-52118249D01*
X56944890Y-52273907D01*
X56895894Y-52430207D01*
X56846707Y-52587131D01*
X56797336Y-52744663D01*
X56747787Y-52902785D01*
X56698063Y-53061480D01*
X56648171Y-53220731D01*
X56598116Y-53380522D01*
X56547904Y-53540835D01*
X56497694Y-53701148D01*
X56447646Y-53860942D01*
X56397766Y-54020198D01*
X56348060Y-54178900D01*
X56298532Y-54337030D01*
X56249187Y-54494572D01*
X56200032Y-54651509D01*
X56151072Y-54807822D01*
X56102311Y-54963496D01*
X56053756Y-55118513D01*
X56005411Y-55272856D01*
X55957282Y-55426508D01*
X55909375Y-55579452D01*
X55861694Y-55731671D01*
X55814245Y-55883147D01*
X55767034Y-56033865D01*
X55720065Y-56183805D01*
X55673345Y-56332952D01*
X55626878Y-56481289D01*
X55580670Y-56628797D01*
X55534725Y-56775461D01*
X55489051Y-56921263D01*
X55443651Y-57066187D01*
X55398532Y-57210214D01*
X55353698Y-57353328D01*
X55309155Y-57495511D01*
X55264908Y-57636748D01*
X55220963Y-57777019D01*
X55177325Y-57916310D01*
X55133999Y-58054602D01*
X55090991Y-58191878D01*
X55048306Y-58328122D01*
X55005950Y-58463315D01*
X54963927Y-58597442D01*
X54922243Y-58730485D01*
X54880904Y-58862426D01*
X54839915Y-58993250D01*
X54799280Y-59122938D01*
X54759007Y-59251474D01*
X54719099Y-59378840D01*
X54679562Y-59505020D01*
X54640402Y-59629997D01*
X54601624Y-59753752D01*
X54563234Y-59876270D01*
X54525236Y-59997533D01*
X54487636Y-60117524D01*
X54450439Y-60236226D01*
X54413651Y-60353622D01*
X54377277Y-60469695D01*
X54341323Y-60584427D01*
X54305793Y-60697802D01*
X54270694Y-60809803D01*
X54236030Y-60920412D01*
X54201806Y-61029613D01*
X54168030Y-61137387D01*
X54134704Y-61243719D01*
X54101836Y-61348591D01*
X54069429Y-61451986D01*
X54037491Y-61553887D01*
X54006025Y-61654277D01*
X53975038Y-61753139D01*
X53944534Y-61850455D01*
X53914520Y-61946209D01*
X53884999Y-62040383D01*
X53855979Y-62132961D01*
X53827464Y-62223925D01*
X53799459Y-62313259D01*
X53771970Y-62400944D01*
X53745002Y-62486965D01*
X53718560Y-62571304D01*
X53692651Y-62653943D01*
X53667278Y-62734867D01*
X53642449Y-62814057D01*
X53618167Y-62891497D01*
X53594438Y-62967169D01*
X53571268Y-63041057D01*
X53548662Y-63113143D01*
X53526626Y-63183411D01*
X53505164Y-63251842D01*
X53484282Y-63318421D01*
X53463986Y-63383130D01*
X53444280Y-63445952D01*
X53425171Y-63506870D01*
X53406663Y-63565867D01*
X53388761Y-63622925D01*
X53371472Y-63678028D01*
X53354801Y-63731158D01*
X53338752Y-63782299D01*
X53323332Y-63831434D01*
X53308545Y-63878544D01*
X53294397Y-63923614D01*
X53280894Y-63966626D01*
X53268040Y-64007563D01*
X53255841Y-64046408D01*
X53244303Y-64083144D01*
X53233430Y-64117753D01*
X53223228Y-64150219D01*
X53213703Y-64180525D01*
X53204860Y-64208653D01*
X53196703Y-64234587D01*
X53189240Y-64258309D01*
X53182474Y-64279802D01*
X53176411Y-64299050D01*
X53171057Y-64316034D01*
X53166417Y-64330739D01*
X53162496Y-64343146D01*
X53159299Y-64353239D01*
X53156833Y-64361001D01*
X53155102Y-64366415D01*
X53154111Y-64369463D01*
X53152446Y-64372460D01*
X53149440Y-64375416D01*
X53145071Y-64378330D01*
X53139315Y-64381203D01*
X53132148Y-64384036D01*
X53123548Y-64386829D01*
X53113490Y-64389582D01*
X53101953Y-64392295D01*
X53088911Y-64394969D01*
X53074342Y-64397605D01*
X53058223Y-64400202D01*
X53040530Y-64402761D01*
X53021239Y-64405282D01*
X53000328Y-64407767D01*
X52977772Y-64410214D01*
X52953549Y-64412624D01*
X52927636Y-64414998D01*
X52900008Y-64417337D01*
X52870642Y-64419639D01*
X52839515Y-64421907D01*
X52806604Y-64424140D01*
X52771886Y-64426338D01*
X52735336Y-64428502D01*
X52696931Y-64430632D01*
X52656649Y-64432729D01*
X52614465Y-64434793D01*
X52570357Y-64436824D01*
X52524301Y-64438822D01*
X52476273Y-64440789D01*
X52426251Y-64442724D01*
X52374210Y-64444628D01*
X52320128Y-64446500D01*
X52263981Y-64448343D01*
X52205746Y-64450155D01*
X52145399Y-64451937D01*
X52082916Y-64453689D01*
X52018276Y-64455412D01*
X51951453Y-64457107D01*
X51882426Y-64458773D01*
X51811170Y-64460411D01*
X51737662Y-64462021D01*
X51661878Y-64463604D01*
X51583796Y-64465159D01*
X51503392Y-64466688D01*
X51420642Y-64468191D01*
X51335523Y-64469668D01*
X51248012Y-64471119D01*
X51158086Y-64472545D01*
X51065721Y-64473945D01*
X50970893Y-64475322D01*
X50873579Y-64476674D01*
X50773757Y-64478002D01*
X50671401Y-64479307D01*
X50566490Y-64480588D01*
X50459000Y-64481847D01*
X50348907Y-64483083D01*
X50236188Y-64484298D01*
X50120819Y-64485490D01*
X50002778Y-64486661D01*
X49882041Y-64487812D01*
X49758584Y-64488941D01*
X49632384Y-64490050D01*
X49503418Y-64491139D01*
X49371662Y-64492209D01*
X49237093Y-64493259D01*
X49099688Y-64494291D01*
X48959423Y-64495304D01*
X48816275Y-64496298D01*
X48670220Y-64497275D01*
X48521235Y-64498235D01*
X48369297Y-64499177D01*
X48214382Y-64500102D01*
X48056467Y-64501012D01*
X47895529Y-64501905D01*
X47731543Y-64502782D01*
X47564488Y-64503644D01*
X47394339Y-64504491D01*
X47221073Y-64505323D01*
X47044666Y-64506142D01*
X46865096Y-64506946D01*
X46682338Y-64507736D01*
X46496371Y-64508514D01*
X46307169Y-64509278D01*
X46114710Y-64510030D01*
X45918970Y-64510770D01*
X45719927Y-64511498D01*
X45517556Y-64512215D01*
X45311834Y-64512920D01*
X45102738Y-64513615D01*
X44890244Y-64514299D01*
X44674330Y-64514974D01*
X44454971Y-64515638D01*
X44232145Y-64516294D01*
X44005827Y-64516940D01*
X43775995Y-64517578D01*
X43542626Y-64518207D01*
X43305695Y-64518829D01*
X33498510Y-64544113D01*
X31038427Y-64544113D01*
X30942994Y-64470577D01*
X30854661Y-64399581D01*
X30773928Y-64328710D01*
X30700744Y-64258125D01*
X30635059Y-64187982D01*
X30576824Y-64118442D01*
X30525987Y-64049663D01*
X30482499Y-63981805D01*
X30446309Y-63915025D01*
X30417368Y-63849484D01*
X30395624Y-63785339D01*
X30381028Y-63722751D01*
X30373530Y-63661877D01*
X30373079Y-63602876D01*
X30379625Y-63545908D01*
X30393117Y-63491131D01*
X30413507Y-63438705D01*
X30440743Y-63388788D01*
X30474775Y-63341539D01*
X30515553Y-63297116D01*
X30563026Y-63255680D01*
X30617146Y-63217389D01*
X30677860Y-63182401D01*
X30745120Y-63150875D01*
X30818875Y-63122972D01*
X30899074Y-63098848D01*
X30985667Y-63078664D01*
X31078605Y-63062578D01*
X31177837Y-63050749D01*
X31283312Y-63043336D01*
X31394981Y-63040497D01*
X52049815Y-62950878D01*
X58370980Y-42724653D01*
X59921079Y-42724653D01*
X59922439Y-42724522D01*
X59922026Y-42724193D01*
X59921079Y-42724653D01*
X58370980Y-42724653D01*
X59118375Y-40333167D01*
X59154050Y-40225563D01*
X59191694Y-40124493D01*
X59231185Y-40029957D01*
X59272402Y-39941955D01*
X59315224Y-39860485D01*
X59359528Y-39785549D01*
X59405195Y-39717144D01*
X59452102Y-39655272D01*
X59500128Y-39599931D01*
X59549151Y-39551121D01*
X59599050Y-39508842D01*
X59649704Y-39473093D01*
X59700991Y-39443875D01*
X59752790Y-39421186D01*
X59804979Y-39405027D01*
X59857438Y-39395396D01*
X59910043Y-39392294D01*
X59962675Y-39395720D01*
G37*
D11*
X60379470Y-64961087D03*
X59220530Y-65538913D03*
M02*
